M48
;Layer_Color=9474304
;FILE_FORMAT=4:4
METRIC,LZ
;TYPE=PLATED
T1F00S00C0.3000
T2F00S00C0.3000
T3F00S00C0.3000
T4F00S00C1.0500
%
T01
X00160469Y00045288
X00190469
X00205469Y00015288
X00235469
X00265469
X00295469
X00325469
X00340469Y00045288
X00310469
X00175469Y00075288
X00145469
X00370469Y00045288
X00400469
X00430469
X00460469
X00490469
X00520469
X00550468
X00580468
X00610468
X00640469
X00595468Y00075288
X00565468
X00535469
X00505469
X00475469
X00445469
X00460469Y00105288
X00490469
X00520469
X00550468
X00580468
X00595468Y00135288
X00580468Y00165288
X00550468
X00520469
X00490469
X00505469Y00135288
X00535469
Y00195288
X00565468
X00580468Y00225288
X00595468Y00255288
X00505469
X00475469
X00490469Y00225288
X00520469
X00460469
X00430469
X00400469
X00415469Y00255288
X00385469
X00415469Y00195288
X00445469
X00475469
Y00135288
X00445469
X00415469
X00430469Y00165288
X00400469
X00430469Y00105288
X00445469Y00015288
X00475469
X00505469
X00535469
X00565468
X00595468
X00415469
X00385469
X00355469
T02
X00175Y0012525
X0017525Y0014985
X0018686Y0013915
X00191Y00113
X0019886Y0011115
X0021225Y001145
X0021675Y00138
X0022536Y0015015
X00239204Y00142348
X0020886Y0015665
X0021575Y00181896
X0022875Y0018625
X0022325Y001925
X0022325Y0021375
X0024956
X002775Y002023
X0026625Y001865
X0032061Y0018265
X0031856Y0019465
Y0021815
X0031861Y002339
X0030411Y0022715
X00227084Y0024375
X0022725Y0025975
X0024281Y0026015
X0020175Y0027325
X00186
X0017025
X001545
X0015Y00289473
X0017875Y00261981
X0019175Y0025675
X00186Y0019975
X0017025
X001545
X00142Y00201
Y001725
X0016225
X0020175Y002
X0028531Y001109
Y0009515
X0029361Y000574
X0029261Y000469
X0031861Y0012225
X00335152
X0032781Y0011465
X0034475Y0015538
X0037106Y0013665
X0036856Y001874
X003595Y0020425
X003675Y0021675
X003675Y0029525
X003675Y003385
X0055325Y00254
X006355Y00229
X0061075Y00195
X00649Y0015125
X006985Y0017825
Y0011825
Y0004325
X0069975Y0025375
X0064175Y002855
T03
X0028261Y0014465
X0029361
X0030461
Y0015565
Y0016665
X0029361
Y0015565
X0028261
Y0016665
T04
X0046875Y001515
X0064675Y001007
Y002023
M30
