G04*
G04 #@! TF.GenerationSoftware,Altium Limited,Altium Designer,19.0.11 (319)*
G04*
G04 Layer_Color=8388736*
%FSLAX44Y44*%
%MOMM*%
G71*
G01*
G75*
%ADD32C,3.0000*%
%ADD33R,1.1532X1.0532*%
%ADD34R,1.0032X1.1032*%
%ADD35R,1.0532X1.1532*%
%ADD36O,1.2032X4.2032*%
%ADD37R,0.9032X0.5032*%
%ADD38R,0.9532X1.7532*%
%ADD39R,1.0032X0.5032*%
%ADD40R,1.1032X1.2032*%
%ADD41R,1.2032X1.1032*%
%ADD42R,1.1032X1.0032*%
%ADD43O,1.9032X0.8032*%
%ADD44R,12.9032X1.4732*%
%ADD45R,12.2682X1.4732*%
G04:AMPARAMS|DCode=46|XSize=1.1532mm|YSize=1.0532mm|CornerRadius=0mm|HoleSize=0mm|Usage=FLASHONLY|Rotation=45.000|XOffset=0mm|YOffset=0mm|HoleType=Round|Shape=Rectangle|*
%AMROTATEDRECTD46*
4,1,4,-0.0354,-0.7801,-0.7801,-0.0354,0.0354,0.7801,0.7801,0.0354,-0.0354,-0.7801,0.0*
%
%ADD46ROTATEDRECTD46*%

G04:AMPARAMS|DCode=47|XSize=1.2032mm|YSize=1.1032mm|CornerRadius=0mm|HoleSize=0mm|Usage=FLASHONLY|Rotation=225.000|XOffset=0mm|YOffset=0mm|HoleType=Round|Shape=Rectangle|*
%AMROTATEDRECTD47*
4,1,4,0.0354,0.8154,0.8154,0.0354,-0.0354,-0.8154,-0.8154,-0.0354,0.0354,0.8154,0.0*
%
%ADD47ROTATEDRECTD47*%

%ADD48R,1.6032X0.9532*%
%ADD49O,0.9032X0.5032*%
%ADD50R,0.5032X0.9032*%
%ADD51R,3.8032X3.8032*%
%ADD52R,1.6000X1.6000*%
%ADD53C,1.6000*%
%ADD54C,0.8032*%
D32*
X160010Y249000D02*
G03*
X160010Y249000I-10J0D01*
G01*
X635010D02*
G03*
X635010Y249000I-10J0D01*
G01*
Y20000D02*
G03*
X635010Y20000I-10J0D01*
G01*
X160010D02*
G03*
X160010Y20000I-10J0D01*
G01*
D33*
X201750Y234500D02*
D03*
Y247500D02*
D03*
X367500Y331750D02*
D03*
Y318750D02*
D03*
X201750Y219750D02*
D03*
Y206750D02*
D03*
X186000Y219750D02*
D03*
Y206750D02*
D03*
X170250Y219750D02*
D03*
Y206750D02*
D03*
X154500Y219750D02*
D03*
Y206750D02*
D03*
X318560Y212900D02*
D03*
Y199900D02*
D03*
X312060Y95900D02*
D03*
Y108900D02*
D03*
D34*
X217750Y234500D02*
D03*
X236750D02*
D03*
X227250Y254500D02*
D03*
D35*
X380500Y211500D02*
D03*
X367500D02*
D03*
X678750Y43250D02*
D03*
X691750D02*
D03*
X680000Y253750D02*
D03*
X693000D02*
D03*
X678750Y178250D02*
D03*
X691750D02*
D03*
X678500Y118250D02*
D03*
X691500D02*
D03*
X267060Y95150D02*
D03*
X280060D02*
D03*
X267060Y110900D02*
D03*
X280060D02*
D03*
X181610Y160900D02*
D03*
X168610D02*
D03*
Y111900D02*
D03*
X181610D02*
D03*
Y139150D02*
D03*
X168610D02*
D03*
D36*
X235610Y90150D02*
D03*
X223360D02*
D03*
X211110D02*
D03*
X198860D02*
D03*
D37*
X267360Y153150D02*
D03*
X319860Y143150D02*
D03*
Y148150D02*
D03*
Y153150D02*
D03*
Y158150D02*
D03*
Y163150D02*
D03*
Y168150D02*
D03*
Y173150D02*
D03*
X267360D02*
D03*
Y168150D02*
D03*
Y163150D02*
D03*
Y158150D02*
D03*
Y148150D02*
D03*
Y143150D02*
D03*
Y138150D02*
D03*
D38*
X270310Y58150D02*
D03*
D39*
X260310Y51650D02*
D03*
Y58150D02*
D03*
Y64650D02*
D03*
X280310D02*
D03*
Y58150D02*
D03*
Y51650D02*
D03*
D40*
Y78900D02*
D03*
X266810D02*
D03*
X277500Y216000D02*
D03*
X264000D02*
D03*
D41*
X253560Y181650D02*
D03*
Y195150D02*
D03*
X237710Y181650D02*
D03*
Y195150D02*
D03*
X368560Y181900D02*
D03*
Y168400D02*
D03*
X352810D02*
D03*
Y181900D02*
D03*
X337060Y168400D02*
D03*
Y181900D02*
D03*
X384060Y109150D02*
D03*
Y95650D02*
D03*
X327810Y109150D02*
D03*
Y95650D02*
D03*
X343560Y109150D02*
D03*
Y95650D02*
D03*
D42*
X217110Y150150D02*
D03*
X197110Y140650D02*
D03*
Y159650D02*
D03*
D43*
X327360Y234600D02*
D03*
Y247300D02*
D03*
Y260000D02*
D03*
Y272700D02*
D03*
X256360Y234600D02*
D03*
Y247300D02*
D03*
Y260000D02*
D03*
Y272700D02*
D03*
D44*
X73850Y189600D02*
D03*
Y111900D02*
D03*
D45*
X77025Y160795D02*
D03*
Y139205D02*
D03*
D46*
X358214Y149496D02*
D03*
X367406Y140304D02*
D03*
D47*
X346810Y138650D02*
D03*
X356356Y129104D02*
D03*
D48*
X363810Y95150D02*
D03*
Y109650D02*
D03*
D49*
X319860Y138150D02*
D03*
D50*
X311110Y181900D02*
D03*
X306110D02*
D03*
X301110D02*
D03*
X296110D02*
D03*
X291110D02*
D03*
X286110D02*
D03*
X281110D02*
D03*
X276110D02*
D03*
Y129400D02*
D03*
X281110D02*
D03*
X286110D02*
D03*
X291110D02*
D03*
X296110D02*
D03*
X301110D02*
D03*
X306110D02*
D03*
X311110D02*
D03*
D51*
X293610Y155650D02*
D03*
D52*
X468750Y151500D02*
D03*
D53*
X646750Y100700D02*
D03*
Y202300D02*
D03*
D54*
X304610Y144650D02*
D03*
X293610D02*
D03*
X282610D02*
D03*
X304610Y155650D02*
D03*
X293610D02*
D03*
X282610D02*
D03*
X304610Y166650D02*
D03*
X293610D02*
D03*
X282610D02*
D03*
M02*
