G04*
G04 #@! TF.GenerationSoftware,Altium Limited,Altium Designer,19.0.11 (319)*
G04*
G04 Layer_Color=32896*
%FSLAX44Y44*%
%MOMM*%
G71*
G01*
G75*
%ADD59C,0.0640*%
%ADD60C,0.0300*%
G36*
X368353Y352713D02*
X368395Y352602D01*
X368409Y352547D01*
X368423Y352519D01*
X368478Y352422D01*
X368548Y352353D01*
X368603Y352297D01*
X368617Y352269D01*
X368728Y352172D01*
X368839Y352075D01*
X368922Y352006D01*
X368950Y351992D01*
X368964Y351978D01*
X369047Y351909D01*
X369158Y351839D01*
X369352Y351715D01*
X369435Y351659D01*
X369505Y351618D01*
X369546Y351590D01*
X369560Y351576D01*
X372902Y349399D01*
X374996Y351271D01*
X375135Y351396D01*
X375246Y351493D01*
X375357Y351590D01*
X375440Y351673D01*
X375496Y351729D01*
X375537Y351770D01*
X375565Y351798D01*
X375579Y351812D01*
X375704Y351964D01*
X375787Y352089D01*
X375842Y352172D01*
X375856Y352186D01*
Y352200D01*
X375926Y352339D01*
X375967Y352477D01*
X375981Y352533D01*
Y352575D01*
X375995Y352602D01*
Y352616D01*
X376411D01*
Y349426D01*
X376009D01*
X375981Y349607D01*
X375939Y349731D01*
X375884Y349815D01*
X375870Y349842D01*
X375815Y349898D01*
X375759Y349926D01*
X375648Y349981D01*
X375565Y349995D01*
X375537D01*
X375523D01*
X375385Y349981D01*
X375246Y349953D01*
X375204Y349926D01*
X375163Y349912D01*
X375135Y349898D01*
X375121D01*
X374955Y349815D01*
X374775Y349718D01*
X374691Y349662D01*
X374636Y349634D01*
X374594Y349607D01*
X374580Y349593D01*
X374455Y349496D01*
X374303Y349385D01*
X374150Y349260D01*
X373998Y349149D01*
X373873Y349038D01*
X373762Y348941D01*
X373693Y348885D01*
X373679Y348858D01*
X373665D01*
X373457Y348677D01*
X373291Y348539D01*
X373166Y348414D01*
X373055Y348317D01*
X372985Y348248D01*
X372944Y348206D01*
X372916Y348178D01*
X372902Y348164D01*
X372805Y348040D01*
X372736Y347929D01*
X372694Y347845D01*
X372680Y347831D01*
Y347818D01*
X372653Y347679D01*
X372639Y347540D01*
X372625Y347471D01*
Y347235D01*
X374844D01*
X374969D01*
X375080D01*
X375163Y347249D01*
X375246D01*
X375302D01*
X375343Y347263D01*
X375357D01*
X375371D01*
X375496Y347291D01*
X375579Y347318D01*
X375648Y347332D01*
X375662Y347346D01*
X375745Y347402D01*
X375801Y347457D01*
X375842Y347513D01*
X375856Y347526D01*
X375912Y347637D01*
X375967Y347762D01*
X375981Y347831D01*
X375995Y347873D01*
X376009Y347901D01*
Y347915D01*
X376411D01*
Y344642D01*
X376009D01*
X375953Y344794D01*
X375912Y344905D01*
X375870Y344975D01*
X375856Y345002D01*
X375801Y345099D01*
X375731Y345155D01*
X375690Y345196D01*
X375662Y345210D01*
X375551Y345252D01*
X375454Y345280D01*
X375371Y345294D01*
X375343D01*
X375329D01*
X375177Y345308D01*
X375010D01*
X374941D01*
X374899D01*
X374858D01*
X374844D01*
X369463D01*
X369269D01*
X369102Y345294D01*
X369047D01*
X369005Y345280D01*
X368978D01*
X368964D01*
X368839Y345266D01*
X368728Y345238D01*
X368672Y345210D01*
X368645Y345196D01*
X368561Y345141D01*
X368506Y345086D01*
X368464Y345030D01*
X368451Y345002D01*
X368395Y344891D01*
X368353Y344767D01*
X368326Y344683D01*
X368312Y344656D01*
Y344642D01*
X367910D01*
Y347915D01*
X368312D01*
X368340Y347790D01*
X368381Y347693D01*
X368395Y347637D01*
X368409Y347610D01*
X368464Y347526D01*
X368506Y347457D01*
X368548Y347416D01*
X368561Y347402D01*
X368631Y347360D01*
X368686Y347318D01*
X368742Y347304D01*
X368756Y347291D01*
X368853Y347277D01*
X368950Y347263D01*
X369033Y347249D01*
X369047D01*
X369061D01*
X369199Y347235D01*
X369338D01*
X369394D01*
X369421D01*
X369449D01*
X369463D01*
X371945D01*
Y347360D01*
X371931Y347513D01*
X371918Y347623D01*
X371890Y347679D01*
X371876Y347707D01*
X371807Y347804D01*
X371737Y347887D01*
X371682Y347943D01*
X371668Y347970D01*
X371654D01*
X371529Y348067D01*
X371404Y348164D01*
X371349Y348206D01*
X371293Y348248D01*
X371266Y348261D01*
X371252Y348275D01*
X369768Y349232D01*
X369602Y349343D01*
X369449Y349426D01*
X369324Y349510D01*
X369241Y349565D01*
X369158Y349607D01*
X369116Y349634D01*
X369088Y349648D01*
X369075D01*
X368950Y349718D01*
X368867Y349759D01*
X368811Y349787D01*
X368797D01*
X368728Y349801D01*
X368672Y349815D01*
X368617D01*
X368603D01*
X368520Y349801D01*
X368464Y349787D01*
X368423Y349759D01*
X368409Y349745D01*
X368381Y349718D01*
X368367Y349676D01*
X368340Y349579D01*
X368312Y349496D01*
Y349454D01*
X367910D01*
Y352838D01*
X368312D01*
X368353Y352713D01*
D02*
G37*
G36*
X366098Y344531D02*
X363921D01*
Y345391D01*
X364129Y345446D01*
X364323Y345502D01*
X364393Y345529D01*
X364448Y345543D01*
X364490Y345557D01*
X364504D01*
X364614Y345599D01*
X364712Y345640D01*
X364809Y345682D01*
X364878Y345723D01*
X364934Y345751D01*
X364975Y345779D01*
X364989Y345807D01*
X365003D01*
X365128Y345932D01*
X365211Y346043D01*
X365266Y346126D01*
X365280Y346140D01*
Y346153D01*
X365308Y346237D01*
X365336Y346334D01*
X365363Y346528D01*
X365377Y346611D01*
Y347235D01*
X359150D01*
X358956D01*
X358790D01*
X358734Y347221D01*
X358693D01*
X358665D01*
X358651D01*
X358512Y347207D01*
X358415Y347166D01*
X358346Y347138D01*
X358318Y347124D01*
X358235Y347055D01*
X358166Y346986D01*
X358124Y346930D01*
X358110Y346916D01*
Y346902D01*
X358069Y346777D01*
X358027Y346639D01*
X358013Y346583D01*
Y346528D01*
X357999Y346500D01*
Y346486D01*
X357597D01*
Y349926D01*
X357999D01*
X358027Y349773D01*
X358055Y349676D01*
X358069Y349607D01*
X358083Y349579D01*
X358124Y349496D01*
X358166Y349440D01*
X358193Y349399D01*
X358207Y349385D01*
X358318Y349302D01*
X358360Y349274D01*
X358374Y349260D01*
X358471Y349232D01*
X358554Y349204D01*
X358623Y349191D01*
X358651D01*
X358804Y349177D01*
X358970D01*
X359039D01*
X359095D01*
X359137D01*
X359150D01*
X365377D01*
Y349801D01*
X365363Y349926D01*
X365350Y350009D01*
Y350037D01*
X365322Y350148D01*
X365294Y350231D01*
X365280Y350286D01*
X365266Y350300D01*
X365225Y350383D01*
X365169Y350439D01*
X365128Y350480D01*
X365114Y350494D01*
X365031Y350564D01*
X364961Y350619D01*
X364906Y350661D01*
X364878Y350675D01*
X364767Y350730D01*
X364656Y350785D01*
X364573Y350813D01*
X364545Y350827D01*
X364531D01*
X364448Y350855D01*
X364351Y350883D01*
X364157Y350952D01*
X364060Y350980D01*
X363990Y351007D01*
X363935Y351021D01*
X363921D01*
Y351867D01*
X366098D01*
Y344531D01*
D02*
G37*
G36*
X358041Y344018D02*
X358083Y343907D01*
X358138Y343796D01*
X358193Y343713D01*
X358249Y343629D01*
X358304Y343574D01*
X358332Y343546D01*
X358346Y343532D01*
X358471Y343435D01*
X358610Y343338D01*
X358887Y343172D01*
X359012Y343102D01*
X359109Y343047D01*
X359178Y343019D01*
X359206Y343005D01*
X360052Y342617D01*
X360232Y342520D01*
X360398Y342423D01*
X360551Y342326D01*
X360662Y342243D01*
X360759Y342173D01*
X360842Y342118D01*
X360884Y342076D01*
X360898Y342062D01*
X361023Y341951D01*
X361120Y341827D01*
X361217Y341702D01*
X361286Y341577D01*
X361342Y341480D01*
X361383Y341397D01*
X361411Y341327D01*
X361425Y341313D01*
X361494D01*
X361591Y341535D01*
X361688Y341729D01*
X361772Y341896D01*
X361855Y342034D01*
X361924Y342132D01*
X361979Y342215D01*
X362021Y342270D01*
X362035Y342284D01*
X362146Y342409D01*
X362271Y342520D01*
X362396Y342617D01*
X362506Y342700D01*
X362604Y342770D01*
X362687Y342811D01*
X362742Y342839D01*
X362756Y342853D01*
X362923Y342922D01*
X363103Y342978D01*
X363283Y343019D01*
X363450Y343047D01*
X363588Y343061D01*
X363713Y343075D01*
X363782D01*
X363810D01*
X363977D01*
X364143Y343061D01*
X364282Y343033D01*
X364393Y343019D01*
X364490Y342991D01*
X364573Y342964D01*
X364614Y342950D01*
X364628D01*
X364864Y342853D01*
X364975Y342797D01*
X365058Y342742D01*
X365141Y342686D01*
X365197Y342645D01*
X365225Y342617D01*
X365239Y342603D01*
X365419Y342423D01*
X365571Y342256D01*
X365613Y342173D01*
X365655Y342118D01*
X365668Y342076D01*
X365682Y342062D01*
X365821Y341757D01*
X365877Y341605D01*
X365932Y341466D01*
X365960Y341341D01*
X365988Y341244D01*
X366001Y341189D01*
Y341161D01*
X366029Y340967D01*
X366057Y340745D01*
X366071Y340537D01*
X366085Y340343D01*
X366098Y340176D01*
Y336279D01*
X365696D01*
X365641Y336432D01*
X365599Y336543D01*
X365558Y336612D01*
X365544Y336640D01*
X365488Y336737D01*
X365419Y336792D01*
X365377Y336834D01*
X365350Y336848D01*
X365239Y336889D01*
X365141Y336917D01*
X365058Y336931D01*
X365031D01*
X365017D01*
X364864Y336945D01*
X364698D01*
X364628D01*
X364587D01*
X364545D01*
X364531D01*
X359150D01*
X358956D01*
X358790Y336931D01*
X358734D01*
X358693Y336917D01*
X358665D01*
X358651D01*
X358526Y336903D01*
X358415Y336875D01*
X358360Y336848D01*
X358332Y336834D01*
X358249Y336778D01*
X358193Y336723D01*
X358152Y336667D01*
X358138Y336640D01*
X358083Y336529D01*
X358041Y336404D01*
X358013Y336321D01*
X357999Y336293D01*
Y336279D01*
X357597D01*
Y339552D01*
X357999D01*
X358027Y339427D01*
X358069Y339330D01*
X358096Y339247D01*
X358124Y339192D01*
X358152Y339136D01*
X358180Y339108D01*
X358193Y339081D01*
X358290Y339011D01*
X358388Y338956D01*
X358471Y338928D01*
X358485Y338914D01*
X358498D01*
X358582Y338900D01*
X358679Y338886D01*
X358901Y338872D01*
X358998D01*
X359081D01*
X359137D01*
X359150D01*
X361161D01*
Y339358D01*
X361147Y339455D01*
X361133Y339552D01*
X361120Y339621D01*
X361106Y339677D01*
X361092Y339719D01*
X361078Y339732D01*
Y339746D01*
X361009Y339871D01*
X360925Y339968D01*
X360842Y340037D01*
X360828Y340065D01*
X360815D01*
X360731Y340121D01*
X360620Y340190D01*
X360398Y340315D01*
X360301Y340356D01*
X360218Y340398D01*
X360163Y340426D01*
X360135Y340440D01*
X359081Y340925D01*
X358734Y341091D01*
X358429Y341244D01*
X358180Y341383D01*
X357971Y341507D01*
X357805Y341605D01*
X357694Y341674D01*
X357625Y341729D01*
X357597Y341743D01*
Y344142D01*
X357999D01*
X358041Y344018D01*
D02*
G37*
G36*
X368367Y343713D02*
X368423Y343588D01*
X368478Y343505D01*
X368492Y343491D01*
Y343477D01*
X368589Y343380D01*
X368700Y343297D01*
X368783Y343241D01*
X368797Y343227D01*
X368811D01*
X368894Y343200D01*
X368991Y343158D01*
X369213Y343088D01*
X369324Y343061D01*
X369407Y343033D01*
X369463Y343005D01*
X369477D01*
X376466Y340953D01*
Y339289D01*
X369532Y336681D01*
X369380Y336626D01*
X369241Y336570D01*
X369116Y336515D01*
X369033Y336473D01*
X368950Y336432D01*
X368894Y336404D01*
X368867Y336376D01*
X368853D01*
X368700Y336265D01*
X368575Y336168D01*
X368506Y336085D01*
X368478Y336071D01*
Y336057D01*
X368395Y335932D01*
X368340Y335808D01*
X368326Y335752D01*
Y335710D01*
X368312Y335683D01*
Y335669D01*
X367910D01*
Y338318D01*
X368312D01*
X368326Y338207D01*
X368353Y338110D01*
X368437Y337943D01*
X368534Y337832D01*
X368658Y337749D01*
X368769Y337708D01*
X368867Y337680D01*
X368936Y337666D01*
X368964D01*
X369158Y337680D01*
X369310Y337694D01*
X369380Y337708D01*
X369421D01*
X369449Y337721D01*
X369463D01*
X369643Y337763D01*
X369796Y337818D01*
X369851Y337846D01*
X369907Y337860D01*
X369934Y337874D01*
X369948D01*
X370545Y338068D01*
Y340731D01*
X369934Y340911D01*
X369685Y340980D01*
X369588Y340994D01*
X369491Y341022D01*
X369421Y341036D01*
X369366D01*
X369338Y341050D01*
X369324D01*
X369158Y341078D01*
X369019Y341091D01*
X368964D01*
X368922D01*
X368908D01*
X368894D01*
X368811D01*
X368728Y341064D01*
X368603Y341022D01*
X368520Y340967D01*
X368506Y340953D01*
X368492Y340939D01*
X368451Y340870D01*
X368409Y340800D01*
X368353Y340634D01*
X368340Y340564D01*
X368326Y340509D01*
X368312Y340467D01*
Y340453D01*
X367910D01*
Y343893D01*
X368312D01*
X368367Y343713D01*
D02*
G37*
G36*
X358055Y335350D02*
X358110Y335225D01*
X358166Y335142D01*
X358180Y335128D01*
Y335114D01*
X358277Y335017D01*
X358388Y334934D01*
X358471Y334878D01*
X358485Y334865D01*
X358498D01*
X358582Y334837D01*
X358679Y334795D01*
X358901Y334726D01*
X359012Y334698D01*
X359095Y334670D01*
X359150Y334643D01*
X359164D01*
X366154Y332590D01*
Y330926D01*
X359220Y328319D01*
X359067Y328263D01*
X358928Y328208D01*
X358804Y328152D01*
X358720Y328111D01*
X358637Y328069D01*
X358582Y328041D01*
X358554Y328014D01*
X358540D01*
X358388Y327903D01*
X358263Y327805D01*
X358193Y327722D01*
X358166Y327709D01*
Y327695D01*
X358083Y327570D01*
X358027Y327445D01*
X358013Y327389D01*
Y327348D01*
X357999Y327320D01*
Y327306D01*
X357597D01*
Y329955D01*
X357999D01*
X358013Y329844D01*
X358041Y329747D01*
X358124Y329581D01*
X358221Y329470D01*
X358346Y329386D01*
X358457Y329345D01*
X358554Y329317D01*
X358623Y329303D01*
X358651D01*
X358845Y329317D01*
X358998Y329331D01*
X359067Y329345D01*
X359109D01*
X359137Y329359D01*
X359150D01*
X359331Y329400D01*
X359483Y329456D01*
X359539Y329484D01*
X359594Y329497D01*
X359622Y329511D01*
X359636D01*
X360232Y329706D01*
Y332368D01*
X359622Y332548D01*
X359372Y332618D01*
X359275Y332632D01*
X359178Y332659D01*
X359109Y332673D01*
X359053D01*
X359025Y332687D01*
X359012D01*
X358845Y332715D01*
X358707Y332729D01*
X358651D01*
X358610D01*
X358596D01*
X358582D01*
X358498D01*
X358415Y332701D01*
X358290Y332659D01*
X358207Y332604D01*
X358193Y332590D01*
X358180Y332576D01*
X358138Y332507D01*
X358096Y332438D01*
X358041Y332271D01*
X358027Y332202D01*
X358013Y332146D01*
X357999Y332105D01*
Y332091D01*
X357597D01*
Y335530D01*
X357999D01*
X358055Y335350D01*
D02*
G37*
G36*
X370184Y334324D02*
X370045Y334282D01*
X369921Y334240D01*
X369810Y334213D01*
X369726Y334185D01*
X369657Y334157D01*
X369602Y334129D01*
X369574Y334116D01*
X369560D01*
X369407Y334046D01*
X369296Y333991D01*
X369227Y333949D01*
X369199Y333935D01*
X369102Y333866D01*
X369019Y333811D01*
X368964Y333755D01*
X368936Y333741D01*
X368867Y333658D01*
X368811Y333589D01*
X368769Y333533D01*
X368756Y333506D01*
X368714Y333422D01*
X368686Y333339D01*
X368658Y333270D01*
Y333242D01*
X368645Y333131D01*
X368631Y333006D01*
Y331522D01*
X371959D01*
Y332452D01*
X371945Y332548D01*
X371931Y332618D01*
X371918Y332673D01*
X371890Y332757D01*
X371876Y332784D01*
X371807Y332881D01*
X371723Y332965D01*
X371640Y333020D01*
X371626Y333034D01*
X371613D01*
X371529Y333075D01*
X371446Y333117D01*
X371266Y333173D01*
X371183Y333200D01*
X371113Y333214D01*
X371072Y333228D01*
X371058D01*
Y333935D01*
X373596D01*
Y333228D01*
X373457Y333200D01*
X373346Y333159D01*
X373249Y333131D01*
X373166Y333103D01*
X373110Y333075D01*
X373069Y333048D01*
X373041Y333034D01*
X373027D01*
X372916Y332951D01*
X372833Y332868D01*
X372777Y332798D01*
X372764Y332784D01*
Y332770D01*
X372722Y332646D01*
X372708Y332507D01*
X372694Y332452D01*
Y331522D01*
X375690D01*
Y333048D01*
X375676Y333186D01*
X375648Y333311D01*
X375634Y333408D01*
X375607Y333478D01*
X375579Y333519D01*
X375565Y333547D01*
Y333561D01*
X375454Y333700D01*
X375357Y333811D01*
X375274Y333880D01*
X375246Y333908D01*
X375232D01*
X375135Y333963D01*
X375024Y334019D01*
X374747Y334129D01*
X374622Y334185D01*
X374525Y334227D01*
X374455Y334240D01*
X374442Y334254D01*
X374428D01*
Y335114D01*
X376411D01*
Y328929D01*
X376009D01*
X375953Y329081D01*
X375912Y329192D01*
X375870Y329262D01*
X375856Y329290D01*
X375801Y329386D01*
X375731Y329442D01*
X375690Y329484D01*
X375662Y329497D01*
X375551Y329539D01*
X375454Y329567D01*
X375371Y329581D01*
X375343D01*
X375329D01*
X375177Y329595D01*
X375010D01*
X374941D01*
X374899D01*
X374858D01*
X374844D01*
X369463D01*
X369269D01*
X369102Y329581D01*
X369047D01*
X369005Y329567D01*
X368978D01*
X368964D01*
X368839Y329553D01*
X368728Y329525D01*
X368672Y329497D01*
X368645Y329484D01*
X368561Y329428D01*
X368506Y329373D01*
X368464Y329317D01*
X368451Y329290D01*
X368395Y329179D01*
X368353Y329054D01*
X368326Y328970D01*
X368312Y328943D01*
Y328929D01*
X367910D01*
Y335059D01*
X370184Y335170D01*
Y334324D01*
D02*
G37*
G36*
X366098Y319582D02*
X363921D01*
Y320441D01*
X364129Y320497D01*
X364323Y320552D01*
X364393Y320580D01*
X364448Y320594D01*
X364490Y320608D01*
X364504D01*
X364614Y320649D01*
X364712Y320691D01*
X364809Y320733D01*
X364878Y320774D01*
X364934Y320802D01*
X364975Y320830D01*
X364989Y320858D01*
X365003D01*
X365128Y320982D01*
X365211Y321093D01*
X365266Y321176D01*
X365280Y321190D01*
Y321204D01*
X365308Y321287D01*
X365336Y321385D01*
X365363Y321579D01*
X365377Y321662D01*
Y322286D01*
X359150D01*
X358956D01*
X358790D01*
X358734Y322272D01*
X358693D01*
X358665D01*
X358651D01*
X358512Y322258D01*
X358415Y322217D01*
X358346Y322189D01*
X358318Y322175D01*
X358235Y322106D01*
X358166Y322036D01*
X358124Y321981D01*
X358110Y321967D01*
Y321953D01*
X358069Y321828D01*
X358027Y321690D01*
X358013Y321634D01*
Y321579D01*
X357999Y321551D01*
Y321537D01*
X357597D01*
Y324976D01*
X357999D01*
X358027Y324824D01*
X358055Y324727D01*
X358069Y324657D01*
X358083Y324630D01*
X358124Y324547D01*
X358166Y324491D01*
X358193Y324449D01*
X358207Y324436D01*
X358318Y324352D01*
X358360Y324325D01*
X358374Y324311D01*
X358471Y324283D01*
X358554Y324255D01*
X358623Y324241D01*
X358651D01*
X358804Y324227D01*
X358970D01*
X359039D01*
X359095D01*
X359137D01*
X359150D01*
X365377D01*
Y324852D01*
X365363Y324976D01*
X365350Y325060D01*
Y325087D01*
X365322Y325198D01*
X365294Y325281D01*
X365280Y325337D01*
X365266Y325351D01*
X365225Y325434D01*
X365169Y325490D01*
X365128Y325531D01*
X365114Y325545D01*
X365031Y325614D01*
X364961Y325670D01*
X364906Y325711D01*
X364878Y325725D01*
X364767Y325781D01*
X364656Y325836D01*
X364573Y325864D01*
X364545Y325878D01*
X364531D01*
X364448Y325906D01*
X364351Y325933D01*
X364157Y326003D01*
X364060Y326030D01*
X363990Y326058D01*
X363935Y326072D01*
X363921D01*
Y326918D01*
X366098D01*
Y319582D01*
D02*
G37*
G36*
X368353Y328222D02*
X368395Y328111D01*
X368451Y328000D01*
X368506Y327916D01*
X368561Y327833D01*
X368617Y327778D01*
X368645Y327750D01*
X368658Y327736D01*
X368783Y327639D01*
X368922Y327542D01*
X369199Y327376D01*
X369324Y327306D01*
X369421Y327251D01*
X369491Y327223D01*
X369518Y327209D01*
X370364Y326821D01*
X370545Y326724D01*
X370711Y326627D01*
X370864Y326530D01*
X370975Y326446D01*
X371072Y326377D01*
X371155Y326322D01*
X371196Y326280D01*
X371210Y326266D01*
X371335Y326155D01*
X371432Y326030D01*
X371529Y325906D01*
X371599Y325781D01*
X371654Y325684D01*
X371696Y325601D01*
X371723Y325531D01*
X371737Y325517D01*
X371807D01*
X371904Y325739D01*
X372001Y325933D01*
X372084Y326100D01*
X372167Y326238D01*
X372237Y326335D01*
X372292Y326419D01*
X372334Y326474D01*
X372347Y326488D01*
X372458Y326613D01*
X372583Y326724D01*
X372708Y326821D01*
X372819Y326904D01*
X372916Y326973D01*
X372999Y327015D01*
X373055Y327043D01*
X373069Y327057D01*
X373235Y327126D01*
X373415Y327182D01*
X373596Y327223D01*
X373762Y327251D01*
X373901Y327265D01*
X374026Y327279D01*
X374095D01*
X374123D01*
X374289D01*
X374455Y327265D01*
X374594Y327237D01*
X374705Y327223D01*
X374802Y327195D01*
X374885Y327168D01*
X374927Y327154D01*
X374941D01*
X375177Y327057D01*
X375288Y327001D01*
X375371Y326946D01*
X375454Y326890D01*
X375509Y326849D01*
X375537Y326821D01*
X375551Y326807D01*
X375731Y326627D01*
X375884Y326460D01*
X375926Y326377D01*
X375967Y326322D01*
X375981Y326280D01*
X375995Y326266D01*
X376134Y325961D01*
X376189Y325808D01*
X376245Y325670D01*
X376272Y325545D01*
X376300Y325448D01*
X376314Y325392D01*
Y325365D01*
X376342Y325171D01*
X376369Y324949D01*
X376383Y324741D01*
X376397Y324547D01*
X376411Y324380D01*
Y320483D01*
X376009D01*
X375953Y320636D01*
X375912Y320746D01*
X375870Y320816D01*
X375856Y320844D01*
X375801Y320941D01*
X375731Y320996D01*
X375690Y321038D01*
X375662Y321052D01*
X375551Y321093D01*
X375454Y321121D01*
X375371Y321135D01*
X375343D01*
X375329D01*
X375177Y321149D01*
X375010D01*
X374941D01*
X374899D01*
X374858D01*
X374844D01*
X369463D01*
X369269D01*
X369102Y321135D01*
X369047D01*
X369005Y321121D01*
X368978D01*
X368964D01*
X368839Y321107D01*
X368728Y321079D01*
X368672Y321052D01*
X368645Y321038D01*
X368561Y320982D01*
X368506Y320927D01*
X368464Y320871D01*
X368451Y320844D01*
X368395Y320733D01*
X368353Y320608D01*
X368326Y320525D01*
X368312Y320497D01*
Y320483D01*
X367910D01*
Y323756D01*
X368312D01*
X368340Y323631D01*
X368381Y323534D01*
X368409Y323451D01*
X368437Y323395D01*
X368464Y323340D01*
X368492Y323312D01*
X368506Y323284D01*
X368603Y323215D01*
X368700Y323160D01*
X368783Y323132D01*
X368797Y323118D01*
X368811D01*
X368894Y323104D01*
X368991Y323090D01*
X369213Y323076D01*
X369310D01*
X369394D01*
X369449D01*
X369463D01*
X371474D01*
Y323562D01*
X371460Y323659D01*
X371446Y323756D01*
X371432Y323825D01*
X371418Y323881D01*
X371404Y323922D01*
X371391Y323936D01*
Y323950D01*
X371321Y324075D01*
X371238Y324172D01*
X371155Y324241D01*
X371141Y324269D01*
X371127D01*
X371044Y324325D01*
X370933Y324394D01*
X370711Y324519D01*
X370614Y324560D01*
X370531Y324602D01*
X370475Y324630D01*
X370448Y324644D01*
X369394Y325129D01*
X369047Y325295D01*
X368742Y325448D01*
X368492Y325587D01*
X368284Y325711D01*
X368118Y325808D01*
X368007Y325878D01*
X367937Y325933D01*
X367910Y325947D01*
Y328346D01*
X368312D01*
X368353Y328222D01*
D02*
G37*
G36*
X360218Y318708D02*
X360412Y318694D01*
X360593Y318652D01*
X360745Y318625D01*
X360870Y318583D01*
X360953Y318542D01*
X361023Y318528D01*
X361036Y318514D01*
X361203Y318431D01*
X361355Y318320D01*
X361508Y318223D01*
X361619Y318111D01*
X361730Y318015D01*
X361799Y317931D01*
X361855Y317876D01*
X361869Y317862D01*
X362021Y317682D01*
X362160Y317488D01*
X362285Y317279D01*
X362409Y317099D01*
X362506Y316919D01*
X362590Y316780D01*
X362617Y316725D01*
X362645Y316683D01*
X362659Y316669D01*
Y316655D01*
X362784Y316434D01*
X362895Y316239D01*
X362992Y316073D01*
X363075Y315934D01*
X363144Y315823D01*
X363200Y315754D01*
X363228Y315698D01*
X363242Y315685D01*
X363339Y315574D01*
X363422Y315476D01*
X363519Y315393D01*
X363588Y315338D01*
X363658Y315282D01*
X363713Y315255D01*
X363741Y315241D01*
X363755Y315227D01*
X363963Y315144D01*
X364171Y315102D01*
X364254D01*
X364323Y315088D01*
X364365D01*
X364379D01*
X364504Y315102D01*
X364614Y315116D01*
X364725Y315144D01*
X364809Y315171D01*
X364878Y315199D01*
X364934Y315213D01*
X364961Y315241D01*
X364975D01*
X365141Y315380D01*
X365252Y315532D01*
X365294Y315588D01*
X365322Y315643D01*
X365350Y315671D01*
Y315685D01*
X365419Y315907D01*
X365461Y316115D01*
X365474Y316198D01*
Y316475D01*
X365447Y316614D01*
X365433Y316725D01*
X365405Y316822D01*
X365377Y316905D01*
X365363Y316961D01*
X365336Y317002D01*
Y317016D01*
X365280Y317113D01*
X365211Y317210D01*
X365072Y317349D01*
X365003Y317404D01*
X364947Y317446D01*
X364920Y317460D01*
X364906Y317474D01*
X364795Y317543D01*
X364656Y317598D01*
X364407Y317696D01*
X364296Y317723D01*
X364212Y317751D01*
X364157Y317779D01*
X364129D01*
Y318625D01*
X365932D01*
X365988Y318389D01*
X366029Y318181D01*
X366071Y317987D01*
X366098Y317806D01*
X366112Y317668D01*
X366126Y317571D01*
X366140Y317501D01*
Y317474D01*
X366182Y317099D01*
X366195Y316919D01*
Y316766D01*
X366209Y316628D01*
Y316420D01*
X366195Y316073D01*
X366168Y315754D01*
X366126Y315463D01*
X366071Y315227D01*
X366015Y315019D01*
X366001Y314936D01*
X365974Y314866D01*
X365960Y314811D01*
X365946Y314769D01*
X365932Y314755D01*
Y314741D01*
X365821Y314492D01*
X365682Y314270D01*
X365558Y314090D01*
X365419Y313923D01*
X365294Y313812D01*
X365197Y313715D01*
X365141Y313660D01*
X365114Y313646D01*
X364906Y313521D01*
X364684Y313424D01*
X364462Y313368D01*
X364254Y313313D01*
X364074Y313285D01*
X363935Y313272D01*
X363880D01*
X363838D01*
X363824D01*
X363810D01*
X363644Y313285D01*
X363477Y313299D01*
X363339Y313327D01*
X363214Y313355D01*
X363103Y313382D01*
X363033Y313396D01*
X362978Y313424D01*
X362964D01*
X362701Y313563D01*
X362576Y313632D01*
X362479Y313701D01*
X362396Y313757D01*
X362326Y313812D01*
X362285Y313840D01*
X362271Y313854D01*
X362049Y314076D01*
X361952Y314187D01*
X361869Y314298D01*
X361799Y314381D01*
X361744Y314450D01*
X361716Y314506D01*
X361702Y314520D01*
X361508Y314825D01*
X361425Y314977D01*
X361342Y315116D01*
X361286Y315227D01*
X361231Y315324D01*
X361203Y315380D01*
X361189Y315407D01*
X361092Y315601D01*
X360995Y315782D01*
X360898Y315934D01*
X360815Y316059D01*
X360745Y316156D01*
X360690Y316225D01*
X360662Y316267D01*
X360648Y316281D01*
X360551Y316392D01*
X360454Y316489D01*
X360371Y316572D01*
X360288Y316628D01*
X360218Y316683D01*
X360163Y316711D01*
X360121Y316739D01*
X360107D01*
X359996Y316794D01*
X359885Y316822D01*
X359677Y316877D01*
X359580D01*
X359511Y316891D01*
X359455D01*
X359442D01*
X359289Y316877D01*
X359164Y316863D01*
X359039Y316836D01*
X358942Y316808D01*
X358859Y316766D01*
X358804Y316739D01*
X358762Y316725D01*
X358748Y316711D01*
X358651Y316642D01*
X358568Y316558D01*
X358443Y316406D01*
X358401Y316336D01*
X358374Y316295D01*
X358346Y316253D01*
Y316239D01*
X358277Y316017D01*
X358235Y315809D01*
Y315712D01*
X358221Y315643D01*
Y315588D01*
X358235Y315338D01*
X358277Y315116D01*
X358332Y314936D01*
X358401Y314783D01*
X358471Y314658D01*
X358526Y314575D01*
X358568Y314520D01*
X358582Y314506D01*
X358734Y314381D01*
X358915Y314270D01*
X359095Y314187D01*
X359275Y314117D01*
X359442Y314062D01*
X359566Y314020D01*
X359622Y314007D01*
X359664D01*
X359677Y313993D01*
X359691D01*
Y313133D01*
X357777D01*
X357680Y313590D01*
X357653Y313812D01*
X357625Y314007D01*
X357597Y314173D01*
X357583Y314312D01*
X357569Y314395D01*
Y314422D01*
X357542Y314686D01*
X357528Y314922D01*
X357514Y315144D01*
Y315352D01*
X357500Y315518D01*
Y315754D01*
X357514Y316073D01*
X357542Y316378D01*
X357597Y316642D01*
X357653Y316877D01*
X357694Y317057D01*
X357750Y317196D01*
X357763Y317252D01*
X357777Y317293D01*
X357791Y317307D01*
Y317321D01*
X357916Y317571D01*
X358055Y317779D01*
X358193Y317959D01*
X358332Y318098D01*
X358457Y318209D01*
X358554Y318292D01*
X358623Y318347D01*
X358651Y318361D01*
X358873Y318486D01*
X359095Y318569D01*
X359331Y318638D01*
X359539Y318680D01*
X359719Y318708D01*
X359871Y318722D01*
X359927D01*
X359969D01*
X359982D01*
X359996D01*
X360218Y318708D01*
D02*
G37*
G36*
X370586Y319304D02*
X370822Y319249D01*
X371030Y319179D01*
X371210Y319096D01*
X371363Y318999D01*
X371460Y318930D01*
X371529Y318874D01*
X371557Y318860D01*
X371737Y318666D01*
X371904Y318458D01*
X372042Y318236D01*
X372153Y318028D01*
X372250Y317834D01*
X372306Y317668D01*
X372334Y317612D01*
X372347Y317571D01*
X372361Y317543D01*
Y317529D01*
X372417D01*
X372556Y317834D01*
X372708Y318084D01*
X372874Y318320D01*
X373041Y318514D01*
X373221Y318666D01*
X373401Y318805D01*
X373568Y318916D01*
X373748Y319013D01*
X373901Y319082D01*
X374053Y319138D01*
X374192Y319165D01*
X374303Y319193D01*
X374400Y319207D01*
X374483Y319221D01*
X374525D01*
X374539D01*
X374719Y319207D01*
X374899Y319193D01*
X375052Y319152D01*
X375177Y319110D01*
X375288Y319069D01*
X375357Y319041D01*
X375412Y319013D01*
X375426Y318999D01*
X375565Y318916D01*
X375690Y318819D01*
X375787Y318722D01*
X375870Y318625D01*
X375939Y318542D01*
X375981Y318472D01*
X376009Y318417D01*
X376023Y318403D01*
X376106Y318236D01*
X376175Y318070D01*
X376231Y317890D01*
X376272Y317737D01*
X376300Y317598D01*
X376328Y317488D01*
X376342Y317418D01*
Y317390D01*
X376369Y317210D01*
X376383Y317030D01*
X376397Y316836D01*
Y316655D01*
X376411Y316489D01*
Y312162D01*
X376009D01*
X375953Y312314D01*
X375912Y312425D01*
X375870Y312495D01*
X375856Y312523D01*
X375801Y312620D01*
X375731Y312675D01*
X375690Y312717D01*
X375662Y312731D01*
X375551Y312772D01*
X375454Y312800D01*
X375371Y312814D01*
X375343D01*
X375329D01*
X375177Y312828D01*
X375010D01*
X374941D01*
X374899D01*
X374858D01*
X374844D01*
X369463D01*
X369269D01*
X369102Y312814D01*
X369047D01*
X369005Y312800D01*
X368978D01*
X368964D01*
X368839Y312786D01*
X368728Y312758D01*
X368672Y312731D01*
X368645Y312717D01*
X368561Y312661D01*
X368506Y312606D01*
X368464Y312550D01*
X368451Y312523D01*
X368395Y312412D01*
X368353Y312287D01*
X368326Y312204D01*
X368312Y312176D01*
Y312162D01*
X367910D01*
Y316322D01*
X367924Y316600D01*
X367951Y316849D01*
X367979Y317071D01*
X367993Y317238D01*
X368021Y317363D01*
X368034Y317432D01*
Y317460D01*
X368090Y317668D01*
X368159Y317862D01*
X368229Y318042D01*
X368298Y318181D01*
X368367Y318306D01*
X368423Y318403D01*
X368451Y318458D01*
X368464Y318472D01*
X368589Y318625D01*
X368714Y318750D01*
X368839Y318860D01*
X368964Y318958D01*
X369061Y319027D01*
X369158Y319069D01*
X369213Y319096D01*
X369227Y319110D01*
X369407Y319179D01*
X369602Y319235D01*
X369782Y319263D01*
X369948Y319290D01*
X370101Y319304D01*
X370212Y319318D01*
X370295D01*
X370323D01*
X370586Y319304D01*
D02*
G37*
G36*
X690121Y131240D02*
X690195Y131129D01*
X690232Y131055D01*
X690250Y131036D01*
X690324Y130981D01*
X690398Y130925D01*
X690472Y130907D01*
X690491Y130888D01*
X690620Y130870D01*
X690769Y130851D01*
X695842D01*
Y125167D01*
X695102Y124704D01*
X694805Y124778D01*
X694546Y124833D01*
X694435Y124852D01*
X694342Y124870D01*
X694287Y124889D01*
X694268D01*
X693916Y124926D01*
X693768Y124944D01*
X693639Y124963D01*
X693380D01*
X693009Y124944D01*
X692676Y124870D01*
X692398Y124778D01*
X692176Y124667D01*
X691991Y124537D01*
X691880Y124444D01*
X691787Y124370D01*
X691769Y124352D01*
X691583Y124093D01*
X691454Y123815D01*
X691343Y123518D01*
X691287Y123241D01*
X691250Y122982D01*
X691213Y122778D01*
Y122704D01*
Y122648D01*
Y122611D01*
Y122593D01*
X691232Y122185D01*
X691287Y121815D01*
X691361Y121519D01*
X691435Y121278D01*
X691509Y121093D01*
X691583Y120963D01*
X691639Y120871D01*
X691657Y120852D01*
X691843Y120667D01*
X692046Y120537D01*
X692269Y120426D01*
X692491Y120371D01*
X692676Y120334D01*
X692842Y120315D01*
X692954Y120297D01*
X692991D01*
X693250Y120315D01*
X693472Y120371D01*
X693676Y120445D01*
X693861Y120519D01*
X693991Y120593D01*
X694083Y120667D01*
X694157Y120723D01*
X694176Y120741D01*
X694324Y120926D01*
X694472Y121148D01*
X694583Y121371D01*
X694657Y121593D01*
X694731Y121778D01*
X694787Y121945D01*
X694805Y122056D01*
X694824Y122074D01*
Y122093D01*
X696342D01*
Y120000D01*
X696083Y119889D01*
X695824Y119797D01*
X695564Y119723D01*
X695324Y119667D01*
X695102Y119612D01*
X694935Y119574D01*
X694824Y119537D01*
X694787D01*
X694454Y119482D01*
X694120Y119445D01*
X693824Y119408D01*
X693565Y119389D01*
X693324D01*
X693157Y119371D01*
X693009D01*
X692509Y119389D01*
X692065Y119426D01*
X691676Y119482D01*
X691324Y119556D01*
X691046Y119630D01*
X690935Y119649D01*
X690843Y119686D01*
X690769Y119704D01*
X690713Y119723D01*
X690695Y119741D01*
X690676D01*
X690324Y119908D01*
X690028Y120093D01*
X689769Y120278D01*
X689565Y120463D01*
X689398Y120648D01*
X689269Y120778D01*
X689195Y120871D01*
X689176Y120908D01*
X689010Y121222D01*
X688880Y121537D01*
X688787Y121852D01*
X688713Y122167D01*
X688676Y122426D01*
X688658Y122648D01*
Y122722D01*
Y122778D01*
Y122815D01*
Y122833D01*
X688676Y123185D01*
X688732Y123518D01*
X688806Y123796D01*
X688880Y124056D01*
X688954Y124259D01*
X689028Y124407D01*
X689084Y124500D01*
X689102Y124537D01*
X689269Y124796D01*
X689473Y125018D01*
X689676Y125222D01*
X689861Y125370D01*
X690028Y125500D01*
X690176Y125574D01*
X690269Y125629D01*
X690306Y125648D01*
X690602Y125778D01*
X690917Y125870D01*
X691213Y125944D01*
X691491Y125981D01*
X691731Y126018D01*
X691935Y126037D01*
X692380D01*
X692620Y126018D01*
X692842D01*
X693028Y126000D01*
X693194Y125981D01*
X693305D01*
X693380Y125963D01*
X693398D01*
X693768Y125907D01*
X693953Y125870D01*
X694102Y125833D01*
X694231Y125815D01*
X694324Y125778D01*
X694398Y125759D01*
X694416D01*
Y128759D01*
X689287D01*
X689121Y131407D01*
X690046D01*
X690121Y131240D01*
D02*
G37*
G36*
X707767Y116564D02*
X707600Y116508D01*
X707471Y116453D01*
X707359Y116397D01*
X707267Y116360D01*
X707211Y116323D01*
X707174Y116286D01*
X707137Y116267D01*
X707026Y116138D01*
X706971Y116027D01*
X706934Y115916D01*
Y115897D01*
Y115879D01*
X706915Y115786D01*
X706897Y115656D01*
X706878Y115379D01*
Y115231D01*
Y115138D01*
Y115064D01*
Y115027D01*
Y107824D01*
Y107546D01*
Y107435D01*
Y107342D01*
X706897Y107268D01*
Y107213D01*
Y107176D01*
Y107157D01*
X706915Y106991D01*
X706952Y106842D01*
X706989Y106768D01*
X707008Y106731D01*
X707082Y106620D01*
X707174Y106546D01*
X707248Y106491D01*
X707286Y106472D01*
X707434Y106398D01*
X707582Y106342D01*
X707656Y106324D01*
X707711Y106306D01*
X707748Y106287D01*
X707767D01*
Y105750D01*
X704619D01*
Y106287D01*
X704767Y106324D01*
X704897Y106380D01*
X705008Y106417D01*
X705082Y106454D01*
X705156Y106491D01*
X705193Y106528D01*
X705212Y106546D01*
X705230D01*
X705341Y106676D01*
X705397Y106805D01*
X705434Y106917D01*
X705452Y106935D01*
Y106954D01*
X705471Y107065D01*
X705489Y107194D01*
X705508Y107472D01*
Y107602D01*
Y107713D01*
Y107787D01*
Y107805D01*
Y111638D01*
Y112323D01*
X705526Y112953D01*
Y113231D01*
X705545Y113509D01*
Y113749D01*
Y113971D01*
X705563Y114175D01*
Y114360D01*
X705582Y114527D01*
Y114656D01*
X705601Y114768D01*
Y114842D01*
Y114879D01*
Y114897D01*
X705452D01*
X705323Y114471D01*
X705267Y114286D01*
X705212Y114101D01*
X705156Y113953D01*
X705119Y113842D01*
X705082Y113768D01*
Y113749D01*
X702730Y106991D01*
X701268D01*
X699027Y113008D01*
X698916Y113305D01*
X698842Y113546D01*
X698768Y113731D01*
X698712Y113897D01*
X698675Y114008D01*
X698638Y114101D01*
X698620Y114138D01*
Y114157D01*
X698546Y114397D01*
X698472Y114601D01*
X698435Y114675D01*
X698416Y114749D01*
X698398Y114786D01*
Y114805D01*
X698231D01*
Y114638D01*
X698249Y114453D01*
X698268Y114027D01*
Y113823D01*
X698286Y113657D01*
Y113546D01*
Y113527D01*
Y113509D01*
Y113175D01*
X698305Y112879D01*
Y112601D01*
Y112379D01*
Y112175D01*
Y112046D01*
Y111953D01*
Y111916D01*
Y107842D01*
Y107639D01*
Y107472D01*
X698323Y107324D01*
Y107213D01*
Y107139D01*
X698342Y107083D01*
Y107046D01*
Y107028D01*
X698379Y106861D01*
X698416Y106750D01*
X698435Y106676D01*
X698453Y106657D01*
X698527Y106583D01*
X698583Y106528D01*
X698657Y106491D01*
X698675Y106472D01*
X698731Y106435D01*
X698823Y106417D01*
X698971Y106361D01*
X699064Y106324D01*
X699120Y106306D01*
X699157Y106287D01*
X699175D01*
Y105750D01*
X694916D01*
Y106287D01*
X695083Y106342D01*
X695213Y106380D01*
X695324Y106435D01*
X695398Y106472D01*
X695472Y106509D01*
X695509Y106546D01*
X695546Y106565D01*
X695639Y106713D01*
X695694Y106861D01*
X695731Y106972D01*
X695750Y107009D01*
Y107028D01*
X695768Y107139D01*
Y107287D01*
X695787Y107546D01*
Y107657D01*
Y107750D01*
Y107805D01*
Y107824D01*
Y115027D01*
Y115249D01*
X695768Y115434D01*
Y115582D01*
X695750Y115693D01*
Y115786D01*
X695731Y115842D01*
Y115879D01*
Y115897D01*
X695676Y116064D01*
X695602Y116175D01*
X695546Y116267D01*
X695527Y116286D01*
X695453Y116341D01*
X695361Y116397D01*
X695157Y116490D01*
X695064Y116508D01*
X694990Y116545D01*
X694935Y116564D01*
X694916D01*
Y117101D01*
X698823D01*
X701323Y110268D01*
X703619Y117101D01*
X707767D01*
Y116564D01*
D02*
G37*
G36*
X687362D02*
X687214Y116508D01*
X687084Y116471D01*
X686973Y116416D01*
X686880Y116360D01*
X686825Y116323D01*
X686788Y116305D01*
X686751Y116267D01*
X686639Y116138D01*
X686565Y116027D01*
X686528Y115916D01*
Y115897D01*
Y115879D01*
X686510Y115786D01*
X686491Y115656D01*
X686473Y115379D01*
Y115231D01*
Y115138D01*
Y115064D01*
Y115027D01*
Y107824D01*
Y107565D01*
Y107361D01*
X686491Y107287D01*
Y107231D01*
Y107194D01*
Y107176D01*
X686510Y106991D01*
X686547Y106861D01*
X686584Y106768D01*
X686602Y106731D01*
X686676Y106620D01*
X686769Y106546D01*
X686843Y106491D01*
X686880Y106472D01*
X687028Y106398D01*
X687177Y106342D01*
X687251Y106324D01*
X687306Y106306D01*
X687343Y106287D01*
X687362D01*
Y105750D01*
X684214D01*
Y106287D01*
X684362Y106324D01*
X684492Y106380D01*
X684603Y106417D01*
X684677Y106454D01*
X684751Y106491D01*
X684788Y106528D01*
X684825Y106546D01*
X684936Y106676D01*
X684992Y106805D01*
X685029Y106898D01*
X685047Y106917D01*
Y106935D01*
X685066Y107046D01*
X685084Y107176D01*
X685103Y107472D01*
Y107620D01*
Y107731D01*
Y107805D01*
Y107824D01*
Y110509D01*
Y111249D01*
X685121Y111934D01*
X685140Y112583D01*
Y112860D01*
Y113138D01*
X685158Y113397D01*
Y113620D01*
X685177Y113805D01*
Y113971D01*
X685195Y114101D01*
Y114212D01*
Y114268D01*
Y114286D01*
X685121D01*
X684973Y113971D01*
X684788Y113638D01*
X684603Y113305D01*
X684417Y112971D01*
X684251Y112675D01*
X684177Y112546D01*
X684121Y112435D01*
X684066Y112342D01*
X684029Y112268D01*
X683992Y112231D01*
Y112212D01*
X680251Y105750D01*
X678140D01*
Y115008D01*
Y115194D01*
X678122Y115360D01*
Y115490D01*
X678103Y115601D01*
Y115675D01*
X678085Y115749D01*
Y115767D01*
Y115786D01*
X678029Y115953D01*
X677992Y116082D01*
X677955Y116156D01*
X677937Y116175D01*
X677863Y116267D01*
X677788Y116323D01*
X677733Y116360D01*
X677714Y116378D01*
X677585Y116434D01*
X677418Y116508D01*
X677344Y116527D01*
X677289Y116545D01*
X677252Y116564D01*
X677233D01*
Y117101D01*
X680381D01*
Y116564D01*
X680159Y116490D01*
X680011Y116416D01*
X679918Y116378D01*
X679899Y116360D01*
X679807Y116305D01*
X679733Y116230D01*
X679696Y116175D01*
X679677Y116156D01*
X679622Y116064D01*
X679585Y115934D01*
X679548Y115842D01*
Y115823D01*
Y115805D01*
X679529Y115693D01*
X679511Y115582D01*
X679492Y115323D01*
Y115194D01*
Y115101D01*
Y115027D01*
Y115008D01*
Y113471D01*
Y112601D01*
X679473Y111805D01*
Y111416D01*
X679455Y111064D01*
Y110731D01*
X679436Y110416D01*
Y110138D01*
Y109879D01*
X679418Y109657D01*
Y109472D01*
X679399Y109324D01*
Y109213D01*
Y109138D01*
Y109120D01*
X679529D01*
X679807Y109676D01*
X679937Y109935D01*
X680066Y110176D01*
X680159Y110379D01*
X680251Y110546D01*
X680307Y110638D01*
X680325Y110675D01*
X680473Y110972D01*
X680622Y111231D01*
X680751Y111453D01*
X680844Y111638D01*
X680918Y111786D01*
X680973Y111897D01*
X681010Y111972D01*
X681029Y111990D01*
X683992Y117101D01*
X687362D01*
Y116564D01*
D02*
G37*
G36*
X693287D02*
X693083Y116490D01*
X692935Y116434D01*
X692842Y116378D01*
X692805Y116360D01*
X692676Y116286D01*
X692602Y116193D01*
X692546Y116138D01*
X692528Y116101D01*
X692472Y115971D01*
X692435Y115823D01*
X692417Y115712D01*
Y115693D01*
Y115675D01*
X692398Y115471D01*
Y115249D01*
Y115156D01*
Y115082D01*
Y115027D01*
Y115008D01*
Y107824D01*
Y107565D01*
X692417Y107342D01*
Y107268D01*
X692435Y107213D01*
Y107176D01*
Y107157D01*
X692454Y106991D01*
X692491Y106842D01*
X692528Y106768D01*
X692546Y106731D01*
X692620Y106620D01*
X692694Y106546D01*
X692768Y106491D01*
X692805Y106472D01*
X692954Y106398D01*
X693120Y106342D01*
X693231Y106306D01*
X693268Y106287D01*
X693287D01*
Y105750D01*
X688917D01*
Y106287D01*
X689084Y106324D01*
X689213Y106380D01*
X689287Y106398D01*
X689324Y106417D01*
X689436Y106491D01*
X689528Y106546D01*
X689584Y106602D01*
X689602Y106620D01*
X689658Y106713D01*
X689713Y106787D01*
X689732Y106861D01*
X689750Y106880D01*
X689769Y107009D01*
X689787Y107139D01*
X689806Y107250D01*
Y107268D01*
Y107287D01*
X689824Y107472D01*
Y107657D01*
Y107731D01*
Y107768D01*
Y107805D01*
Y107824D01*
Y115008D01*
Y115175D01*
Y115323D01*
X689806Y115434D01*
Y115527D01*
Y115619D01*
X689787Y115675D01*
Y115693D01*
Y115712D01*
X689750Y115879D01*
X689713Y115990D01*
X689695Y116082D01*
X689676Y116101D01*
X689602Y116212D01*
X689528Y116286D01*
X689454Y116341D01*
X689436Y116360D01*
X689287Y116434D01*
X689121Y116508D01*
X689028Y116527D01*
X688973Y116545D01*
X688935Y116564D01*
X688917D01*
Y117101D01*
X693287D01*
Y116564D01*
D02*
G37*
G36*
X692759Y191351D02*
X692963Y191333D01*
X693148D01*
X693296Y191314D01*
X693426Y191296D01*
X693500Y191277D01*
X693518D01*
X693926Y191203D01*
X694111Y191166D01*
X694296Y191129D01*
X694444Y191092D01*
X694555Y191073D01*
X694629Y191036D01*
X694648D01*
X694889Y190962D01*
X695129Y190870D01*
X695407Y190777D01*
X695666Y190685D01*
X695889Y190592D01*
X696074Y190536D01*
X696148Y190499D01*
X696203Y190481D01*
X696222Y190462D01*
X696240D01*
Y188500D01*
X694741D01*
X694648Y188851D01*
X694555Y189166D01*
X694444Y189425D01*
X694352Y189629D01*
X694259Y189777D01*
X694185Y189888D01*
X694129Y189962D01*
X694111Y189981D01*
X693926Y190147D01*
X693741Y190259D01*
X693555Y190351D01*
X693389Y190407D01*
X693241Y190444D01*
X693111Y190462D01*
X693000D01*
X692741Y190444D01*
X692537Y190388D01*
X692333Y190296D01*
X692185Y190203D01*
X692056Y190092D01*
X691963Y190018D01*
X691908Y189944D01*
X691889Y189925D01*
X691759Y189722D01*
X691648Y189481D01*
X691574Y189240D01*
X691537Y189018D01*
X691500Y188814D01*
X691482Y188648D01*
Y188537D01*
Y188518D01*
Y188500D01*
X691500Y188259D01*
X691519Y188037D01*
X691556Y187814D01*
X691593Y187629D01*
X691648Y187463D01*
X691685Y187351D01*
X691704Y187278D01*
X691722Y187240D01*
X691815Y187018D01*
X691926Y186777D01*
X692037Y186555D01*
X692148Y186370D01*
X692259Y186185D01*
X692352Y186055D01*
X692407Y185981D01*
X692426Y185944D01*
X692611Y185667D01*
X692833Y185389D01*
X693055Y185093D01*
X693278Y184815D01*
X693463Y184574D01*
X693630Y184389D01*
X693685Y184315D01*
X693741Y184259D01*
X693759Y184222D01*
X693778Y184204D01*
X694129Y183796D01*
X694444Y183407D01*
X694722Y183074D01*
X694944Y182759D01*
X695148Y182500D01*
X695296Y182315D01*
X695333Y182241D01*
X695370Y182185D01*
X695407Y182167D01*
Y182148D01*
X695629Y181796D01*
X695833Y181482D01*
X696000Y181185D01*
X696148Y180926D01*
X696259Y180704D01*
X696333Y180556D01*
X696388Y180445D01*
X696407Y180426D01*
Y180408D01*
Y179871D01*
X688778D01*
X688593Y182852D01*
X689537D01*
X689574Y182704D01*
X689630Y182593D01*
X689667Y182482D01*
X689704Y182389D01*
X689741Y182334D01*
X689778Y182278D01*
X689797Y182260D01*
Y182241D01*
X689926Y182130D01*
X690056Y182037D01*
X690167Y182000D01*
X690204Y181982D01*
X690222D01*
X690333Y181963D01*
X690463Y181945D01*
X690722Y181926D01*
X690834Y181908D01*
X693981D01*
Y181982D01*
X693870Y182130D01*
X693741Y182297D01*
X693481Y182630D01*
X693352Y182759D01*
X693259Y182871D01*
X693185Y182963D01*
X693167Y182982D01*
X692741Y183444D01*
X692537Y183648D01*
X692352Y183852D01*
X692185Y184000D01*
X692074Y184130D01*
X691982Y184222D01*
X691963Y184241D01*
X691704Y184481D01*
X691463Y184722D01*
X691241Y184926D01*
X691037Y185130D01*
X690685Y185500D01*
X690408Y185778D01*
X690185Y186018D01*
X690037Y186185D01*
X689945Y186278D01*
X689926Y186315D01*
X689723Y186574D01*
X689537Y186814D01*
X689389Y187037D01*
X689278Y187222D01*
X689185Y187370D01*
X689130Y187500D01*
X689093Y187574D01*
X689074Y187592D01*
X689000Y187814D01*
X688926Y188037D01*
X688889Y188240D01*
X688871Y188426D01*
X688852Y188592D01*
X688834Y188722D01*
Y188796D01*
Y188833D01*
X688852Y189111D01*
X688889Y189351D01*
X688945Y189573D01*
X689000Y189759D01*
X689074Y189907D01*
X689130Y190036D01*
X689167Y190110D01*
X689185Y190129D01*
X689334Y190333D01*
X689500Y190518D01*
X689686Y190666D01*
X689871Y190796D01*
X690037Y190907D01*
X690167Y190981D01*
X690259Y191018D01*
X690296Y191036D01*
X690611Y191147D01*
X690945Y191222D01*
X691278Y191296D01*
X691593Y191333D01*
X691870Y191351D01*
X691982D01*
X692093Y191370D01*
X692537D01*
X692759Y191351D01*
D02*
G37*
G36*
X707767Y177064D02*
X707600Y177008D01*
X707471Y176953D01*
X707359Y176897D01*
X707267Y176860D01*
X707211Y176823D01*
X707174Y176786D01*
X707137Y176767D01*
X707026Y176638D01*
X706971Y176527D01*
X706934Y176416D01*
Y176397D01*
Y176379D01*
X706915Y176286D01*
X706897Y176156D01*
X706878Y175879D01*
Y175730D01*
Y175638D01*
Y175564D01*
Y175527D01*
Y168324D01*
Y168046D01*
Y167935D01*
Y167842D01*
X706897Y167768D01*
Y167713D01*
Y167676D01*
Y167657D01*
X706915Y167491D01*
X706952Y167342D01*
X706989Y167268D01*
X707008Y167231D01*
X707082Y167120D01*
X707174Y167046D01*
X707248Y166991D01*
X707286Y166972D01*
X707434Y166898D01*
X707582Y166842D01*
X707656Y166824D01*
X707711Y166805D01*
X707748Y166787D01*
X707767D01*
Y166250D01*
X704619D01*
Y166787D01*
X704767Y166824D01*
X704897Y166880D01*
X705008Y166917D01*
X705082Y166954D01*
X705156Y166991D01*
X705193Y167028D01*
X705212Y167046D01*
X705230D01*
X705341Y167176D01*
X705397Y167306D01*
X705434Y167417D01*
X705452Y167435D01*
Y167454D01*
X705471Y167565D01*
X705489Y167694D01*
X705508Y167972D01*
Y168102D01*
Y168213D01*
Y168287D01*
Y168305D01*
Y172138D01*
Y172823D01*
X705526Y173453D01*
Y173731D01*
X705545Y174009D01*
Y174249D01*
Y174471D01*
X705563Y174675D01*
Y174860D01*
X705582Y175027D01*
Y175156D01*
X705601Y175268D01*
Y175342D01*
Y175379D01*
Y175397D01*
X705452D01*
X705323Y174971D01*
X705267Y174786D01*
X705212Y174601D01*
X705156Y174453D01*
X705119Y174342D01*
X705082Y174268D01*
Y174249D01*
X702730Y167491D01*
X701268D01*
X699027Y173508D01*
X698916Y173805D01*
X698842Y174046D01*
X698768Y174231D01*
X698712Y174397D01*
X698675Y174508D01*
X698638Y174601D01*
X698620Y174638D01*
Y174657D01*
X698546Y174897D01*
X698472Y175101D01*
X698435Y175175D01*
X698416Y175249D01*
X698398Y175286D01*
Y175305D01*
X698231D01*
Y175138D01*
X698249Y174953D01*
X698268Y174527D01*
Y174323D01*
X698286Y174157D01*
Y174046D01*
Y174027D01*
Y174009D01*
Y173675D01*
X698305Y173379D01*
Y173101D01*
Y172879D01*
Y172675D01*
Y172546D01*
Y172453D01*
Y172416D01*
Y168342D01*
Y168139D01*
Y167972D01*
X698323Y167824D01*
Y167713D01*
Y167639D01*
X698342Y167583D01*
Y167546D01*
Y167528D01*
X698379Y167361D01*
X698416Y167250D01*
X698435Y167176D01*
X698453Y167157D01*
X698527Y167083D01*
X698583Y167028D01*
X698657Y166991D01*
X698675Y166972D01*
X698731Y166935D01*
X698823Y166917D01*
X698971Y166861D01*
X699064Y166824D01*
X699120Y166805D01*
X699157Y166787D01*
X699175D01*
Y166250D01*
X694916D01*
Y166787D01*
X695083Y166842D01*
X695213Y166880D01*
X695324Y166935D01*
X695398Y166972D01*
X695472Y167009D01*
X695509Y167046D01*
X695546Y167065D01*
X695639Y167213D01*
X695694Y167361D01*
X695731Y167472D01*
X695750Y167509D01*
Y167528D01*
X695768Y167639D01*
Y167787D01*
X695787Y168046D01*
Y168157D01*
Y168250D01*
Y168305D01*
Y168324D01*
Y175527D01*
Y175749D01*
X695768Y175934D01*
Y176082D01*
X695750Y176193D01*
Y176286D01*
X695731Y176342D01*
Y176379D01*
Y176397D01*
X695676Y176564D01*
X695602Y176675D01*
X695546Y176767D01*
X695527Y176786D01*
X695453Y176842D01*
X695361Y176897D01*
X695157Y176990D01*
X695064Y177008D01*
X694990Y177045D01*
X694935Y177064D01*
X694916D01*
Y177601D01*
X698823D01*
X701323Y170768D01*
X703619Y177601D01*
X707767D01*
Y177064D01*
D02*
G37*
G36*
X687362D02*
X687214Y177008D01*
X687084Y176971D01*
X686973Y176916D01*
X686880Y176860D01*
X686825Y176823D01*
X686788Y176805D01*
X686751Y176767D01*
X686639Y176638D01*
X686565Y176527D01*
X686528Y176416D01*
Y176397D01*
Y176379D01*
X686510Y176286D01*
X686491Y176156D01*
X686473Y175879D01*
Y175730D01*
Y175638D01*
Y175564D01*
Y175527D01*
Y168324D01*
Y168065D01*
Y167861D01*
X686491Y167787D01*
Y167731D01*
Y167694D01*
Y167676D01*
X686510Y167491D01*
X686547Y167361D01*
X686584Y167268D01*
X686602Y167231D01*
X686676Y167120D01*
X686769Y167046D01*
X686843Y166991D01*
X686880Y166972D01*
X687028Y166898D01*
X687177Y166842D01*
X687251Y166824D01*
X687306Y166805D01*
X687343Y166787D01*
X687362D01*
Y166250D01*
X684214D01*
Y166787D01*
X684362Y166824D01*
X684492Y166880D01*
X684603Y166917D01*
X684677Y166954D01*
X684751Y166991D01*
X684788Y167028D01*
X684825Y167046D01*
X684936Y167176D01*
X684992Y167306D01*
X685029Y167398D01*
X685047Y167417D01*
Y167435D01*
X685066Y167546D01*
X685084Y167676D01*
X685103Y167972D01*
Y168120D01*
Y168231D01*
Y168305D01*
Y168324D01*
Y171009D01*
Y171749D01*
X685121Y172435D01*
X685140Y173083D01*
Y173360D01*
Y173638D01*
X685158Y173897D01*
Y174120D01*
X685177Y174305D01*
Y174471D01*
X685195Y174601D01*
Y174712D01*
Y174768D01*
Y174786D01*
X685121D01*
X684973Y174471D01*
X684788Y174138D01*
X684603Y173805D01*
X684417Y173472D01*
X684251Y173175D01*
X684177Y173046D01*
X684121Y172934D01*
X684066Y172842D01*
X684029Y172768D01*
X683992Y172731D01*
Y172712D01*
X680251Y166250D01*
X678140D01*
Y175508D01*
Y175693D01*
X678122Y175860D01*
Y175990D01*
X678103Y176101D01*
Y176175D01*
X678085Y176249D01*
Y176268D01*
Y176286D01*
X678029Y176453D01*
X677992Y176582D01*
X677955Y176656D01*
X677937Y176675D01*
X677863Y176767D01*
X677788Y176823D01*
X677733Y176860D01*
X677714Y176879D01*
X677585Y176934D01*
X677418Y177008D01*
X677344Y177027D01*
X677289Y177045D01*
X677252Y177064D01*
X677233D01*
Y177601D01*
X680381D01*
Y177064D01*
X680159Y176990D01*
X680011Y176916D01*
X679918Y176879D01*
X679899Y176860D01*
X679807Y176805D01*
X679733Y176730D01*
X679696Y176675D01*
X679677Y176656D01*
X679622Y176564D01*
X679585Y176434D01*
X679548Y176342D01*
Y176323D01*
Y176304D01*
X679529Y176193D01*
X679511Y176082D01*
X679492Y175823D01*
Y175693D01*
Y175601D01*
Y175527D01*
Y175508D01*
Y173971D01*
Y173101D01*
X679473Y172305D01*
Y171916D01*
X679455Y171564D01*
Y171231D01*
X679436Y170916D01*
Y170638D01*
Y170379D01*
X679418Y170157D01*
Y169972D01*
X679399Y169824D01*
Y169713D01*
Y169639D01*
Y169620D01*
X679529D01*
X679807Y170175D01*
X679937Y170435D01*
X680066Y170676D01*
X680159Y170879D01*
X680251Y171046D01*
X680307Y171138D01*
X680325Y171175D01*
X680473Y171472D01*
X680622Y171731D01*
X680751Y171953D01*
X680844Y172138D01*
X680918Y172286D01*
X680973Y172397D01*
X681010Y172472D01*
X681029Y172490D01*
X683992Y177601D01*
X687362D01*
Y177064D01*
D02*
G37*
G36*
X693287D02*
X693083Y176990D01*
X692935Y176934D01*
X692842Y176879D01*
X692805Y176860D01*
X692676Y176786D01*
X692602Y176693D01*
X692546Y176638D01*
X692528Y176601D01*
X692472Y176471D01*
X692435Y176323D01*
X692417Y176212D01*
Y176193D01*
Y176175D01*
X692398Y175971D01*
Y175749D01*
Y175656D01*
Y175582D01*
Y175527D01*
Y175508D01*
Y168324D01*
Y168065D01*
X692417Y167842D01*
Y167768D01*
X692435Y167713D01*
Y167676D01*
Y167657D01*
X692454Y167491D01*
X692491Y167342D01*
X692528Y167268D01*
X692546Y167231D01*
X692620Y167120D01*
X692694Y167046D01*
X692768Y166991D01*
X692805Y166972D01*
X692954Y166898D01*
X693120Y166842D01*
X693231Y166805D01*
X693268Y166787D01*
X693287D01*
Y166250D01*
X688917D01*
Y166787D01*
X689084Y166824D01*
X689213Y166880D01*
X689287Y166898D01*
X689324Y166917D01*
X689436Y166991D01*
X689528Y167046D01*
X689584Y167102D01*
X689602Y167120D01*
X689658Y167213D01*
X689713Y167287D01*
X689732Y167361D01*
X689750Y167379D01*
X689769Y167509D01*
X689787Y167639D01*
X689806Y167750D01*
Y167768D01*
Y167787D01*
X689824Y167972D01*
Y168157D01*
Y168231D01*
Y168268D01*
Y168305D01*
Y168324D01*
Y175508D01*
Y175675D01*
Y175823D01*
X689806Y175934D01*
Y176027D01*
Y176119D01*
X689787Y176175D01*
Y176193D01*
Y176212D01*
X689750Y176379D01*
X689713Y176490D01*
X689695Y176582D01*
X689676Y176601D01*
X689602Y176712D01*
X689528Y176786D01*
X689454Y176842D01*
X689436Y176860D01*
X689287Y176934D01*
X689121Y177008D01*
X689028Y177027D01*
X688973Y177045D01*
X688935Y177064D01*
X688917D01*
Y177601D01*
X693287D01*
Y177064D01*
D02*
G37*
G36*
X696592Y263009D02*
X696092Y262120D01*
X695796Y262324D01*
X695537Y262490D01*
X695314Y262620D01*
X695148Y262731D01*
X695018Y262805D01*
X694926Y262861D01*
X694870Y262898D01*
X694852D01*
X694722Y262972D01*
X694592Y263009D01*
X694407Y263083D01*
X694352D01*
X694296Y263101D01*
X694259D01*
X694111Y263083D01*
X694000Y263027D01*
X693926Y262972D01*
X693907Y262953D01*
X693870Y262898D01*
X693833Y262805D01*
X693796Y262657D01*
X693778Y262564D01*
Y262509D01*
Y262472D01*
Y262453D01*
Y256435D01*
Y256232D01*
X693796Y256047D01*
X693815Y255898D01*
Y255787D01*
X693833Y255695D01*
X693852Y255639D01*
X693870Y255602D01*
Y255584D01*
X693963Y255417D01*
X694055Y255306D01*
X694148Y255213D01*
X694166Y255195D01*
X694185D01*
X694278Y255139D01*
X694370Y255102D01*
X694574Y255028D01*
X694648Y255010D01*
X694722Y254991D01*
X694778Y254973D01*
X694796D01*
X694963Y254954D01*
X695166Y254935D01*
X695592Y254898D01*
X695778Y254880D01*
X695944D01*
X696055Y254862D01*
X696092D01*
Y254121D01*
X688908D01*
Y254862D01*
X689130D01*
X689334Y254880D01*
X689519D01*
X689667Y254898D01*
X689778D01*
X689871Y254917D01*
X689945D01*
X690204Y254973D01*
X690408Y255010D01*
X690482Y255028D01*
X690537Y255047D01*
X690574Y255065D01*
X690593D01*
X690760Y255139D01*
X690889Y255213D01*
X690963Y255287D01*
X691000Y255306D01*
X691074Y255436D01*
X691148Y255565D01*
X691167Y255658D01*
X691185Y255676D01*
Y255695D01*
X691204Y255806D01*
X691222Y255917D01*
X691241Y256158D01*
Y256269D01*
Y256361D01*
Y256417D01*
Y256435D01*
Y263398D01*
Y263898D01*
X691222Y264342D01*
Y264712D01*
X691204Y265046D01*
Y265286D01*
X691185Y265471D01*
Y265583D01*
Y265620D01*
X692259D01*
X696592Y263009D01*
D02*
G37*
G36*
X708017Y251314D02*
X707850Y251258D01*
X707721Y251203D01*
X707610Y251147D01*
X707517Y251110D01*
X707461Y251073D01*
X707424Y251036D01*
X707387Y251017D01*
X707276Y250888D01*
X707221Y250777D01*
X707184Y250666D01*
Y250647D01*
Y250629D01*
X707165Y250536D01*
X707147Y250406D01*
X707128Y250129D01*
Y249981D01*
Y249888D01*
Y249814D01*
Y249777D01*
Y242574D01*
Y242296D01*
Y242185D01*
Y242092D01*
X707147Y242018D01*
Y241963D01*
Y241926D01*
Y241907D01*
X707165Y241741D01*
X707202Y241593D01*
X707239Y241518D01*
X707258Y241481D01*
X707332Y241370D01*
X707424Y241296D01*
X707498Y241241D01*
X707535Y241222D01*
X707684Y241148D01*
X707832Y241092D01*
X707906Y241074D01*
X707961Y241056D01*
X707998Y241037D01*
X708017D01*
Y240500D01*
X704869D01*
Y241037D01*
X705017Y241074D01*
X705147Y241130D01*
X705258Y241167D01*
X705332Y241204D01*
X705406Y241241D01*
X705443Y241278D01*
X705462Y241296D01*
X705480D01*
X705591Y241426D01*
X705647Y241555D01*
X705684Y241667D01*
X705702Y241685D01*
Y241704D01*
X705721Y241815D01*
X705739Y241944D01*
X705758Y242222D01*
Y242352D01*
Y242463D01*
Y242537D01*
Y242555D01*
Y246388D01*
Y247073D01*
X705776Y247703D01*
Y247981D01*
X705795Y248258D01*
Y248499D01*
Y248721D01*
X705813Y248925D01*
Y249110D01*
X705832Y249277D01*
Y249407D01*
X705851Y249518D01*
Y249592D01*
Y249629D01*
Y249647D01*
X705702D01*
X705573Y249221D01*
X705517Y249036D01*
X705462Y248851D01*
X705406Y248703D01*
X705369Y248592D01*
X705332Y248518D01*
Y248499D01*
X702980Y241741D01*
X701518D01*
X699277Y247759D01*
X699166Y248055D01*
X699092Y248295D01*
X699018Y248481D01*
X698962Y248647D01*
X698925Y248758D01*
X698888Y248851D01*
X698870Y248888D01*
Y248906D01*
X698796Y249147D01*
X698722Y249351D01*
X698685Y249425D01*
X698666Y249499D01*
X698648Y249536D01*
Y249555D01*
X698481D01*
Y249388D01*
X698499Y249203D01*
X698518Y248777D01*
Y248573D01*
X698536Y248407D01*
Y248295D01*
Y248277D01*
Y248258D01*
Y247925D01*
X698555Y247629D01*
Y247351D01*
Y247129D01*
Y246925D01*
Y246796D01*
Y246703D01*
Y246666D01*
Y242592D01*
Y242389D01*
Y242222D01*
X698574Y242074D01*
Y241963D01*
Y241889D01*
X698592Y241833D01*
Y241796D01*
Y241778D01*
X698629Y241611D01*
X698666Y241500D01*
X698685Y241426D01*
X698703Y241407D01*
X698777Y241333D01*
X698833Y241278D01*
X698907Y241241D01*
X698925Y241222D01*
X698981Y241185D01*
X699073Y241167D01*
X699221Y241111D01*
X699314Y241074D01*
X699370Y241056D01*
X699407Y241037D01*
X699425D01*
Y240500D01*
X695166D01*
Y241037D01*
X695333Y241092D01*
X695463Y241130D01*
X695574Y241185D01*
X695648Y241222D01*
X695722Y241259D01*
X695759Y241296D01*
X695796Y241315D01*
X695889Y241463D01*
X695944Y241611D01*
X695981Y241722D01*
X696000Y241759D01*
Y241778D01*
X696018Y241889D01*
Y242037D01*
X696037Y242296D01*
Y242407D01*
Y242500D01*
Y242555D01*
Y242574D01*
Y249777D01*
Y249999D01*
X696018Y250184D01*
Y250332D01*
X696000Y250443D01*
Y250536D01*
X695981Y250592D01*
Y250629D01*
Y250647D01*
X695926Y250814D01*
X695852Y250925D01*
X695796Y251017D01*
X695778Y251036D01*
X695703Y251091D01*
X695611Y251147D01*
X695407Y251240D01*
X695314Y251258D01*
X695240Y251295D01*
X695185Y251314D01*
X695166D01*
Y251851D01*
X699073D01*
X701573Y245018D01*
X703869Y251851D01*
X708017D01*
Y251314D01*
D02*
G37*
G36*
X687612D02*
X687464Y251258D01*
X687334Y251221D01*
X687223Y251166D01*
X687130Y251110D01*
X687075Y251073D01*
X687038Y251054D01*
X687001Y251017D01*
X686889Y250888D01*
X686815Y250777D01*
X686778Y250666D01*
Y250647D01*
Y250629D01*
X686760Y250536D01*
X686741Y250406D01*
X686723Y250129D01*
Y249981D01*
Y249888D01*
Y249814D01*
Y249777D01*
Y242574D01*
Y242315D01*
Y242111D01*
X686741Y242037D01*
Y241981D01*
Y241944D01*
Y241926D01*
X686760Y241741D01*
X686797Y241611D01*
X686834Y241518D01*
X686852Y241481D01*
X686926Y241370D01*
X687019Y241296D01*
X687093Y241241D01*
X687130Y241222D01*
X687278Y241148D01*
X687427Y241092D01*
X687501Y241074D01*
X687556Y241056D01*
X687593Y241037D01*
X687612D01*
Y240500D01*
X684464D01*
Y241037D01*
X684612Y241074D01*
X684742Y241130D01*
X684853Y241167D01*
X684927Y241204D01*
X685001Y241241D01*
X685038Y241278D01*
X685075Y241296D01*
X685186Y241426D01*
X685241Y241555D01*
X685278Y241648D01*
X685297Y241667D01*
Y241685D01*
X685316Y241796D01*
X685334Y241926D01*
X685353Y242222D01*
Y242370D01*
Y242481D01*
Y242555D01*
Y242574D01*
Y245259D01*
Y245999D01*
X685371Y246684D01*
X685390Y247333D01*
Y247610D01*
Y247888D01*
X685408Y248147D01*
Y248370D01*
X685427Y248555D01*
Y248721D01*
X685445Y248851D01*
Y248962D01*
Y249018D01*
Y249036D01*
X685371D01*
X685223Y248721D01*
X685038Y248388D01*
X684853Y248055D01*
X684668Y247722D01*
X684501Y247425D01*
X684427Y247296D01*
X684371Y247185D01*
X684316Y247092D01*
X684279Y247018D01*
X684242Y246981D01*
Y246962D01*
X680501Y240500D01*
X678390D01*
Y249758D01*
Y249944D01*
X678372Y250110D01*
Y250240D01*
X678353Y250351D01*
Y250425D01*
X678335Y250499D01*
Y250518D01*
Y250536D01*
X678279Y250703D01*
X678242Y250832D01*
X678205Y250906D01*
X678187Y250925D01*
X678113Y251017D01*
X678038Y251073D01*
X677983Y251110D01*
X677964Y251129D01*
X677835Y251184D01*
X677668Y251258D01*
X677594Y251277D01*
X677539Y251295D01*
X677502Y251314D01*
X677483D01*
Y251851D01*
X680631D01*
Y251314D01*
X680409Y251240D01*
X680260Y251166D01*
X680168Y251129D01*
X680149Y251110D01*
X680057Y251054D01*
X679983Y250980D01*
X679946Y250925D01*
X679927Y250906D01*
X679872Y250814D01*
X679835Y250684D01*
X679798Y250592D01*
Y250573D01*
Y250555D01*
X679779Y250443D01*
X679761Y250332D01*
X679742Y250073D01*
Y249944D01*
Y249851D01*
Y249777D01*
Y249758D01*
Y248221D01*
Y247351D01*
X679724Y246555D01*
Y246166D01*
X679705Y245814D01*
Y245481D01*
X679687Y245166D01*
Y244888D01*
Y244629D01*
X679668Y244407D01*
Y244222D01*
X679650Y244074D01*
Y243963D01*
Y243888D01*
Y243870D01*
X679779D01*
X680057Y244426D01*
X680186Y244685D01*
X680316Y244925D01*
X680409Y245129D01*
X680501Y245296D01*
X680557Y245388D01*
X680575Y245425D01*
X680723Y245722D01*
X680872Y245981D01*
X681001Y246203D01*
X681094Y246388D01*
X681168Y246536D01*
X681223Y246647D01*
X681260Y246722D01*
X681279Y246740D01*
X684242Y251851D01*
X687612D01*
Y251314D01*
D02*
G37*
G36*
X693537D02*
X693333Y251240D01*
X693185Y251184D01*
X693092Y251129D01*
X693055Y251110D01*
X692926Y251036D01*
X692852Y250943D01*
X692796Y250888D01*
X692778Y250851D01*
X692722Y250721D01*
X692685Y250573D01*
X692667Y250462D01*
Y250443D01*
Y250425D01*
X692648Y250221D01*
Y249999D01*
Y249906D01*
Y249832D01*
Y249777D01*
Y249758D01*
Y242574D01*
Y242315D01*
X692667Y242092D01*
Y242018D01*
X692685Y241963D01*
Y241926D01*
Y241907D01*
X692704Y241741D01*
X692741Y241593D01*
X692778Y241518D01*
X692796Y241481D01*
X692870Y241370D01*
X692944Y241296D01*
X693018Y241241D01*
X693055Y241222D01*
X693204Y241148D01*
X693370Y241092D01*
X693481Y241056D01*
X693518Y241037D01*
X693537D01*
Y240500D01*
X689167D01*
Y241037D01*
X689334Y241074D01*
X689463Y241130D01*
X689537Y241148D01*
X689574Y241167D01*
X689686Y241241D01*
X689778Y241296D01*
X689834Y241352D01*
X689852Y241370D01*
X689908Y241463D01*
X689963Y241537D01*
X689982Y241611D01*
X690000Y241630D01*
X690019Y241759D01*
X690037Y241889D01*
X690056Y242000D01*
Y242018D01*
Y242037D01*
X690074Y242222D01*
Y242407D01*
Y242481D01*
Y242518D01*
Y242555D01*
Y242574D01*
Y249758D01*
Y249925D01*
Y250073D01*
X690056Y250184D01*
Y250277D01*
Y250369D01*
X690037Y250425D01*
Y250443D01*
Y250462D01*
X690000Y250629D01*
X689963Y250740D01*
X689945Y250832D01*
X689926Y250851D01*
X689852Y250962D01*
X689778Y251036D01*
X689704Y251091D01*
X689686Y251110D01*
X689537Y251184D01*
X689371Y251258D01*
X689278Y251277D01*
X689223Y251295D01*
X689185Y251314D01*
X689167D01*
Y251851D01*
X693537D01*
Y251314D01*
D02*
G37*
G36*
X700118Y51972D02*
X699693Y51218D01*
X699442Y51391D01*
X699221Y51532D01*
X699033Y51642D01*
X698891Y51737D01*
X698781Y51800D01*
X698703Y51847D01*
X698655Y51878D01*
X698640D01*
X698530Y51941D01*
X698420Y51972D01*
X698262Y52035D01*
X698215D01*
X698168Y52051D01*
X698137D01*
X698011Y52035D01*
X697916Y51988D01*
X697853Y51941D01*
X697838Y51925D01*
X697806Y51878D01*
X697775Y51800D01*
X697744Y51674D01*
X697728Y51595D01*
Y51548D01*
Y51516D01*
Y51501D01*
Y46391D01*
Y46218D01*
X697744Y46061D01*
X697759Y45935D01*
Y45841D01*
X697775Y45762D01*
X697791Y45715D01*
X697806Y45683D01*
Y45668D01*
X697885Y45526D01*
X697964Y45432D01*
X698042Y45353D01*
X698058Y45338D01*
X698074D01*
X698152Y45290D01*
X698231Y45259D01*
X698404Y45196D01*
X698467Y45180D01*
X698530Y45165D01*
X698577Y45149D01*
X698593D01*
X698734Y45133D01*
X698907Y45117D01*
X699269Y45086D01*
X699426Y45070D01*
X699567D01*
X699662Y45054D01*
X699693D01*
Y44426D01*
X693593D01*
Y45054D01*
X693781D01*
X693954Y45070D01*
X694112D01*
X694237Y45086D01*
X694332D01*
X694410Y45102D01*
X694473D01*
X694693Y45149D01*
X694866Y45180D01*
X694929Y45196D01*
X694976Y45212D01*
X695008Y45227D01*
X695023D01*
X695165Y45290D01*
X695275Y45353D01*
X695338Y45416D01*
X695369Y45432D01*
X695432Y45542D01*
X695495Y45652D01*
X695511Y45731D01*
X695527Y45746D01*
Y45762D01*
X695542Y45856D01*
X695558Y45951D01*
X695574Y46155D01*
Y46249D01*
Y46328D01*
Y46375D01*
Y46391D01*
Y52303D01*
Y52727D01*
X695558Y53105D01*
Y53419D01*
X695542Y53702D01*
Y53906D01*
X695527Y54064D01*
Y54158D01*
Y54189D01*
X696439D01*
X700118Y51972D01*
D02*
G37*
G36*
X688734Y54158D02*
X689096Y54095D01*
X689426Y54001D01*
X689709Y53891D01*
X689929Y53780D01*
X690024Y53733D01*
X690102Y53686D01*
X690165Y53655D01*
X690212Y53623D01*
X690228Y53592D01*
X690244D01*
X690527Y53356D01*
X690778Y53089D01*
X690983Y52806D01*
X691156Y52523D01*
X691282Y52271D01*
X691329Y52177D01*
X691376Y52083D01*
X691407Y52004D01*
X691439Y51941D01*
X691454Y51909D01*
Y51894D01*
X691596Y51454D01*
X691690Y50998D01*
X691769Y50542D01*
X691816Y50101D01*
X691832Y49913D01*
X691848Y49724D01*
Y49567D01*
X691863Y49425D01*
Y49315D01*
Y49237D01*
Y49174D01*
Y49158D01*
Y48844D01*
X691848Y48545D01*
X691832Y48262D01*
X691800Y47995D01*
X691769Y47743D01*
X691738Y47523D01*
X691690Y47303D01*
X691659Y47114D01*
X691627Y46941D01*
X691580Y46800D01*
X691549Y46658D01*
X691517Y46564D01*
X691486Y46469D01*
X691470Y46407D01*
X691454Y46375D01*
Y46360D01*
X691282Y45982D01*
X691108Y45652D01*
X690904Y45385D01*
X690731Y45165D01*
X690558Y44992D01*
X690433Y44882D01*
X690338Y44803D01*
X690322Y44787D01*
X690307D01*
X690008Y44630D01*
X689709Y44520D01*
X689395Y44426D01*
X689096Y44378D01*
X688845Y44347D01*
X688734Y44331D01*
X688640D01*
X688561Y44316D01*
X688451D01*
X688137Y44331D01*
X687838Y44378D01*
X687555Y44441D01*
X687288Y44520D01*
X687052Y44614D01*
X686832Y44724D01*
X686643Y44834D01*
X686455Y44960D01*
X686313Y45070D01*
X686172Y45180D01*
X686062Y45290D01*
X685967Y45385D01*
X685889Y45479D01*
X685842Y45542D01*
X685810Y45573D01*
X685794Y45589D01*
X685637Y45841D01*
X685496Y46124D01*
X685370Y46422D01*
X685260Y46721D01*
X685181Y47035D01*
X685102Y47350D01*
X684993Y47963D01*
X684961Y48246D01*
X684930Y48513D01*
X684914Y48765D01*
X684898Y48969D01*
X684882Y49142D01*
Y49268D01*
Y49347D01*
Y49378D01*
X684898Y49818D01*
X684914Y50227D01*
X684961Y50620D01*
X685024Y50966D01*
X685087Y51296D01*
X685150Y51595D01*
X685228Y51862D01*
X685307Y52098D01*
X685401Y52318D01*
X685480Y52491D01*
X685543Y52649D01*
X685606Y52774D01*
X685668Y52869D01*
X685716Y52947D01*
X685731Y52979D01*
X685747Y52994D01*
X685920Y53199D01*
X686109Y53387D01*
X686297Y53545D01*
X686502Y53686D01*
X686722Y53796D01*
X686942Y53891D01*
X687147Y53985D01*
X687351Y54048D01*
X687555Y54095D01*
X687728Y54126D01*
X687901Y54158D01*
X688043Y54174D01*
X688153Y54189D01*
X688326D01*
X688734Y54158D01*
D02*
G37*
G36*
X705463Y41932D02*
X705322Y41885D01*
X705212Y41838D01*
X705117Y41790D01*
X705039Y41759D01*
X704992Y41728D01*
X704960Y41696D01*
X704929Y41680D01*
X704834Y41570D01*
X704787Y41476D01*
X704756Y41382D01*
Y41366D01*
Y41350D01*
X704740Y41272D01*
X704724Y41162D01*
X704709Y40926D01*
Y40800D01*
Y40721D01*
Y40658D01*
Y40627D01*
Y34511D01*
Y34275D01*
Y34181D01*
Y34102D01*
X704724Y34039D01*
Y33992D01*
Y33961D01*
Y33945D01*
X704740Y33803D01*
X704771Y33678D01*
X704803Y33615D01*
X704819Y33583D01*
X704882Y33489D01*
X704960Y33426D01*
X705023Y33379D01*
X705054Y33363D01*
X705180Y33300D01*
X705306Y33253D01*
X705369Y33237D01*
X705416Y33222D01*
X705448Y33206D01*
X705463D01*
Y32750D01*
X702790D01*
Y33206D01*
X702916Y33237D01*
X703026Y33285D01*
X703121Y33316D01*
X703184Y33347D01*
X703246Y33379D01*
X703278Y33410D01*
X703294Y33426D01*
X703309D01*
X703404Y33536D01*
X703451Y33646D01*
X703482Y33740D01*
X703498Y33756D01*
Y33772D01*
X703514Y33866D01*
X703529Y33976D01*
X703545Y34212D01*
Y34322D01*
Y34417D01*
Y34479D01*
Y34495D01*
Y37750D01*
Y38331D01*
X703561Y38866D01*
Y39102D01*
X703577Y39338D01*
Y39542D01*
Y39731D01*
X703592Y39904D01*
Y40061D01*
X703608Y40202D01*
Y40313D01*
X703624Y40407D01*
Y40470D01*
Y40501D01*
Y40517D01*
X703498D01*
X703388Y40155D01*
X703341Y39998D01*
X703294Y39841D01*
X703246Y39715D01*
X703215Y39621D01*
X703184Y39558D01*
Y39542D01*
X701187Y33803D01*
X699945D01*
X698042Y38913D01*
X697948Y39165D01*
X697885Y39369D01*
X697822Y39526D01*
X697775Y39668D01*
X697744Y39762D01*
X697712Y39841D01*
X697696Y39872D01*
Y39888D01*
X697633Y40093D01*
X697570Y40265D01*
X697539Y40328D01*
X697523Y40391D01*
X697508Y40423D01*
Y40438D01*
X697366D01*
Y40297D01*
X697382Y40140D01*
X697398Y39778D01*
Y39605D01*
X697413Y39464D01*
Y39369D01*
Y39353D01*
Y39338D01*
Y39055D01*
X697429Y38803D01*
Y38567D01*
Y38379D01*
Y38206D01*
Y38096D01*
Y38017D01*
Y37986D01*
Y34527D01*
Y34354D01*
Y34212D01*
X697445Y34086D01*
Y33992D01*
Y33929D01*
X697460Y33882D01*
Y33851D01*
Y33835D01*
X697492Y33693D01*
X697523Y33599D01*
X697539Y33536D01*
X697555Y33520D01*
X697618Y33458D01*
X697665Y33410D01*
X697728Y33379D01*
X697744Y33363D01*
X697791Y33332D01*
X697869Y33316D01*
X697995Y33269D01*
X698074Y33237D01*
X698121Y33222D01*
X698152Y33206D01*
X698168D01*
Y32750D01*
X694552D01*
Y33206D01*
X694693Y33253D01*
X694803Y33285D01*
X694898Y33332D01*
X694961Y33363D01*
X695023Y33395D01*
X695055Y33426D01*
X695086Y33442D01*
X695165Y33568D01*
X695212Y33693D01*
X695244Y33788D01*
X695259Y33819D01*
Y33835D01*
X695275Y33929D01*
Y34055D01*
X695291Y34275D01*
Y34369D01*
Y34448D01*
Y34495D01*
Y34511D01*
Y40627D01*
Y40816D01*
X695275Y40973D01*
Y41099D01*
X695259Y41193D01*
Y41272D01*
X695244Y41319D01*
Y41350D01*
Y41366D01*
X695196Y41508D01*
X695134Y41602D01*
X695086Y41680D01*
X695071Y41696D01*
X695008Y41743D01*
X694929Y41790D01*
X694756Y41869D01*
X694678Y41885D01*
X694615Y41916D01*
X694567Y41932D01*
X694552D01*
Y42388D01*
X697869D01*
X699992Y36586D01*
X701941Y42388D01*
X705463D01*
Y41932D01*
D02*
G37*
G36*
X688137D02*
X688011Y41885D01*
X687901Y41853D01*
X687807Y41806D01*
X687728Y41759D01*
X687681Y41728D01*
X687650Y41712D01*
X687618Y41680D01*
X687524Y41570D01*
X687461Y41476D01*
X687430Y41382D01*
Y41366D01*
Y41350D01*
X687414Y41272D01*
X687398Y41162D01*
X687382Y40926D01*
Y40800D01*
Y40721D01*
Y40658D01*
Y40627D01*
Y34511D01*
Y34291D01*
Y34118D01*
X687398Y34055D01*
Y34008D01*
Y33976D01*
Y33961D01*
X687414Y33803D01*
X687445Y33693D01*
X687477Y33615D01*
X687492Y33583D01*
X687555Y33489D01*
X687634Y33426D01*
X687697Y33379D01*
X687728Y33363D01*
X687854Y33300D01*
X687980Y33253D01*
X688043Y33237D01*
X688090Y33222D01*
X688121Y33206D01*
X688137D01*
Y32750D01*
X685464D01*
Y33206D01*
X685590Y33237D01*
X685700Y33285D01*
X685794Y33316D01*
X685857Y33347D01*
X685920Y33379D01*
X685952Y33410D01*
X685983Y33426D01*
X686077Y33536D01*
X686124Y33646D01*
X686156Y33725D01*
X686172Y33740D01*
Y33756D01*
X686187Y33851D01*
X686203Y33961D01*
X686219Y34212D01*
Y34338D01*
Y34432D01*
Y34495D01*
Y34511D01*
Y36791D01*
Y37420D01*
X686235Y38001D01*
X686250Y38552D01*
Y38788D01*
Y39023D01*
X686266Y39243D01*
Y39432D01*
X686282Y39589D01*
Y39731D01*
X686297Y39841D01*
Y39935D01*
Y39982D01*
Y39998D01*
X686235D01*
X686109Y39731D01*
X685952Y39448D01*
X685794Y39165D01*
X685637Y38882D01*
X685496Y38630D01*
X685433Y38520D01*
X685386Y38426D01*
X685338Y38347D01*
X685307Y38284D01*
X685275Y38253D01*
Y38237D01*
X682100Y32750D01*
X680307D01*
Y40611D01*
Y40768D01*
X680291Y40910D01*
Y41020D01*
X680276Y41114D01*
Y41177D01*
X680260Y41240D01*
Y41256D01*
Y41272D01*
X680213Y41413D01*
X680181Y41523D01*
X680150Y41586D01*
X680134Y41602D01*
X680071Y41680D01*
X680008Y41728D01*
X679961Y41759D01*
X679946Y41775D01*
X679835Y41822D01*
X679694Y41885D01*
X679631Y41901D01*
X679584Y41916D01*
X679552Y41932D01*
X679537D01*
Y42388D01*
X682210D01*
Y41932D01*
X682021Y41869D01*
X681895Y41806D01*
X681816Y41775D01*
X681801Y41759D01*
X681722Y41712D01*
X681659Y41649D01*
X681628Y41602D01*
X681612Y41586D01*
X681565Y41508D01*
X681534Y41397D01*
X681502Y41319D01*
Y41303D01*
Y41287D01*
X681486Y41193D01*
X681471Y41099D01*
X681455Y40879D01*
Y40768D01*
Y40690D01*
Y40627D01*
Y40611D01*
Y39306D01*
Y38567D01*
X681439Y37891D01*
Y37561D01*
X681423Y37262D01*
Y36979D01*
X681408Y36712D01*
Y36476D01*
Y36256D01*
X681392Y36068D01*
Y35910D01*
X681376Y35784D01*
Y35690D01*
Y35627D01*
Y35612D01*
X681486D01*
X681722Y36083D01*
X681832Y36303D01*
X681942Y36508D01*
X682021Y36681D01*
X682100Y36822D01*
X682147Y36901D01*
X682162Y36932D01*
X682288Y37184D01*
X682414Y37404D01*
X682524Y37593D01*
X682603Y37750D01*
X682665Y37876D01*
X682713Y37970D01*
X682744Y38033D01*
X682760Y38049D01*
X685275Y42388D01*
X688137D01*
Y41932D01*
D02*
G37*
G36*
X693168D02*
X692995Y41869D01*
X692869Y41822D01*
X692791Y41775D01*
X692759Y41759D01*
X692649Y41696D01*
X692587Y41617D01*
X692539Y41570D01*
X692524Y41539D01*
X692476Y41429D01*
X692445Y41303D01*
X692429Y41209D01*
Y41193D01*
Y41177D01*
X692413Y41004D01*
Y40816D01*
Y40737D01*
Y40674D01*
Y40627D01*
Y40611D01*
Y34511D01*
Y34291D01*
X692429Y34102D01*
Y34039D01*
X692445Y33992D01*
Y33961D01*
Y33945D01*
X692461Y33803D01*
X692492Y33678D01*
X692524Y33615D01*
X692539Y33583D01*
X692602Y33489D01*
X692665Y33426D01*
X692728Y33379D01*
X692759Y33363D01*
X692885Y33300D01*
X693027Y33253D01*
X693121Y33222D01*
X693152Y33206D01*
X693168D01*
Y32750D01*
X689458D01*
Y33206D01*
X689599Y33237D01*
X689709Y33285D01*
X689772Y33300D01*
X689804Y33316D01*
X689898Y33379D01*
X689977Y33426D01*
X690024Y33473D01*
X690039Y33489D01*
X690087Y33568D01*
X690134Y33630D01*
X690150Y33693D01*
X690165Y33709D01*
X690181Y33819D01*
X690197Y33929D01*
X690212Y34023D01*
Y34039D01*
Y34055D01*
X690228Y34212D01*
Y34369D01*
Y34432D01*
Y34464D01*
Y34495D01*
Y34511D01*
Y40611D01*
Y40753D01*
Y40879D01*
X690212Y40973D01*
Y41052D01*
Y41130D01*
X690197Y41177D01*
Y41193D01*
Y41209D01*
X690165Y41350D01*
X690134Y41445D01*
X690118Y41523D01*
X690102Y41539D01*
X690039Y41633D01*
X689977Y41696D01*
X689914Y41743D01*
X689898Y41759D01*
X689772Y41822D01*
X689631Y41885D01*
X689552Y41901D01*
X689505Y41916D01*
X689473Y41932D01*
X689458D01*
Y42388D01*
X693168D01*
Y41932D01*
D02*
G37*
G36*
X438158Y124944D02*
X437010D01*
X436936Y125221D01*
X436862Y125480D01*
X436825Y125573D01*
X436807Y125647D01*
X436788Y125703D01*
Y125721D01*
X436732Y125869D01*
X436677Y125999D01*
X436621Y126129D01*
X436566Y126221D01*
X436529Y126295D01*
X436492Y126351D01*
X436455Y126369D01*
Y126388D01*
X436288Y126554D01*
X436140Y126666D01*
X436029Y126740D01*
X436010Y126758D01*
X435992D01*
X435881Y126795D01*
X435751Y126832D01*
X435492Y126869D01*
X435381Y126888D01*
X434548D01*
Y118574D01*
Y118315D01*
Y118092D01*
X434566Y118018D01*
Y117963D01*
Y117926D01*
Y117907D01*
X434585Y117722D01*
X434640Y117592D01*
X434677Y117500D01*
X434696Y117463D01*
X434788Y117352D01*
X434881Y117259D01*
X434955Y117204D01*
X434973Y117185D01*
X434992D01*
X435159Y117130D01*
X435344Y117074D01*
X435418Y117056D01*
X435492D01*
X435529Y117037D01*
X435547D01*
Y116500D01*
X430955D01*
Y117037D01*
X431159Y117074D01*
X431289Y117111D01*
X431381Y117130D01*
X431418Y117148D01*
X431529Y117204D01*
X431603Y117259D01*
X431659Y117296D01*
X431678Y117315D01*
X431789Y117463D01*
X431826Y117518D01*
X431844Y117537D01*
X431881Y117667D01*
X431918Y117778D01*
X431937Y117870D01*
Y117907D01*
X431955Y118111D01*
Y118333D01*
Y118426D01*
Y118500D01*
Y118555D01*
Y118574D01*
Y126888D01*
X431122D01*
X430955Y126869D01*
X430844Y126851D01*
X430807D01*
X430659Y126814D01*
X430548Y126777D01*
X430474Y126758D01*
X430455Y126740D01*
X430344Y126684D01*
X430270Y126610D01*
X430215Y126554D01*
X430196Y126536D01*
X430104Y126425D01*
X430029Y126332D01*
X429974Y126258D01*
X429955Y126221D01*
X429881Y126073D01*
X429807Y125925D01*
X429770Y125814D01*
X429752Y125777D01*
Y125758D01*
X429715Y125647D01*
X429678Y125518D01*
X429585Y125258D01*
X429548Y125129D01*
X429511Y125036D01*
X429492Y124962D01*
Y124944D01*
X428363D01*
Y127851D01*
X438158D01*
Y124944D01*
D02*
G37*
G36*
X390478D02*
X389330D01*
X389256Y125221D01*
X389182Y125480D01*
X389145Y125573D01*
X389126Y125647D01*
X389108Y125703D01*
Y125721D01*
X389052Y125869D01*
X388997Y125999D01*
X388941Y126129D01*
X388886Y126221D01*
X388849Y126295D01*
X388812Y126351D01*
X388774Y126369D01*
Y126388D01*
X388608Y126554D01*
X388460Y126666D01*
X388349Y126740D01*
X388330Y126758D01*
X388312D01*
X388200Y126795D01*
X388071Y126832D01*
X387812Y126869D01*
X387701Y126888D01*
X386867D01*
Y118574D01*
Y118315D01*
Y118092D01*
X386886Y118018D01*
Y117963D01*
Y117926D01*
Y117907D01*
X386904Y117722D01*
X386960Y117592D01*
X386997Y117500D01*
X387015Y117463D01*
X387108Y117352D01*
X387201Y117259D01*
X387275Y117204D01*
X387293Y117185D01*
X387312D01*
X387478Y117130D01*
X387663Y117074D01*
X387738Y117056D01*
X387812D01*
X387849Y117037D01*
X387867D01*
Y116500D01*
X383275D01*
Y117037D01*
X383479Y117074D01*
X383608Y117111D01*
X383701Y117130D01*
X383738Y117148D01*
X383849Y117204D01*
X383923Y117259D01*
X383979Y117296D01*
X383997Y117315D01*
X384108Y117463D01*
X384145Y117518D01*
X384164Y117537D01*
X384201Y117667D01*
X384238Y117778D01*
X384257Y117870D01*
Y117907D01*
X384275Y118111D01*
Y118333D01*
Y118426D01*
Y118500D01*
Y118555D01*
Y118574D01*
Y126888D01*
X383442D01*
X383275Y126869D01*
X383164Y126851D01*
X383127D01*
X382979Y126814D01*
X382868Y126777D01*
X382794Y126758D01*
X382775Y126740D01*
X382664Y126684D01*
X382590Y126610D01*
X382534Y126554D01*
X382516Y126536D01*
X382423Y126425D01*
X382349Y126332D01*
X382294Y126258D01*
X382275Y126221D01*
X382201Y126073D01*
X382127Y125925D01*
X382090Y125814D01*
X382071Y125777D01*
Y125758D01*
X382034Y125647D01*
X381997Y125518D01*
X381905Y125258D01*
X381868Y125129D01*
X381831Y125036D01*
X381812Y124962D01*
Y124944D01*
X380683D01*
Y127851D01*
X390478D01*
Y124944D01*
D02*
G37*
G36*
X379350Y127314D02*
X379183Y127258D01*
X379053Y127203D01*
X378942Y127147D01*
X378850Y127110D01*
X378794Y127073D01*
X378757Y127036D01*
X378720Y127017D01*
X378609Y126888D01*
X378553Y126777D01*
X378516Y126666D01*
Y126647D01*
Y126629D01*
X378498Y126536D01*
X378479Y126406D01*
X378461Y126129D01*
Y125981D01*
Y125888D01*
Y125814D01*
Y125777D01*
Y118574D01*
Y118296D01*
Y118185D01*
Y118092D01*
X378479Y118018D01*
Y117963D01*
Y117926D01*
Y117907D01*
X378498Y117741D01*
X378535Y117592D01*
X378572Y117518D01*
X378590Y117481D01*
X378665Y117370D01*
X378757Y117296D01*
X378831Y117241D01*
X378868Y117222D01*
X379016Y117148D01*
X379164Y117093D01*
X379239Y117074D01*
X379294Y117056D01*
X379331Y117037D01*
X379350D01*
Y116500D01*
X376202D01*
Y117037D01*
X376350Y117074D01*
X376479Y117130D01*
X376591Y117167D01*
X376665Y117204D01*
X376739Y117241D01*
X376776Y117278D01*
X376794Y117296D01*
X376813D01*
X376924Y117426D01*
X376979Y117555D01*
X377016Y117667D01*
X377035Y117685D01*
Y117704D01*
X377053Y117815D01*
X377072Y117944D01*
X377091Y118222D01*
Y118352D01*
Y118463D01*
Y118537D01*
Y118555D01*
Y122388D01*
Y123073D01*
X377109Y123703D01*
Y123981D01*
X377128Y124258D01*
Y124499D01*
Y124721D01*
X377146Y124925D01*
Y125110D01*
X377165Y125277D01*
Y125407D01*
X377183Y125518D01*
Y125592D01*
Y125629D01*
Y125647D01*
X377035D01*
X376905Y125221D01*
X376850Y125036D01*
X376794Y124851D01*
X376739Y124703D01*
X376702Y124592D01*
X376665Y124518D01*
Y124499D01*
X374313Y117741D01*
X372850D01*
X370610Y123758D01*
X370499Y124055D01*
X370425Y124296D01*
X370350Y124481D01*
X370295Y124647D01*
X370258Y124758D01*
X370221Y124851D01*
X370202Y124888D01*
Y124907D01*
X370128Y125147D01*
X370054Y125351D01*
X370017Y125425D01*
X369999Y125499D01*
X369980Y125536D01*
Y125555D01*
X369813D01*
Y125388D01*
X369832Y125203D01*
X369851Y124777D01*
Y124573D01*
X369869Y124407D01*
Y124296D01*
Y124277D01*
Y124258D01*
Y123925D01*
X369888Y123629D01*
Y123351D01*
Y123129D01*
Y122925D01*
Y122796D01*
Y122703D01*
Y122666D01*
Y118592D01*
Y118389D01*
Y118222D01*
X369906Y118074D01*
Y117963D01*
Y117889D01*
X369925Y117833D01*
Y117796D01*
Y117778D01*
X369962Y117611D01*
X369999Y117500D01*
X370017Y117426D01*
X370036Y117407D01*
X370110Y117333D01*
X370165Y117278D01*
X370239Y117241D01*
X370258Y117222D01*
X370313Y117185D01*
X370406Y117167D01*
X370554Y117111D01*
X370647Y117074D01*
X370702Y117056D01*
X370739Y117037D01*
X370758D01*
Y116500D01*
X366499D01*
Y117037D01*
X366666Y117093D01*
X366795Y117130D01*
X366906Y117185D01*
X366981Y117222D01*
X367055Y117259D01*
X367092Y117296D01*
X367129Y117315D01*
X367221Y117463D01*
X367277Y117611D01*
X367314Y117722D01*
X367332Y117759D01*
Y117778D01*
X367351Y117889D01*
Y118037D01*
X367369Y118296D01*
Y118407D01*
Y118500D01*
Y118555D01*
Y118574D01*
Y125777D01*
Y125999D01*
X367351Y126184D01*
Y126332D01*
X367332Y126443D01*
Y126536D01*
X367314Y126592D01*
Y126629D01*
Y126647D01*
X367258Y126814D01*
X367184Y126925D01*
X367129Y127017D01*
X367110Y127036D01*
X367036Y127092D01*
X366944Y127147D01*
X366740Y127240D01*
X366647Y127258D01*
X366573Y127295D01*
X366518Y127314D01*
X366499D01*
Y127851D01*
X370406D01*
X372906Y121018D01*
X375202Y127851D01*
X379350D01*
Y127314D01*
D02*
G37*
G36*
X407402Y120166D02*
X403458D01*
Y121907D01*
X407402D01*
Y120166D01*
D02*
G37*
G36*
X426993Y127314D02*
X426789Y127240D01*
X426641Y127184D01*
X426548Y127128D01*
X426511Y127110D01*
X426382Y127036D01*
X426308Y126943D01*
X426252Y126888D01*
X426234Y126851D01*
X426178Y126703D01*
X426141Y126573D01*
X426123Y126462D01*
Y126425D01*
Y126406D01*
X426104Y126203D01*
Y125981D01*
Y125888D01*
Y125832D01*
Y125777D01*
Y125758D01*
Y118592D01*
Y118315D01*
X426123Y118203D01*
Y118111D01*
Y118037D01*
X426141Y117981D01*
Y117944D01*
Y117926D01*
X426160Y117741D01*
X426197Y117611D01*
X426234Y117518D01*
X426252Y117481D01*
X426326Y117370D01*
X426400Y117296D01*
X426474Y117241D01*
X426511Y117222D01*
X426660Y117148D01*
X426826Y117093D01*
X426937Y117056D01*
X426974Y117037D01*
X426993D01*
Y116500D01*
X419068D01*
X418882Y119852D01*
X420012D01*
X420086Y119518D01*
X420142Y119352D01*
X420179Y119222D01*
X420216Y119092D01*
X420234Y119000D01*
X420271Y118926D01*
Y118907D01*
X420327Y118722D01*
X420382Y118574D01*
X420456Y118426D01*
X420512Y118315D01*
X420568Y118222D01*
X420605Y118148D01*
X420623Y118111D01*
X420642Y118092D01*
X420808Y117889D01*
X420975Y117741D01*
X421031Y117685D01*
X421086Y117667D01*
X421123Y117629D01*
X421142D01*
X421253Y117574D01*
X421382Y117537D01*
X421642Y117500D01*
X421753Y117481D01*
X423530D01*
Y125777D01*
Y126055D01*
Y126166D01*
X423512Y126258D01*
Y126332D01*
Y126406D01*
Y126425D01*
Y126443D01*
X423475Y126629D01*
X423438Y126758D01*
X423401Y126832D01*
X423382Y126869D01*
X423289Y126980D01*
X423197Y127055D01*
X423123Y127110D01*
X423104Y127128D01*
X422956Y127203D01*
X422789Y127258D01*
X422678Y127295D01*
X422641Y127314D01*
X422623D01*
Y127851D01*
X426993D01*
Y127314D01*
D02*
G37*
G36*
X401921D02*
X401718Y127240D01*
X401570Y127184D01*
X401477Y127128D01*
X401440Y127110D01*
X401310Y127036D01*
X401236Y126943D01*
X401181Y126888D01*
X401162Y126851D01*
X401107Y126703D01*
X401070Y126573D01*
X401051Y126462D01*
Y126425D01*
Y126406D01*
X401032Y126203D01*
Y125981D01*
Y125888D01*
Y125832D01*
Y125777D01*
Y125758D01*
Y120370D01*
X401014Y119981D01*
X400995Y119611D01*
X400959Y119296D01*
X400903Y119037D01*
X400866Y118833D01*
X400829Y118666D01*
X400810Y118574D01*
X400792Y118537D01*
X400681Y118278D01*
X400570Y118055D01*
X400440Y117852D01*
X400329Y117667D01*
X400218Y117537D01*
X400125Y117426D01*
X400051Y117352D01*
X400033Y117333D01*
X399829Y117167D01*
X399607Y117018D01*
X399384Y116889D01*
X399162Y116796D01*
X398977Y116722D01*
X398829Y116648D01*
X398736Y116630D01*
X398699Y116611D01*
X398385Y116537D01*
X398051Y116482D01*
X397700Y116426D01*
X397385Y116407D01*
X397126Y116389D01*
X396996Y116370D01*
X396403D01*
X396144Y116389D01*
X395885Y116407D01*
X395681Y116444D01*
X395496Y116463D01*
X395366Y116482D01*
X395292Y116500D01*
X395255D01*
X395015Y116556D01*
X394792Y116611D01*
X394607Y116667D01*
X394422Y116741D01*
X394292Y116796D01*
X394181Y116852D01*
X394107Y116870D01*
X394089Y116889D01*
X393904Y117000D01*
X393718Y117130D01*
X393570Y117259D01*
X393459Y117389D01*
X393348Y117500D01*
X393274Y117592D01*
X393237Y117648D01*
X393218Y117667D01*
X393089Y117852D01*
X392996Y118055D01*
X392904Y118241D01*
X392830Y118426D01*
X392774Y118592D01*
X392737Y118722D01*
X392700Y118796D01*
Y118833D01*
X392645Y119111D01*
X392607Y119407D01*
X392570Y119685D01*
X392552Y119963D01*
X392533Y120203D01*
Y120388D01*
Y120463D01*
Y120518D01*
Y120537D01*
Y120555D01*
Y125758D01*
Y126036D01*
Y126147D01*
X392515Y126240D01*
Y126314D01*
Y126388D01*
Y126406D01*
Y126425D01*
X392478Y126610D01*
X392441Y126740D01*
X392404Y126814D01*
X392385Y126851D01*
X392311Y126980D01*
X392219Y127055D01*
X392145Y127110D01*
X392126Y127128D01*
X391978Y127203D01*
X391811Y127258D01*
X391700Y127295D01*
X391663Y127314D01*
X391645D01*
Y127851D01*
X395311D01*
Y127314D01*
X395144Y127258D01*
X395015Y127221D01*
X394922Y127166D01*
X394829Y127128D01*
X394774Y127092D01*
X394737Y127055D01*
X394700Y127036D01*
X394589Y126906D01*
X394533Y126777D01*
X394496Y126666D01*
X394478Y126647D01*
Y126629D01*
X394459Y126517D01*
X394441Y126388D01*
X394422Y126110D01*
Y125962D01*
Y125869D01*
Y125795D01*
Y125758D01*
Y120463D01*
Y120037D01*
X394459Y119666D01*
X394478Y119352D01*
X394515Y119092D01*
X394552Y118889D01*
X394570Y118741D01*
X394607Y118666D01*
Y118629D01*
X394681Y118407D01*
X394774Y118222D01*
X394866Y118055D01*
X394959Y117926D01*
X395052Y117815D01*
X395126Y117741D01*
X395181Y117685D01*
X395200Y117667D01*
X395366Y117555D01*
X395570Y117481D01*
X395774Y117407D01*
X395978Y117370D01*
X396163Y117352D01*
X396311Y117333D01*
X396440D01*
X396663Y117352D01*
X396866Y117370D01*
X397033Y117407D01*
X397181Y117444D01*
X397311Y117481D01*
X397385Y117500D01*
X397440Y117537D01*
X397459D01*
X397718Y117722D01*
X397903Y117907D01*
X397977Y118000D01*
X398033Y118074D01*
X398051Y118111D01*
X398070Y118130D01*
X398218Y118444D01*
X398311Y118741D01*
X398348Y118870D01*
X398366Y118963D01*
X398385Y119037D01*
Y119055D01*
X398422Y119481D01*
X398440Y119685D01*
Y119870D01*
X398459Y120018D01*
Y120148D01*
Y120222D01*
Y120259D01*
Y125758D01*
Y125925D01*
Y126073D01*
X398440Y126184D01*
Y126277D01*
Y126369D01*
X398422Y126425D01*
Y126443D01*
Y126462D01*
X398385Y126629D01*
X398348Y126740D01*
X398329Y126832D01*
X398311Y126851D01*
X398237Y126962D01*
X398162Y127036D01*
X398088Y127092D01*
X398070Y127110D01*
X397922Y127184D01*
X397755Y127258D01*
X397663Y127277D01*
X397607Y127295D01*
X397570Y127314D01*
X397551D01*
Y127851D01*
X401921D01*
Y127314D01*
D02*
G37*
G36*
X364870D02*
X364666Y127240D01*
X364518Y127184D01*
X364425Y127128D01*
X364388Y127110D01*
X364259Y127036D01*
X364184Y126943D01*
X364129Y126888D01*
X364110Y126851D01*
X364055Y126703D01*
X364018Y126573D01*
X363999Y126462D01*
Y126425D01*
Y126406D01*
X363981Y126203D01*
Y125981D01*
Y125888D01*
Y125832D01*
Y125777D01*
Y125758D01*
Y118574D01*
Y118315D01*
X363999Y118092D01*
Y118018D01*
X364018Y117963D01*
Y117926D01*
Y117907D01*
X364036Y117741D01*
X364073Y117592D01*
X364110Y117518D01*
X364129Y117481D01*
X364203Y117370D01*
X364277Y117296D01*
X364351Y117241D01*
X364388Y117222D01*
X364536Y117148D01*
X364703Y117093D01*
X364814Y117056D01*
X364851Y117037D01*
X364870D01*
Y116500D01*
X360389D01*
Y117037D01*
X360518Y117074D01*
X360648Y117093D01*
X360740Y117130D01*
X360815Y117148D01*
X360926Y117185D01*
X360963Y117204D01*
X361074Y117278D01*
X361148Y117352D01*
X361203Y117407D01*
X361222Y117426D01*
X361277Y117555D01*
X361333Y117667D01*
X361351Y117759D01*
X361370Y117796D01*
X361389Y117889D01*
Y118018D01*
X361407Y118278D01*
Y118389D01*
Y118481D01*
Y118555D01*
Y118574D01*
Y121240D01*
X361203Y121222D01*
X360759D01*
X360537Y121203D01*
X360074D01*
X359574Y121222D01*
X359129Y121259D01*
X358722Y121333D01*
X358389Y121407D01*
X358130Y121481D01*
X358018Y121518D01*
X357926Y121555D01*
X357852Y121573D01*
X357796Y121592D01*
X357778Y121611D01*
X357759D01*
X357426Y121796D01*
X357130Y121981D01*
X356889Y122185D01*
X356685Y122388D01*
X356537Y122573D01*
X356426Y122722D01*
X356352Y122814D01*
X356334Y122851D01*
X356167Y123166D01*
X356037Y123499D01*
X355963Y123833D01*
X355889Y124129D01*
X355852Y124388D01*
X355834Y124592D01*
Y124666D01*
Y124721D01*
Y124758D01*
Y124777D01*
X355852Y125055D01*
X355871Y125332D01*
X355926Y125573D01*
X356000Y125795D01*
X356074Y126018D01*
X356167Y126203D01*
X356259Y126369D01*
X356352Y126517D01*
X356556Y126777D01*
X356722Y126943D01*
X356796Y127017D01*
X356852Y127055D01*
X356870Y127092D01*
X356889D01*
X357093Y127221D01*
X357315Y127351D01*
X357815Y127536D01*
X358333Y127666D01*
X358852Y127758D01*
X359092Y127795D01*
X359315Y127814D01*
X359518Y127832D01*
X359685D01*
X359833Y127851D01*
X364870D01*
Y127314D01*
D02*
G37*
G36*
X442843Y127980D02*
X443269Y127943D01*
X443658Y127888D01*
X443973Y127814D01*
X444250Y127740D01*
X444361Y127721D01*
X444454Y127684D01*
X444528Y127666D01*
X444584Y127647D01*
X444602Y127628D01*
X444621D01*
X444954Y127480D01*
X445250Y127295D01*
X445491Y127128D01*
X445713Y126943D01*
X445861Y126777D01*
X445991Y126647D01*
X446065Y126573D01*
X446083Y126536D01*
X446250Y126258D01*
X446380Y125962D01*
X446454Y125666D01*
X446528Y125388D01*
X446565Y125147D01*
X446583Y124962D01*
Y124888D01*
Y124832D01*
Y124814D01*
Y124795D01*
X446565Y124573D01*
X446546Y124351D01*
X446509Y124166D01*
X446472Y123999D01*
X446435Y123851D01*
X446417Y123758D01*
X446380Y123684D01*
Y123666D01*
X446194Y123314D01*
X446102Y123147D01*
X446009Y123018D01*
X445935Y122907D01*
X445861Y122814D01*
X445824Y122759D01*
X445806Y122740D01*
X445509Y122444D01*
X445361Y122314D01*
X445213Y122203D01*
X445102Y122111D01*
X445009Y122037D01*
X444935Y121999D01*
X444917Y121981D01*
X444510Y121722D01*
X444306Y121611D01*
X444121Y121500D01*
X443973Y121425D01*
X443843Y121351D01*
X443769Y121314D01*
X443732Y121296D01*
X443473Y121166D01*
X443232Y121037D01*
X443028Y120907D01*
X442862Y120796D01*
X442732Y120703D01*
X442639Y120629D01*
X442584Y120592D01*
X442565Y120574D01*
X442417Y120444D01*
X442287Y120314D01*
X442176Y120203D01*
X442102Y120092D01*
X442028Y120000D01*
X441991Y119926D01*
X441954Y119870D01*
Y119852D01*
X441880Y119703D01*
X441843Y119555D01*
X441769Y119277D01*
Y119148D01*
X441750Y119055D01*
Y118981D01*
Y118963D01*
X441769Y118759D01*
X441788Y118592D01*
X441825Y118426D01*
X441862Y118296D01*
X441917Y118185D01*
X441954Y118111D01*
X441973Y118055D01*
X441991Y118037D01*
X442084Y117907D01*
X442195Y117796D01*
X442399Y117629D01*
X442491Y117574D01*
X442547Y117537D01*
X442602Y117500D01*
X442621D01*
X442917Y117407D01*
X443195Y117352D01*
X443324D01*
X443417Y117333D01*
X443491D01*
X443824Y117352D01*
X444121Y117407D01*
X444361Y117481D01*
X444565Y117574D01*
X444732Y117667D01*
X444843Y117741D01*
X444917Y117796D01*
X444935Y117815D01*
X445102Y118018D01*
X445250Y118259D01*
X445361Y118500D01*
X445454Y118741D01*
X445528Y118963D01*
X445583Y119129D01*
X445602Y119203D01*
Y119259D01*
X445620Y119277D01*
Y119296D01*
X446768D01*
Y116741D01*
X446157Y116611D01*
X445861Y116574D01*
X445602Y116537D01*
X445380Y116500D01*
X445195Y116482D01*
X445084Y116463D01*
X445047D01*
X444695Y116426D01*
X444380Y116407D01*
X444084Y116389D01*
X443806D01*
X443584Y116370D01*
X443269D01*
X442843Y116389D01*
X442436Y116426D01*
X442084Y116500D01*
X441769Y116574D01*
X441528Y116630D01*
X441343Y116704D01*
X441269Y116722D01*
X441213Y116741D01*
X441195Y116759D01*
X441176D01*
X440843Y116926D01*
X440565Y117111D01*
X440325Y117296D01*
X440140Y117481D01*
X439991Y117648D01*
X439880Y117778D01*
X439806Y117870D01*
X439788Y117907D01*
X439621Y118203D01*
X439510Y118500D01*
X439417Y118815D01*
X439362Y119092D01*
X439325Y119333D01*
X439306Y119537D01*
Y119611D01*
Y119666D01*
Y119685D01*
Y119703D01*
X439325Y120000D01*
X439343Y120259D01*
X439399Y120500D01*
X439436Y120703D01*
X439492Y120870D01*
X439547Y120981D01*
X439566Y121074D01*
X439584Y121092D01*
X439695Y121314D01*
X439843Y121518D01*
X439973Y121722D01*
X440121Y121870D01*
X440251Y122018D01*
X440362Y122111D01*
X440436Y122185D01*
X440454Y122203D01*
X440695Y122407D01*
X440954Y122592D01*
X441232Y122759D01*
X441473Y122925D01*
X441713Y123055D01*
X441899Y123166D01*
X441973Y123203D01*
X442028Y123240D01*
X442047Y123259D01*
X442065D01*
X442362Y123425D01*
X442621Y123573D01*
X442843Y123703D01*
X443028Y123814D01*
X443176Y123907D01*
X443269Y123981D01*
X443343Y124018D01*
X443362Y124036D01*
X443510Y124166D01*
X443639Y124277D01*
X443750Y124407D01*
X443824Y124499D01*
X443899Y124592D01*
X443936Y124666D01*
X443954Y124703D01*
X443973Y124721D01*
X444084Y124999D01*
X444139Y125277D01*
Y125388D01*
X444158Y125480D01*
Y125536D01*
Y125555D01*
X444139Y125721D01*
X444121Y125869D01*
X444084Y126018D01*
X444047Y126129D01*
X444010Y126221D01*
X443991Y126295D01*
X443954Y126332D01*
Y126351D01*
X443769Y126573D01*
X443565Y126721D01*
X443491Y126777D01*
X443417Y126814D01*
X443380Y126851D01*
X443362D01*
X443065Y126943D01*
X442788Y126999D01*
X442676Y127017D01*
X442306D01*
X442121Y126980D01*
X441973Y126962D01*
X441843Y126925D01*
X441732Y126888D01*
X441658Y126869D01*
X441602Y126832D01*
X441584D01*
X441454Y126758D01*
X441325Y126666D01*
X441139Y126480D01*
X441065Y126388D01*
X441010Y126314D01*
X440991Y126277D01*
X440973Y126258D01*
X440880Y126110D01*
X440806Y125925D01*
X440677Y125592D01*
X440639Y125443D01*
X440602Y125332D01*
X440565Y125258D01*
Y125221D01*
X439436D01*
Y127628D01*
X439751Y127703D01*
X440028Y127758D01*
X440288Y127814D01*
X440528Y127851D01*
X440714Y127869D01*
X440843Y127888D01*
X440936Y127906D01*
X440973D01*
X441473Y127962D01*
X441713Y127980D01*
X441917D01*
X442102Y127999D01*
X442380D01*
X442843Y127980D01*
D02*
G37*
G36*
X413791Y127962D02*
X414216Y127888D01*
X414605Y127777D01*
X414939Y127647D01*
X415198Y127517D01*
X415309Y127462D01*
X415401Y127406D01*
X415476Y127369D01*
X415531Y127332D01*
X415550Y127295D01*
X415568D01*
X415901Y127017D01*
X416198Y126703D01*
X416438Y126369D01*
X416642Y126036D01*
X416790Y125740D01*
X416846Y125629D01*
X416901Y125518D01*
X416938Y125425D01*
X416975Y125351D01*
X416994Y125314D01*
Y125295D01*
X417160Y124777D01*
X417272Y124240D01*
X417364Y123703D01*
X417420Y123184D01*
X417438Y122962D01*
X417457Y122740D01*
Y122555D01*
X417475Y122388D01*
Y122259D01*
Y122166D01*
Y122092D01*
Y122073D01*
Y121703D01*
X417457Y121351D01*
X417438Y121018D01*
X417401Y120703D01*
X417364Y120407D01*
X417327Y120148D01*
X417272Y119888D01*
X417234Y119666D01*
X417197Y119463D01*
X417142Y119296D01*
X417105Y119129D01*
X417068Y119018D01*
X417031Y118907D01*
X417012Y118833D01*
X416994Y118796D01*
Y118778D01*
X416790Y118333D01*
X416586Y117944D01*
X416346Y117629D01*
X416142Y117370D01*
X415938Y117167D01*
X415790Y117037D01*
X415679Y116944D01*
X415661Y116926D01*
X415642D01*
X415290Y116741D01*
X414939Y116611D01*
X414568Y116500D01*
X414216Y116444D01*
X413920Y116407D01*
X413791Y116389D01*
X413679D01*
X413587Y116370D01*
X413457D01*
X413087Y116389D01*
X412735Y116444D01*
X412402Y116518D01*
X412087Y116611D01*
X411809Y116722D01*
X411550Y116852D01*
X411328Y116981D01*
X411106Y117130D01*
X410939Y117259D01*
X410772Y117389D01*
X410643Y117518D01*
X410532Y117629D01*
X410439Y117741D01*
X410383Y117815D01*
X410346Y117852D01*
X410328Y117870D01*
X410143Y118167D01*
X409976Y118500D01*
X409828Y118852D01*
X409698Y119203D01*
X409606Y119574D01*
X409513Y119944D01*
X409384Y120666D01*
X409347Y120999D01*
X409309Y121314D01*
X409291Y121611D01*
X409272Y121851D01*
X409254Y122055D01*
Y122203D01*
Y122296D01*
Y122333D01*
X409272Y122851D01*
X409291Y123333D01*
X409347Y123795D01*
X409421Y124203D01*
X409495Y124592D01*
X409569Y124944D01*
X409661Y125258D01*
X409754Y125536D01*
X409865Y125795D01*
X409958Y125999D01*
X410032Y126184D01*
X410106Y126332D01*
X410180Y126443D01*
X410235Y126536D01*
X410254Y126573D01*
X410272Y126592D01*
X410476Y126832D01*
X410698Y127055D01*
X410920Y127240D01*
X411161Y127406D01*
X411420Y127536D01*
X411680Y127647D01*
X411920Y127758D01*
X412161Y127832D01*
X412402Y127888D01*
X412605Y127925D01*
X412809Y127962D01*
X412976Y127980D01*
X413105Y127999D01*
X413309D01*
X413791Y127962D01*
D02*
G37*
%LPC*%
G36*
X363810Y341161D02*
X363755D01*
X363713D01*
X363685D01*
X363671D01*
X363408Y341147D01*
X363283Y341133D01*
X363172D01*
X363089Y341119D01*
X363020Y341105D01*
X362978Y341091D01*
X362964D01*
X362742Y341022D01*
X362645Y340980D01*
X362562Y340939D01*
X362493Y340897D01*
X362437Y340856D01*
X362409Y340842D01*
X362396Y340828D01*
X362243Y340662D01*
X362118Y340495D01*
X362077Y340426D01*
X362049Y340370D01*
X362021Y340329D01*
Y340315D01*
X361979Y340190D01*
X361952Y340051D01*
X361924Y339913D01*
X361910Y339788D01*
Y339677D01*
X361896Y339580D01*
Y338872D01*
X365363D01*
Y338956D01*
X365377Y339053D01*
Y339580D01*
X365363Y339857D01*
X365308Y340093D01*
X365239Y340301D01*
X365169Y340467D01*
X365086Y340592D01*
X365017Y340689D01*
X364961Y340745D01*
X364947Y340759D01*
X364767Y340897D01*
X364573Y340994D01*
X364365Y341064D01*
X364157Y341105D01*
X363963Y341147D01*
X363810Y341161D01*
D02*
G37*
G36*
X371266Y340551D02*
Y338304D01*
X374788Y339552D01*
X371266Y340551D01*
D02*
G37*
G36*
X360953Y332188D02*
Y329941D01*
X364476Y331189D01*
X360953Y332188D01*
D02*
G37*
G36*
X374123Y325365D02*
X374067D01*
X374026D01*
X373998D01*
X373984D01*
X373721Y325351D01*
X373596Y325337D01*
X373485D01*
X373401Y325323D01*
X373332Y325309D01*
X373291Y325295D01*
X373277D01*
X373055Y325226D01*
X372958Y325184D01*
X372874Y325143D01*
X372805Y325101D01*
X372750Y325060D01*
X372722Y325046D01*
X372708Y325032D01*
X372556Y324865D01*
X372431Y324699D01*
X372389Y324630D01*
X372361Y324574D01*
X372334Y324533D01*
Y324519D01*
X372292Y324394D01*
X372264Y324255D01*
X372237Y324117D01*
X372223Y323992D01*
Y323881D01*
X372209Y323784D01*
Y323076D01*
X375676D01*
Y323160D01*
X375690Y323257D01*
Y323784D01*
X375676Y324061D01*
X375620Y324297D01*
X375551Y324505D01*
X375482Y324671D01*
X375399Y324796D01*
X375329Y324893D01*
X375274Y324949D01*
X375260Y324963D01*
X375080Y325101D01*
X374885Y325198D01*
X374677Y325268D01*
X374469Y325309D01*
X374275Y325351D01*
X374123Y325365D01*
D02*
G37*
G36*
X374386Y317293D02*
X374331D01*
X374303D01*
X374095Y317279D01*
X373915Y317266D01*
X373762Y317238D01*
X373623Y317196D01*
X373526Y317155D01*
X373443Y317127D01*
X373401Y317113D01*
X373388Y317099D01*
X373277Y317030D01*
X373166Y316933D01*
X373069Y316849D01*
X372999Y316766D01*
X372944Y316683D01*
X372902Y316614D01*
X372874Y316572D01*
X372861Y316558D01*
X372805Y316420D01*
X372764Y316267D01*
X372722Y316101D01*
X372708Y315948D01*
X372694Y315809D01*
X372680Y315685D01*
Y314755D01*
X375648D01*
X375676Y315061D01*
Y315213D01*
X375690Y315338D01*
Y315795D01*
X375662Y315976D01*
X375648Y316128D01*
X375620Y316267D01*
X375593Y316378D01*
X375579Y316447D01*
X375551Y316503D01*
Y316517D01*
X375496Y316655D01*
X375426Y316766D01*
X375357Y316863D01*
X375288Y316947D01*
X375218Y317002D01*
X375177Y317044D01*
X375135Y317071D01*
X375121Y317085D01*
X374996Y317155D01*
X374872Y317210D01*
X374733Y317238D01*
X374594Y317266D01*
X374483Y317279D01*
X374386Y317293D01*
D02*
G37*
G36*
X370448Y317390D02*
X370364D01*
X370309D01*
X370295D01*
X370073Y317376D01*
X369865Y317363D01*
X369699Y317321D01*
X369546Y317279D01*
X369435Y317238D01*
X369352Y317210D01*
X369296Y317182D01*
X369283Y317169D01*
X369158Y317085D01*
X369047Y316988D01*
X368964Y316891D01*
X368894Y316794D01*
X368839Y316711D01*
X368797Y316642D01*
X368783Y316586D01*
X368769Y316572D01*
X368728Y316420D01*
X368686Y316267D01*
X368658Y316101D01*
X368645Y315948D01*
Y315809D01*
X368631Y315698D01*
Y315130D01*
X368645Y315005D01*
Y314755D01*
X371959D01*
Y315795D01*
X371945Y315948D01*
X371931Y316073D01*
X371918Y316184D01*
X371890Y316267D01*
X371876Y316336D01*
X371862Y316378D01*
Y316392D01*
X371779Y316614D01*
X371737Y316697D01*
X371682Y316780D01*
X371640Y316849D01*
X371599Y316891D01*
X371585Y316919D01*
X371571Y316933D01*
X371404Y317085D01*
X371238Y317196D01*
X371169Y317238D01*
X371113Y317266D01*
X371072Y317279D01*
X371058D01*
X370808Y317349D01*
X370683Y317363D01*
X370559Y317376D01*
X370448Y317390D01*
D02*
G37*
G36*
X688436Y53387D02*
X688373D01*
X688263Y53372D01*
X688153Y53356D01*
X687980Y53293D01*
X687917Y53246D01*
X687870Y53215D01*
X687838Y53199D01*
X687822Y53183D01*
X687728Y53105D01*
X687650Y52994D01*
X687508Y52790D01*
X687461Y52680D01*
X687430Y52601D01*
X687398Y52538D01*
Y52523D01*
X687335Y52334D01*
X687288Y52130D01*
X687241Y51909D01*
X687194Y51689D01*
X687162Y51501D01*
X687147Y51343D01*
Y51281D01*
X687131Y51234D01*
Y51218D01*
Y51202D01*
X687099Y50856D01*
X687068Y50510D01*
X687052Y50149D01*
Y49803D01*
X687036Y49520D01*
Y49378D01*
Y49284D01*
Y49190D01*
Y49127D01*
Y49079D01*
Y49064D01*
Y48749D01*
Y48466D01*
X687052Y48199D01*
Y47979D01*
X687068Y47790D01*
Y47649D01*
X687084Y47554D01*
Y47539D01*
Y47523D01*
X687099Y47287D01*
X687131Y47051D01*
X687147Y46863D01*
X687178Y46690D01*
X687209Y46564D01*
X687225Y46454D01*
X687241Y46391D01*
Y46375D01*
X687288Y46218D01*
X687335Y46061D01*
X687367Y45935D01*
X687414Y45841D01*
X687445Y45746D01*
X687477Y45683D01*
X687508Y45652D01*
Y45636D01*
X687634Y45448D01*
X687744Y45322D01*
X687838Y45259D01*
X687854Y45227D01*
X687870D01*
X688027Y45149D01*
X688184Y45117D01*
X688247Y45102D01*
X688341D01*
X688514Y45117D01*
X688671Y45165D01*
X688813Y45243D01*
X688923Y45322D01*
X689017Y45385D01*
X689080Y45463D01*
X689128Y45510D01*
X689143Y45526D01*
X689238Y45715D01*
X689332Y45919D01*
X689395Y46155D01*
X689458Y46375D01*
X689505Y46564D01*
X689536Y46737D01*
X689552Y46784D01*
X689568Y46831D01*
Y46863D01*
Y46878D01*
X689615Y47256D01*
X689646Y47664D01*
X689678Y48073D01*
X689694Y48466D01*
Y48655D01*
Y48828D01*
X689709Y48969D01*
Y49111D01*
Y49221D01*
Y49300D01*
Y49347D01*
Y49363D01*
Y49740D01*
X689694Y50070D01*
Y50369D01*
X689678Y50636D01*
X689662Y50840D01*
Y51013D01*
X689646Y51061D01*
Y51108D01*
Y51123D01*
Y51139D01*
X689615Y51406D01*
X689584Y51658D01*
X689536Y51862D01*
X689505Y52051D01*
X689473Y52193D01*
X689442Y52303D01*
X689426Y52381D01*
Y52397D01*
X689363Y52570D01*
X689301Y52727D01*
X689222Y52853D01*
X689159Y52963D01*
X689112Y53042D01*
X689065Y53089D01*
X689033Y53120D01*
X689017Y53136D01*
X688907Y53215D01*
X688797Y53277D01*
X688703Y53325D01*
X688593Y53356D01*
X688499Y53372D01*
X688436Y53387D01*
D02*
G37*
G36*
X361129Y126888D02*
X360241D01*
X360018Y126851D01*
X359815Y126814D01*
X359648Y126777D01*
X359518Y126740D01*
X359407Y126703D01*
X359352Y126684D01*
X359333Y126666D01*
X359166Y126573D01*
X359018Y126462D01*
X358907Y126332D01*
X358815Y126221D01*
X358722Y126110D01*
X358666Y126018D01*
X358648Y125943D01*
X358629Y125925D01*
X358555Y125721D01*
X358481Y125499D01*
X358444Y125277D01*
X358426Y125055D01*
X358407Y124851D01*
X358389Y124703D01*
Y124592D01*
Y124573D01*
Y124555D01*
X358407Y124240D01*
X358426Y123962D01*
X358463Y123740D01*
X358500Y123536D01*
X358555Y123370D01*
X358592Y123259D01*
X358611Y123184D01*
X358629Y123166D01*
X358722Y122981D01*
X358852Y122833D01*
X358963Y122703D01*
X359092Y122592D01*
X359203Y122518D01*
X359296Y122462D01*
X359352Y122425D01*
X359370Y122407D01*
X359555Y122333D01*
X359777Y122277D01*
X360000Y122240D01*
X360203Y122222D01*
X360389Y122203D01*
X360555Y122185D01*
X361407D01*
Y126869D01*
X361277D01*
X361129Y126888D01*
D02*
G37*
G36*
X413439Y127055D02*
X413365D01*
X413235Y127036D01*
X413105Y127017D01*
X412902Y126943D01*
X412828Y126888D01*
X412772Y126851D01*
X412735Y126832D01*
X412716Y126814D01*
X412605Y126721D01*
X412513Y126592D01*
X412346Y126351D01*
X412291Y126221D01*
X412254Y126129D01*
X412216Y126055D01*
Y126036D01*
X412142Y125814D01*
X412087Y125573D01*
X412031Y125314D01*
X411976Y125055D01*
X411939Y124832D01*
X411920Y124647D01*
Y124573D01*
X411902Y124518D01*
Y124499D01*
Y124481D01*
X411865Y124073D01*
X411828Y123666D01*
X411809Y123240D01*
Y122833D01*
X411791Y122499D01*
Y122333D01*
Y122222D01*
Y122111D01*
Y122037D01*
Y121981D01*
Y121962D01*
Y121592D01*
Y121259D01*
X411809Y120944D01*
Y120685D01*
X411828Y120463D01*
Y120296D01*
X411846Y120185D01*
Y120166D01*
Y120148D01*
X411865Y119870D01*
X411902Y119592D01*
X411920Y119370D01*
X411957Y119166D01*
X411994Y119018D01*
X412013Y118889D01*
X412031Y118815D01*
Y118796D01*
X412087Y118611D01*
X412142Y118426D01*
X412179Y118278D01*
X412235Y118167D01*
X412272Y118055D01*
X412309Y117981D01*
X412346Y117944D01*
Y117926D01*
X412494Y117704D01*
X412624Y117555D01*
X412735Y117481D01*
X412753Y117444D01*
X412772D01*
X412957Y117352D01*
X413142Y117315D01*
X413216Y117296D01*
X413327D01*
X413531Y117315D01*
X413716Y117370D01*
X413883Y117463D01*
X414013Y117555D01*
X414124Y117629D01*
X414198Y117722D01*
X414253Y117778D01*
X414272Y117796D01*
X414383Y118018D01*
X414494Y118259D01*
X414568Y118537D01*
X414642Y118796D01*
X414698Y119018D01*
X414735Y119222D01*
X414753Y119277D01*
X414772Y119333D01*
Y119370D01*
Y119389D01*
X414827Y119833D01*
X414864Y120314D01*
X414902Y120796D01*
X414920Y121259D01*
Y121481D01*
Y121685D01*
X414939Y121851D01*
Y122018D01*
Y122148D01*
Y122240D01*
Y122296D01*
Y122314D01*
Y122759D01*
X414920Y123147D01*
Y123499D01*
X414902Y123814D01*
X414883Y124055D01*
Y124258D01*
X414864Y124314D01*
Y124370D01*
Y124388D01*
Y124407D01*
X414827Y124721D01*
X414790Y125018D01*
X414735Y125258D01*
X414698Y125480D01*
X414661Y125647D01*
X414624Y125777D01*
X414605Y125869D01*
Y125888D01*
X414531Y126092D01*
X414457Y126277D01*
X414365Y126425D01*
X414290Y126554D01*
X414235Y126647D01*
X414179Y126703D01*
X414142Y126740D01*
X414124Y126758D01*
X413994Y126851D01*
X413865Y126925D01*
X413753Y126980D01*
X413624Y127017D01*
X413513Y127036D01*
X413439Y127055D01*
D02*
G37*
%LPD*%
D59*
X395941Y152485D02*
X396207Y151429D01*
X410636Y161205D02*
X411120Y162640D01*
X409826Y163601D02*
X410903Y164366D01*
X394355Y152617D02*
X394709Y152613D01*
X395643Y152604D01*
X396963Y152589D01*
X398476Y152572D01*
X399990Y152556D01*
X401310Y152541D01*
X402244Y152531D01*
X402598Y152527D01*
X402713Y152186D01*
X403014Y151286D01*
X403441Y150014D01*
X403929Y148556D01*
X404418Y147098D01*
X404844Y145826D01*
X405260Y144586D01*
X405640Y145817D01*
X406030Y147080D01*
X406476Y148528D01*
X406923Y149976D01*
X407313Y151239D01*
X407588Y152133D01*
X407692Y152472D01*
X407762Y152679D01*
X407947Y153226D01*
X408207Y153999D01*
X408506Y154885D01*
X408805Y155772D01*
X409066Y156545D01*
X409250Y157092D01*
X409320Y157299D01*
X409433Y157635D01*
X409731Y158520D01*
X410153Y159771D01*
X410636Y161205D01*
X411120Y162640D02*
X411541Y163891D01*
X411840Y164776D01*
X411953Y165111D01*
X411664Y164907D02*
X411953Y165111D01*
X410903Y164366D02*
X411664Y164907D01*
X408592Y162725D02*
X409826Y163601D01*
X407358Y161849D02*
X408592Y162725D01*
X406281Y161085D02*
X407358Y161849D01*
X405520Y160544D02*
X406281Y161085D01*
X405231Y160339D02*
X405520Y160544D01*
X404947Y160550D02*
X405231Y160339D01*
X404198Y161108D02*
X404947Y160550D01*
X403138Y161895D02*
X404198Y161108D01*
X401923Y162798D02*
X403138Y161895D01*
X400709Y163701D02*
X401923Y162798D01*
X399649Y164488D02*
X400709Y163701D01*
X398900Y165045D02*
X399649Y164488D01*
X398615Y165256D02*
X398900Y165045D01*
X398615Y165256D02*
X398721Y164918D01*
X399000Y164028D01*
X399394Y162767D01*
X399846Y161323D01*
X400298Y159879D01*
X400692Y158618D01*
X400971Y157728D01*
X401077Y157389D01*
X400788Y157185D02*
X401077Y157389D01*
X400027Y156644D02*
X400788Y157185D01*
X398950Y155879D02*
X400027Y156644D01*
X397716Y155003D02*
X398950Y155879D01*
X396482Y154127D02*
X397716Y155003D01*
X395405Y153363D02*
X396482Y154127D01*
X394644Y152822D02*
X395405Y153363D01*
X394355Y152617D02*
X394644Y152822D01*
X384418Y159965D02*
Y159969D01*
Y159965D02*
X385012Y159967D01*
X386793Y159974D01*
X388848Y159980D01*
X390770Y159984D01*
X392251Y159985D01*
X392744D01*
X392900D01*
X393311D01*
X393892D01*
X394558D01*
X395224D01*
X395806D01*
X396216D01*
X396372D01*
X396783D01*
X397687D01*
X398590D01*
X399001D01*
X399171D01*
X400000Y160000D01*
X399680Y159984D02*
X400000Y160000D01*
X395400Y153984D02*
X395500Y153750D01*
X395311Y154267D02*
X395500Y153750D01*
X395219Y154556D02*
X395311Y154267D01*
X395113Y154888D02*
X395219Y154556D01*
X395008Y155219D02*
X395113Y154888D01*
X394916Y155509D02*
X395008Y155219D01*
X394851Y155713D02*
X394916Y155509D01*
X394826Y155791D02*
X394851Y155713D01*
X393431Y155791D02*
X394826D01*
X393045D02*
X393431D01*
X392029Y155782D02*
X393045Y155791D01*
X391885Y155781D02*
X392029Y155782D01*
X391743Y155779D02*
X391885Y155781D01*
X390618Y155770D02*
X391743Y155779D01*
X390243Y155770D02*
X390618D01*
X389897D02*
X390243D01*
X388959Y155761D02*
X389897Y155770D01*
X388858Y155759D02*
X388959Y155761D01*
X388759Y155757D02*
X388858Y155759D01*
X388365Y155751D02*
X388759Y155757D01*
X388155Y155748D02*
X388365Y155751D01*
X388085Y155748D02*
X388155D01*
X388016D02*
X388085D01*
X387835Y155668D02*
X388016Y155748D01*
X387806Y155651D02*
X387835Y155668D01*
X387778Y155636D02*
X387806Y155651D01*
X387689Y155484D02*
X387778Y155636D01*
X387689Y155484D02*
X387699Y155469D01*
X387792Y155169D01*
X388651Y152467D01*
X388729Y152227D01*
X388762Y152124D01*
X389093Y151113D01*
X389126Y151014D01*
X389161Y150916D01*
X389465Y150022D01*
X389492Y149941D01*
X389519Y149861D01*
X389742Y149199D01*
X389760Y149147D01*
X389778Y149095D01*
X389846Y148903D01*
X389885Y148800D01*
X389889Y148793D01*
X389907Y148757D01*
X390193Y148444D01*
X390232Y148417D01*
X390272Y148390D01*
X390597Y148256D01*
X390705D01*
X390984D01*
X391718D01*
X392757D01*
X393946D01*
X395137D01*
X396175D01*
X396910D01*
X397188D01*
X397138Y148418D02*
X397188Y148256D01*
X397006Y148844D02*
X397138Y148418D01*
X396820Y149446D02*
X397006Y148844D01*
X396606Y150136D02*
X396820Y149446D01*
X396393Y150827D02*
X396606Y150136D01*
X396207Y151429D02*
X396393Y150827D01*
X402991Y144585D02*
X403868D01*
X401855D02*
X402991D01*
X400511D02*
X401855D01*
X399010D02*
X400511D01*
X397406D02*
X399010D01*
X395749D02*
X397406D01*
X394092D02*
X395749D01*
X392487D02*
X394092D01*
X390987D02*
X392487D01*
X389642D02*
X390987D01*
X388506D02*
X389642D01*
X387630D02*
X388506D01*
X387066D02*
X387630D01*
X386867D02*
X387066D01*
X386867D02*
X386867Y144587D01*
X386871Y144607D01*
Y144609D01*
X386627Y144641D02*
X386871Y144609D01*
X385923Y144958D02*
X386627Y144641D01*
X385183Y145610D02*
X385923Y144958D01*
X384636Y146393D02*
X385183Y145610D01*
X384352Y146942D02*
X384636Y146393D01*
X384272Y147131D02*
X384352Y146942D01*
X384271Y147130D02*
X384272Y147131D01*
X384258Y147121D02*
X384271Y147130D01*
X384257Y147120D02*
X384258Y147121D01*
X384247Y147148D02*
X384257Y147120D01*
X384157Y147420D02*
X384247Y147148D01*
X384147Y147447D02*
X384157Y147420D01*
X384129Y147499D02*
X384147Y147447D01*
X384063Y147695D02*
X384129Y147499D01*
X384035Y147786D02*
X384063Y147695D01*
X383929Y148103D02*
X384035Y147786D01*
X382957Y151036D02*
X383929Y148103D01*
X382869Y151304D02*
X382957Y151036D01*
X382823Y151444D02*
X382869Y151304D01*
X382375Y152812D02*
X382823Y151444D01*
X382332Y152946D02*
X382375Y152812D01*
X382289Y153081D02*
X382332Y152946D01*
X381896Y154306D02*
X382289Y153081D01*
X381860Y154417D02*
X381896Y154306D01*
X381844Y154464D02*
X381860Y154417D01*
X381705Y154903D02*
X381844Y154464D01*
X381692Y154943D02*
X381705Y154903D01*
X381677Y154987D02*
X381692Y154943D01*
X381526Y155453D02*
X381677Y154987D01*
X381510Y155503D02*
X381526Y155453D01*
X381409Y155835D02*
X381510Y155503D01*
X381277Y156879D02*
X381409Y155835D01*
X381277Y156879D02*
X381438Y157941D01*
X381881Y158729D01*
X382496Y159283D01*
X383169Y159643D01*
X383788Y159851D01*
X384243Y159947D01*
X384418Y159969D01*
X422677Y157668D02*
X422732Y157486D01*
X422054Y159656D02*
X422677Y157668D01*
X421984Y159872D02*
X422054Y159656D01*
X421984Y159868D02*
Y159872D01*
Y159868D02*
X422056Y159856D01*
X422217Y159850D01*
X422270D01*
X422387D01*
X422644D01*
X422901D01*
X423018D01*
X423183D01*
X423545D01*
X423908D01*
X424073D01*
X424263D01*
X424678D01*
X425094D01*
X425283D01*
X426102D01*
X428256Y159869D01*
X428559Y159872D01*
X428610Y159700D01*
X428754Y159211D01*
X428976Y158452D01*
X429264Y157467D01*
X429605Y156302D01*
X429986Y155002D01*
X430393Y153611D01*
X430814Y152176D01*
X431234Y150740D01*
X431641Y149350D01*
X432022Y148049D01*
X432363Y146885D01*
X432652Y145900D01*
X432874Y145141D01*
X433017Y144652D01*
X433067Y144479D01*
X432793D02*
X433067D01*
X432071D02*
X432793D01*
X431050D02*
X432071D01*
X429879D02*
X431050D01*
X428708D02*
X429879D01*
X427687D02*
X428708D01*
X426964D02*
X427687D01*
X426690D02*
X426964D01*
X426474Y145201D02*
X426690Y144479D01*
X425453Y148575D02*
X426474Y145201D01*
X424513Y151633D02*
X425453Y148575D01*
X424337Y152198D02*
X424513Y151633D01*
X424264Y152440D02*
X424337Y152198D01*
X423550Y154794D02*
X424264Y152440D01*
X423480Y155023D02*
X423550Y154794D01*
X423410Y155253D02*
X423480Y155023D01*
X422787Y157305D02*
X423410Y155253D01*
X422732Y157486D02*
X422787Y157305D01*
X372663Y157668D02*
X372718Y157486D01*
X372040Y159656D02*
X372663Y157668D01*
X371970Y159872D02*
X372040Y159656D01*
X371970Y159868D02*
Y159872D01*
Y159868D02*
X372041Y159856D01*
X372202Y159850D01*
X372255D01*
X372372D01*
X372629D01*
X372886D01*
X373003D01*
X373168D01*
X373531D01*
X373894D01*
X374059D01*
X374248D01*
X374664D01*
X375079D01*
X375268D01*
X376087D01*
X378241Y159869D01*
X378545Y159872D01*
X378596Y159700D01*
X378739Y159211D01*
X378961Y158452D01*
X379250Y157467D01*
X379591Y156302D01*
X379972Y155002D01*
X380379Y153611D01*
X380799Y152176D01*
X381219Y150740D01*
X381626Y149350D01*
X382007Y148049D01*
X382349Y146885D01*
X382637Y145900D01*
X382859Y145141D01*
X383002Y144652D01*
X383053Y144479D01*
X382779D02*
X383053D01*
X382057D02*
X382779D01*
X381035D02*
X382057D01*
X379864D02*
X381035D01*
X378694D02*
X379864D01*
X377672D02*
X378694D01*
X376950D02*
X377672D01*
X376676D02*
X376950D01*
X376460Y145201D02*
X376676Y144479D01*
X375439Y148575D02*
X376460Y145201D01*
X374499Y151633D02*
X375439Y148575D01*
X374322Y152198D02*
X374499Y151633D01*
X374249Y152440D02*
X374322Y152198D01*
X373534Y154794D02*
X374249Y152440D01*
X373465Y155023D02*
X373534Y154794D01*
X373395Y155253D02*
X373465Y155023D01*
X372773Y157305D02*
X373395Y155253D01*
X372718Y157486D02*
X372773Y157305D01*
X413474Y159872D02*
X413769D01*
X414546D01*
X415645D01*
X416904D01*
X418164D01*
X419263D01*
X420040D01*
X420335D01*
X420366Y159762D01*
X420455Y159448D01*
X420592Y158961D01*
X420770Y158329D01*
X420981Y157582D01*
X421217Y156747D01*
X421469Y155855D01*
X421728Y154934D01*
X421988Y154013D01*
X422239Y153120D01*
X422475Y152286D01*
X422686Y151538D01*
X422864Y150907D01*
X423002Y150420D01*
X423090Y150106D01*
X423121Y149995D01*
X423158Y149880D01*
X423247Y149563D01*
X423361Y149086D01*
X423470Y148493D01*
X423547Y147825D01*
X423561Y147127D01*
X423485Y146439D02*
X423561Y147127D01*
X423357Y145956D02*
X423485Y146439D01*
X423289Y145806D02*
X423357Y145956D01*
X423287Y145799D02*
X423289Y145806D01*
X423251Y145728D02*
X423287Y145799D01*
X423247Y145720D02*
X423251Y145728D01*
X423241Y145708D02*
X423247Y145720D01*
X423172Y145583D02*
X423241Y145708D01*
X423164Y145570D02*
X423172Y145583D01*
X423162Y145565D02*
X423164Y145570D01*
X423131Y145516D02*
X423162Y145565D01*
X423128Y145510D02*
X423131Y145516D01*
X423066Y145416D02*
X423128Y145510D01*
X422664Y145019D02*
X423066Y145416D01*
X422118Y144744D02*
X422664Y145019D01*
X421984Y144711D02*
X422118Y144744D01*
X421977Y144710D02*
X421984Y144711D01*
X421908Y144694D02*
X421977Y144710D01*
X421900Y144693D02*
X421908Y144694D01*
X421857Y144681D02*
X421900Y144693D01*
X421382Y144581D02*
X421857Y144681D01*
X421329Y144574D02*
X421382Y144581D01*
X421271Y144559D02*
X421329Y144574D01*
X420788Y144479D02*
X421271Y144559D01*
X420626Y144479D02*
X420788D01*
X420559D02*
X420626D01*
X420411D02*
X420559D01*
X420262D02*
X420411D01*
X420194D02*
X420262D01*
X420132Y144476D02*
X420194Y144479D01*
X419946Y144464D02*
X420132Y144476D01*
X419857Y144460D02*
X419946Y144464D01*
X419809Y144465D02*
X419857Y144460D01*
X419718Y144476D02*
X419809Y144465D01*
X419687Y144479D02*
X419718Y144476D01*
X419532Y144479D02*
X419687D01*
X419092D02*
X419532D01*
X418408D02*
X419092D01*
X417522D02*
X418408D01*
X416472D02*
X417522D01*
X415301D02*
X416472D01*
X414049D02*
X415301D01*
X412755D02*
X414049D01*
X411463D02*
X412755D01*
X410210D02*
X411463D01*
X409039D02*
X410210D01*
X407990D02*
X409039D01*
X407103D02*
X407990D01*
X406420D02*
X407103D01*
X405979D02*
X406420D01*
X405824D02*
X405979D01*
X405824D02*
X405875Y144633D01*
X406010Y145039D01*
X406199Y145614D01*
X406418Y146272D01*
X406636Y146930D01*
X406826Y147505D01*
X406961Y147911D01*
X407012Y148065D01*
X407451Y148068D01*
X408609Y148075D01*
X410246Y148085D01*
X412123Y148097D01*
X414000Y148109D01*
X415637Y148119D01*
X416795Y148126D01*
X417234Y148129D01*
X417192Y148261D02*
X417234Y148129D01*
X417073Y148634D02*
X417192Y148261D01*
X416887Y149213D02*
X417073Y148634D01*
X416647Y149965D02*
X416887Y149213D01*
X416362Y150853D02*
X416647Y149965D01*
X416044Y151845D02*
X416362Y150853D01*
X415705Y152906D02*
X416044Y151845D01*
X415354Y154001D02*
X415705Y152906D01*
X415004Y155096D02*
X415354Y154001D01*
X414664Y156157D02*
X415004Y155096D01*
X414346Y157149D02*
X414664Y156157D01*
X414061Y158038D02*
X414346Y157149D01*
X413821Y158789D02*
X414061Y158038D01*
X413635Y159368D02*
X413821Y158789D01*
X413516Y159740D02*
X413635Y159368D01*
X413474Y159872D02*
X413516Y159740D01*
X349101Y159916D02*
X349243D01*
X349642D01*
X350263D01*
X351067D01*
X352019D01*
X353082D01*
X354218D01*
X355391D01*
X356564D01*
X357701D01*
X358763D01*
X359715D01*
X360520D01*
X361140D01*
X361539D01*
X361680D01*
X362081D01*
X363140D01*
X364635D01*
X366350D01*
X368064D01*
X369560D01*
X370618D01*
X371019D01*
X371031Y159872D01*
X371138D01*
X371244D01*
X371125Y159826D02*
X371244Y159872D01*
X370789Y159694D02*
X371125Y159826D01*
X370266Y159489D02*
X370789Y159694D01*
X369588Y159224D02*
X370266Y159489D01*
X368785Y158910D02*
X369588Y159224D01*
X367889Y158559D02*
X368785Y158910D01*
X366932Y158184D02*
X367889Y158559D01*
X365943Y157796D02*
X366932Y158184D01*
X364954Y157409D02*
X365943Y157796D01*
X363997Y157034D02*
X364954Y157409D01*
X363101Y156683D02*
X363997Y157034D01*
X362299Y156369D02*
X363101Y156683D01*
X361620Y156104D02*
X362299Y156369D01*
X361097Y155899D02*
X361620Y156104D01*
X360761Y155767D02*
X361097Y155899D01*
X360642Y155720D02*
X360761Y155767D01*
X360634Y155720D02*
X360642Y155720D01*
X360634Y155720D02*
X360795Y155594D01*
X361251Y155237D01*
X361960Y154682D01*
X362879Y153964D01*
X363966Y153113D01*
X365180Y152163D01*
X366478Y151148D01*
X367818Y150100D01*
X369158Y149051D01*
X370456Y148036D01*
X371670Y147086D01*
X372757Y146236D01*
X373676Y145517D01*
X374385Y144962D01*
X374841Y144605D01*
X375002Y144479D01*
X374720D02*
X375002D01*
X373922Y144479D02*
X374720Y144479D01*
X372683Y144477D02*
X373922Y144479D01*
X371075Y144476D02*
X372683Y144477D01*
X369172Y144475D02*
X371075Y144476D01*
X367048Y144473D02*
X369172Y144475D01*
X364778Y144471D02*
X367048Y144473D01*
X362434Y144470D02*
X364778Y144471D01*
X360089Y144468D02*
X362434Y144470D01*
X357819Y144466D02*
X360089Y144468D01*
X355695Y144465D02*
X357819Y144466D01*
X353793Y144463D02*
X355695Y144465D01*
X352185Y144462D02*
X353793Y144463D01*
X350945Y144461D02*
X352185Y144462D01*
X350148Y144461D02*
X350945Y144461D01*
X349865Y144460D02*
X350148Y144461D01*
X349865Y144460D02*
X350013Y144504D01*
X350431Y144627D01*
X351081Y144817D01*
X351923Y145065D01*
X352919Y145357D01*
X354032Y145684D01*
X355222Y146034D01*
X356450Y146395D01*
X357678Y146755D01*
X358868Y147105D01*
X359980Y147432D01*
X360977Y147724D01*
X361819Y147972D01*
X362468Y148163D01*
X362887Y148285D01*
X363034Y148329D01*
X362878Y148459D02*
X363034Y148329D01*
X362436Y148827D02*
X362878Y148459D01*
X361749Y149399D02*
X362436Y148827D01*
X360858Y150140D02*
X361749Y149399D01*
X359803Y151017D02*
X360858Y150140D01*
X358626Y151995D02*
X359803Y151017D01*
X357368Y153042D02*
X358626Y151995D01*
X356068Y154122D02*
X357368Y153042D01*
X354769Y155203D02*
X356068Y154122D01*
X353510Y156250D02*
X354769Y155203D01*
X352333Y157229D02*
X353510Y156250D01*
X351279Y158106D02*
X352333Y157229D01*
X350387Y158847D02*
X351279Y158106D01*
X349700Y159419D02*
X350387Y158847D01*
X349258Y159787D02*
X349700Y159419D01*
X349101Y159916D02*
X349258Y159787D01*
X442243Y158190D02*
X442258Y158239D01*
X442292Y158346D01*
X442326Y158453D01*
X442341Y158501D01*
X442352Y158542D01*
X442535Y158954D01*
X442561Y158996D01*
X442587Y159038D01*
X442889Y159414D01*
X442924Y159447D01*
X442959Y159480D01*
X443353Y159746D01*
X443397Y159766D01*
X443441Y159786D01*
X443804Y159887D01*
X443925D01*
X444272D01*
X445189D01*
X446484D01*
X447969D01*
X449454D01*
X450750D01*
X451666D01*
X452013D01*
X451889Y159784D02*
X452013Y159887D01*
X451535Y159494D02*
X451889Y159784D01*
X450985Y159043D02*
X451535Y159494D01*
X450272Y158458D02*
X450985Y159043D01*
X449429Y157766D02*
X450272Y158458D01*
X448487Y156993D02*
X449429Y157766D01*
X447480Y156166D02*
X448487Y156993D01*
X446440Y155313D02*
X447480Y156166D01*
X445401Y154460D02*
X446440Y155313D01*
X444394Y153634D02*
X445401Y154460D01*
X443453Y152861D02*
X444394Y153634D01*
X442609Y152168D02*
X443453Y152861D01*
X441896Y151583D02*
X442609Y152168D01*
X441347Y151132D02*
X441896Y151583D01*
X440993Y150842D02*
X441347Y151132D01*
X440867Y150739D02*
X440993Y150842D01*
X440867Y150739D02*
X440927Y151059D01*
X441083Y151903D01*
X441303Y153097D01*
X441555Y154464D01*
X441808Y155833D01*
X442028Y157026D01*
X442184Y157870D01*
X442243Y158190D01*
X438282Y159887D02*
X438326Y159647D01*
X438448Y158969D01*
X438638Y157916D01*
X438883Y156550D01*
X439175Y154934D01*
X439500Y153130D01*
X439847Y151201D01*
X440205Y149209D01*
X440564Y147218D01*
X440911Y145288D01*
X441236Y143484D01*
X441528Y141868D01*
X441773Y140502D01*
X441963Y139449D01*
X442085Y138771D01*
X442128Y138531D01*
X441994Y138771D02*
X442128Y138531D01*
X441613Y139449D02*
X441994Y138771D01*
X441021Y140502D02*
X441613Y139449D01*
X440253Y141868D02*
X441021Y140502D01*
X439344Y143484D02*
X440253Y141868D01*
X438330Y145288D02*
X439344Y143484D01*
X437246Y147218D02*
X438330Y145288D01*
X436126Y149209D02*
X437246Y147218D01*
X435006Y151201D02*
X436126Y149209D01*
X433922Y153130D02*
X435006Y151201D01*
X432908Y154934D02*
X433922Y153130D01*
X432000Y156550D02*
X432908Y154934D01*
X431231Y157916D02*
X432000Y156550D01*
X430640Y158969D02*
X431231Y157916D01*
X430259Y159647D02*
X430640Y158969D01*
X430124Y159887D02*
X430259Y159647D01*
X430124Y159887D02*
X430475D01*
X431399D01*
X432706D01*
X434203D01*
X435701D01*
X437008D01*
X437932D01*
X438282D01*
X403868Y144585D02*
X404431D01*
X405150D01*
D60*
X421531Y142087D02*
X421544Y142281D01*
X421503Y141658D02*
X421531Y142087D01*
X421474Y141230D02*
X421503Y141658D01*
X421460Y141035D02*
X421474Y141230D01*
X421460Y141035D02*
X421544D01*
X421573Y141128D01*
X421748Y141516D01*
X421972Y141800D01*
X422023Y141841D01*
X422075Y141882D01*
X422365Y142026D01*
X422668Y142087D01*
X422769D01*
X422934D01*
X423380Y141932D01*
X423429Y141901D01*
X423478Y141871D01*
X423692Y141662D01*
X423864Y141378D01*
X423893Y141311D01*
X423921Y141243D01*
X424020Y140856D01*
X424062Y140441D01*
Y140302D02*
Y140441D01*
Y140186D02*
Y140302D01*
X424022Y139838D02*
X424062Y140186D01*
X423929Y139501D02*
X424022Y139838D01*
X423902Y139439D02*
X423929Y139501D01*
X423876Y139379D02*
X423902Y139439D01*
X423703Y139117D02*
X423876Y139379D01*
X423476Y138912D02*
X423703Y139117D01*
X423422Y138879D02*
X423476Y138912D01*
X423369Y138847D02*
X423422Y138879D01*
X423079Y138734D02*
X423369Y138847D01*
X422788Y138685D02*
X423079Y138734D01*
X422691Y138685D02*
X422788D01*
X422533D02*
X422691D01*
X422106Y138813D02*
X422533Y138685D01*
X422060Y138838D02*
X422106Y138813D01*
X422015Y138863D02*
X422060Y138838D01*
X421775Y139066D02*
X422015Y138863D01*
X421515Y139369D02*
X421775Y139066D01*
X421460Y139445D02*
X421515Y139369D01*
X421419Y139418D02*
X421460Y139445D01*
X421376Y139390D02*
X421419Y139418D01*
X421376Y139390D02*
X421422Y139309D01*
X421676Y138967D01*
X421959Y138712D01*
X422020Y138674D01*
X422081Y138637D01*
X422423Y138505D01*
X422776Y138448D01*
X422893D01*
X423096D01*
X423702Y138616D01*
X424222Y139011D01*
X424305Y139123D01*
X424367Y139207D01*
X424585Y139671D01*
X424678Y140148D01*
Y140307D01*
Y140439D01*
X424617Y140834D02*
X424678Y140439D01*
X424473Y141240D02*
X424617Y140834D01*
X424432Y141316D02*
X424473Y141240D01*
X424391Y141393D02*
X424432Y141316D01*
X424140Y141725D02*
X424391Y141393D01*
X423827Y141987D02*
X424140Y141725D01*
X423755Y142028D02*
X423827Y141987D01*
X423683Y142071D02*
X423755Y142028D01*
X423304Y142218D02*
X423683Y142071D01*
X422936Y142281D02*
X423304Y142218D01*
X422812Y142281D02*
X422936D01*
X422617D02*
X422812D01*
X422093Y142120D02*
X422617Y142281D01*
X422029Y142087D02*
X422093Y142120D01*
X422009Y142077D02*
X422029Y142087D01*
X421902Y142027D02*
X422009Y142077D01*
X421866Y142027D02*
X421902D01*
X421835D02*
X421866D01*
X421748Y142070D02*
X421835Y142027D01*
X421739Y142079D02*
X421748Y142070D01*
X421727Y142091D02*
X421739Y142079D01*
X421644Y142260D02*
X421727Y142091D01*
X421639Y142281D02*
X421644Y142260D01*
X421592Y142281D02*
X421639D01*
X421544D02*
X421592D01*
X419330Y140905D02*
X419403D01*
X419595Y140834D01*
X419618Y140820D01*
X419643Y140806D01*
X419838Y140557D01*
X419852Y140521D01*
X419868Y140486D01*
X419941Y140101D01*
Y139972D02*
Y140101D01*
Y139846D02*
Y139972D01*
X419888Y139469D02*
X419941Y139846D01*
X419762Y139105D02*
X419888Y139469D01*
X419726Y139039D02*
X419762Y139105D01*
X419691Y138974D02*
X419726Y139039D01*
X419477Y138745D02*
X419691Y138974D01*
X419240Y138647D02*
X419477Y138745D01*
X419160Y138647D02*
X419240D01*
X419100D02*
X419160D01*
X418921Y138701D02*
X419100Y138647D01*
X418756Y138828D02*
X418921Y138701D01*
X418728Y138864D02*
X418756Y138828D01*
X418699Y138900D02*
X418728Y138864D01*
X418600Y139158D02*
X418699Y138900D01*
X418557Y139495D02*
X418600Y139158D01*
X418557Y139495D02*
Y139607D01*
Y139755D01*
X418628Y140197D01*
X418794Y140583D01*
X418841Y140645D01*
X418873Y140689D01*
X419060Y140840D01*
X419263Y140905D01*
X419330D01*
X419120Y141081D02*
X419247D01*
X418740Y140974D02*
X419120Y141081D01*
X418401Y140725D02*
X418740Y140974D01*
X418344Y140653D02*
X418401Y140725D01*
X418295Y140593D02*
X418344Y140653D01*
X418126Y140262D02*
X418295Y140593D01*
X418054Y139927D02*
X418126Y140262D01*
X418054Y139815D02*
Y139927D01*
Y139647D02*
Y139815D01*
Y139647D02*
X418187Y139199D01*
X418213Y139142D01*
X418240Y139086D01*
X418403Y138844D01*
X418607Y138658D01*
X418653Y138628D01*
X418700Y138600D01*
X419132Y138455D01*
X419276D01*
X419402D01*
X419779Y138567D01*
X420111Y138827D01*
X420166Y138901D01*
X420213Y138964D01*
X420375Y139300D01*
X420444Y139634D01*
Y139745D01*
Y139915D01*
X420304Y140366D02*
X420444Y139915D01*
X420276Y140422D02*
X420304Y140366D01*
X420247Y140479D02*
X420276Y140422D01*
X420080Y140715D02*
X420247Y140479D01*
X419877Y140893D02*
X420080Y140715D01*
X419831Y140920D02*
X419877Y140893D01*
X419785Y140947D02*
X419831Y140920D01*
X419381Y141081D02*
X419785Y140947D01*
X419247Y141081D02*
X419381D01*
X416341Y140644D02*
X416413Y140556D01*
X415988Y140950D02*
X416341Y140644D01*
X415685Y141081D02*
X415988Y140950D01*
X415583Y141081D02*
X415685D01*
X415496D02*
X415583D01*
X415259Y140996D02*
X415496Y141081D01*
X415234Y140980D02*
X415259Y140996D01*
X415210Y140963D02*
X415234Y140980D01*
X415017Y140684D02*
X415210Y140963D01*
X415002Y140645D02*
X415017Y140684D01*
X414992Y140619D02*
X415002Y140645D01*
X414942Y140266D02*
X414992Y140619D01*
X414942Y140148D02*
Y140266D01*
Y139983D02*
Y140148D01*
Y139620D02*
Y139983D01*
Y139256D02*
Y139620D01*
Y139090D02*
Y139256D01*
Y139011D02*
Y139090D01*
X414911Y138786D02*
X414942Y139011D01*
X414904Y138771D02*
X414911Y138786D01*
X414900Y138761D02*
X414904Y138771D01*
X414820Y138673D02*
X414900Y138761D01*
X414808Y138666D02*
X414820Y138673D01*
X414798Y138660D02*
X414808Y138666D01*
X414622Y138628D02*
X414798Y138660D01*
X414564Y138628D02*
X414622D01*
X414564Y138580D02*
Y138628D01*
Y138531D02*
Y138580D01*
Y138531D02*
X414755D01*
X415176D01*
X415598D01*
X415789D01*
Y138580D01*
Y138628D01*
X415737D02*
X415789D01*
X415677D02*
X415737D01*
X415507Y138672D02*
X415677Y138628D01*
X415495Y138681D02*
X415507Y138672D01*
X415484Y138690D02*
X415495Y138681D01*
X415404Y138820D02*
X415484Y138690D01*
X415399Y138837D02*
X415404Y138820D01*
X415397Y138844D02*
X415399Y138837D01*
X415388Y139029D02*
X415397Y138844D01*
X415388Y139029D02*
Y139090D01*
Y139249D01*
Y139598D01*
Y139946D01*
Y140105D01*
Y140228D01*
X415462Y140570D01*
X415476Y140596D01*
X415491Y140621D01*
X415703Y140749D01*
X415773D01*
X415853D01*
X416094Y140661D01*
X416360Y140456D01*
X416413Y140397D01*
Y140193D02*
Y140397D01*
Y139744D02*
Y140193D01*
Y139295D02*
Y139744D01*
Y139090D02*
Y139295D01*
Y139013D02*
Y139090D01*
X416389Y138790D02*
X416413Y139013D01*
X416383Y138780D02*
X416389Y138790D01*
X416377Y138767D02*
X416383Y138780D01*
X416291Y138671D02*
X416377Y138767D01*
X416279Y138665D02*
X416291Y138671D01*
X416268Y138659D02*
X416279Y138665D01*
X416075Y138628D02*
X416268Y138659D01*
X416011Y138628D02*
X416075D01*
X416011Y138580D02*
Y138628D01*
Y138531D02*
Y138580D01*
Y138531D02*
X416202D01*
X416623D01*
X417045D01*
X417236D01*
Y138580D01*
Y138628D01*
X417181D02*
X417236D01*
X417117D02*
X417181D01*
X416937Y138709D02*
X417117Y138628D01*
X416925Y138724D02*
X416937Y138709D01*
X416914Y138741D02*
X416925Y138724D01*
X416859Y139003D02*
X416914Y138741D01*
X416859Y139003D02*
Y139090D01*
Y139234D01*
Y139551D01*
Y139867D01*
Y140010D01*
Y140100D01*
X416865Y140369D01*
X416876Y140537D01*
X416880Y140554D01*
X416884Y140570D01*
X416935Y140681D01*
X416942Y140686D01*
X416949Y140692D01*
X417028Y140721D01*
X417054D01*
X417099D01*
X417218Y140688D01*
X417236Y140681D01*
X417256Y140730D01*
X417276Y140778D01*
X417160Y140826D02*
X417276Y140778D01*
X416903Y140930D02*
X417160Y140826D01*
X416646Y141034D02*
X416903Y140930D01*
X416530Y141081D02*
X416646Y141034D01*
X416472Y141081D02*
X416530D01*
X416413D02*
X416472D01*
X416413Y140999D02*
Y141081D01*
Y140819D02*
Y140999D01*
Y140639D02*
Y140819D01*
Y140556D02*
Y140639D01*
X413019Y140644D02*
X413091Y140556D01*
X412666Y140950D02*
X413019Y140644D01*
X412362Y141081D02*
X412666Y140950D01*
X412261Y141081D02*
X412362D01*
X412174D02*
X412261D01*
X411936Y140996D02*
X412174Y141081D01*
X411912Y140980D02*
X411936Y140996D01*
X411887Y140963D02*
X411912Y140980D01*
X411694Y140684D02*
X411887Y140963D01*
X411679Y140645D02*
X411694Y140684D01*
X411669Y140619D02*
X411679Y140645D01*
X411620Y140266D02*
X411669Y140619D01*
X411620Y140148D02*
Y140266D01*
Y139983D02*
Y140148D01*
Y139620D02*
Y139983D01*
Y139256D02*
Y139620D01*
Y139090D02*
Y139256D01*
Y139011D02*
Y139090D01*
X411589Y138786D02*
X411620Y139011D01*
X411582Y138771D02*
X411589Y138786D01*
X411577Y138761D02*
X411582Y138771D01*
X411497Y138673D02*
X411577Y138761D01*
X411486Y138666D02*
X411497Y138673D01*
X411475Y138660D02*
X411486Y138666D01*
X411300Y138628D02*
X411475Y138660D01*
X411241Y138628D02*
X411300D01*
X411241Y138580D02*
Y138628D01*
Y138531D02*
Y138580D01*
Y138531D02*
X411433D01*
X411854D01*
X412275D01*
X412466D01*
Y138580D01*
Y138628D01*
X412415D02*
X412466D01*
X412354D02*
X412415D01*
X412185Y138672D02*
X412354Y138628D01*
X412173Y138681D02*
X412185Y138672D01*
X412161Y138690D02*
X412173Y138681D01*
X412081Y138820D02*
X412161Y138690D01*
X412077Y138837D02*
X412081Y138820D01*
X412075Y138844D02*
X412077Y138837D01*
X412066Y139029D02*
X412075Y138844D01*
X412066Y139029D02*
Y139090D01*
Y139249D01*
Y139598D01*
Y139946D01*
Y140105D01*
Y140228D01*
X412139Y140570D01*
X412154Y140596D01*
X412168Y140621D01*
X412380Y140749D01*
X412450D01*
X412530D01*
X412771Y140661D01*
X413037Y140456D01*
X413091Y140397D01*
Y140193D02*
Y140397D01*
Y139744D02*
Y140193D01*
Y139295D02*
Y139744D01*
Y139090D02*
Y139295D01*
Y139013D02*
Y139090D01*
X413066Y138790D02*
X413091Y139013D01*
X413061Y138780D02*
X413066Y138790D01*
X413055Y138767D02*
X413061Y138780D01*
X412968Y138671D02*
X413055Y138767D01*
X412957Y138665D02*
X412968Y138671D01*
X412946Y138659D02*
X412957Y138665D01*
X412752Y138628D02*
X412946Y138659D01*
X412688Y138628D02*
X412752D01*
X412688Y138580D02*
Y138628D01*
Y138531D02*
Y138580D01*
Y138531D02*
X412879D01*
X413300D01*
X413722D01*
X413913D01*
Y138580D01*
Y138628D01*
X413858D02*
X413913D01*
X413795D02*
X413858D01*
X413614Y138709D02*
X413795Y138628D01*
X413603Y138724D02*
X413614Y138709D01*
X413592Y138741D02*
X413603Y138724D01*
X413537Y139003D02*
X413592Y138741D01*
X413537Y139003D02*
Y139090D01*
Y139234D01*
Y139551D01*
Y139867D01*
Y140010D01*
Y140100D01*
X413542Y140369D01*
X413554Y140537D01*
X413557Y140554D01*
X413561Y140570D01*
X413613Y140681D01*
X413619Y140686D01*
X413626Y140692D01*
X413705Y140721D01*
X413731D01*
X413777D01*
X413895Y140688D01*
X413913Y140681D01*
X413933Y140730D01*
X413953Y140778D01*
X413837Y140826D02*
X413953Y140778D01*
X413580Y140930D02*
X413837Y140826D01*
X413324Y141034D02*
X413580Y140930D01*
X413207Y141081D02*
X413324Y141034D01*
X413149Y141081D02*
X413207D01*
X413091D02*
X413149D01*
X413091Y140999D02*
Y141081D01*
Y140819D02*
Y140999D01*
Y140639D02*
Y140819D01*
Y140556D02*
Y140639D01*
X409895Y140232D02*
X410074D01*
X409501D02*
X409895D01*
X409107D02*
X409501D01*
X408927D02*
X409107D01*
X408927D02*
X408929Y140272D01*
X408977Y140551D01*
X408984Y140567D01*
X408995Y140593D01*
X409163Y140791D01*
X409186Y140805D01*
X409208Y140820D01*
X409402Y140892D01*
X409466D01*
X409566D01*
X409838Y140746D01*
X409867Y140717D01*
X409897Y140688D01*
X410008Y140509D01*
X410069Y140284D01*
X410074Y140232D01*
Y140075D02*
X410074Y139983D01*
X410009Y139583D02*
X410074Y139983D01*
X409851Y139263D02*
X410009Y139583D01*
X409806Y139210D02*
X409851Y139263D01*
X409761Y139158D02*
X409806Y139210D01*
X409512Y138974D02*
X409761Y139158D01*
X409256Y138896D02*
X409512Y138974D01*
X409170Y138896D02*
X409256D01*
X409065D02*
X409170D01*
X408778Y139008D02*
X409065Y138896D01*
X408747Y139030D02*
X408778Y139008D01*
X408717Y139052D02*
X408747Y139030D01*
X408467Y139434D02*
X408717Y139052D01*
X408446Y139488D02*
X408467Y139434D01*
X408404Y139462D02*
X408446Y139488D01*
X408362Y139434D02*
X408404Y139462D01*
X408362Y139434D02*
X408372Y139373D01*
X408473Y139081D01*
X408647Y138811D01*
X408692Y138760D01*
X408737Y138709D01*
X409000Y138532D01*
X409282Y138455D01*
X409376D01*
X409480D01*
X409790Y138542D01*
X410087Y138745D01*
X410140Y138803D01*
X410193Y138861D01*
X410379Y139210D01*
X410457Y139606D01*
Y139737D01*
Y139879D01*
X410376Y140302D02*
X410457Y139879D01*
X410187Y140669D02*
X410376Y140302D01*
X410132Y140728D02*
X410187Y140669D01*
X410078Y140787D02*
X410132Y140728D01*
X409764Y140995D02*
X410078Y140787D01*
X409427Y141083D02*
X409764Y140995D01*
X409314Y141083D02*
X409427D01*
X409220D02*
X409314D01*
X408935Y141015D02*
X409220Y141083D01*
X408675Y140855D02*
X408935Y141015D01*
X408630Y140809D02*
X408675Y140855D01*
X408586Y140764D02*
X408630Y140809D01*
X408429Y140489D02*
X408586Y140764D01*
X408362Y140178D02*
X408429Y140489D01*
X408362Y140075D02*
Y140178D01*
Y140075D02*
X408436D01*
X408629D01*
X408904D01*
X409218D01*
X409532D01*
X409807D01*
X410000D01*
X410074D01*
X405375Y139472D02*
X405392Y139390D01*
X405523Y139039D01*
X405719Y138763D01*
X405767Y138719D01*
X405816Y138675D01*
X406075Y138521D01*
X406329Y138455D01*
X406413D01*
X406512D01*
X406808Y138544D01*
X407096Y138751D01*
X407148Y138809D01*
X407201Y138869D01*
X407384Y139226D01*
X407462Y139631D01*
Y139767D01*
Y139899D01*
X407376Y140296D02*
X407462Y139899D01*
X407173Y140655D02*
X407376Y140296D01*
X407115Y140716D02*
X407173Y140655D01*
X407057Y140777D02*
X407115Y140716D01*
X406733Y140990D02*
X407057Y140777D01*
X406394Y141081D02*
X406733Y140990D01*
X406281Y141081D02*
X406394D01*
X406198D02*
X406281D01*
X405948Y141033D02*
X406198Y141081D01*
X405720Y140920D02*
X405948Y141033D01*
X405680Y140887D02*
X405720Y140920D01*
X405641Y140855D02*
X405680Y140887D01*
X405445Y140579D02*
X405641Y140855D01*
X405445Y140486D02*
Y140579D01*
Y140445D02*
Y140486D01*
Y140445D02*
X405501Y140331D01*
X405512Y140320D01*
X405523Y140310D01*
X405653Y140256D01*
X405696D01*
X405757D01*
X405924Y140342D01*
X405937Y140359D01*
X405945Y140369D01*
X405996Y140549D01*
X405998Y140575D01*
X406001Y140602D01*
X406092Y140805D01*
X406108Y140819D01*
X406124Y140832D01*
X406309Y140900D01*
X406370D01*
X406431D01*
X406614Y140850D01*
X406778Y140733D01*
X406805Y140700D01*
X406842Y140656D01*
X406969Y140392D01*
X407024Y140098D01*
Y139999D02*
Y140098D01*
Y139895D02*
Y139999D01*
X406970Y139582D02*
X407024Y139895D01*
X406843Y139273D02*
X406970Y139582D01*
X406806Y139216D02*
X406843Y139273D01*
X406770Y139160D02*
X406806Y139216D01*
X406551Y138962D02*
X406770Y139160D01*
X406302Y138877D02*
X406551Y138962D01*
X406218Y138877D02*
X406302D01*
X406100D02*
X406218D01*
X405778Y139029D02*
X406100Y138877D01*
X405743Y139059D02*
X405778Y139029D01*
X405718Y139080D02*
X405743Y139059D01*
X405477Y139456D02*
X405718Y139080D01*
X405453Y139510D02*
X405477Y139456D01*
X405414Y139491D02*
X405453Y139510D01*
X405375Y139472D02*
X405414Y139491D01*
X403747Y141695D02*
Y141822D01*
Y141415D02*
Y141695D01*
Y141135D02*
Y141415D01*
Y141008D02*
Y141135D01*
X403657Y141008D02*
X403747D01*
X403458D02*
X403657D01*
X403259D02*
X403458D01*
X403169D02*
X403259D01*
X403169Y140913D02*
Y141008D01*
Y140819D02*
Y140913D01*
Y140819D02*
X403259D01*
X403458D01*
X403657D01*
X403747D01*
Y140750D02*
Y140819D01*
Y140568D02*
Y140750D01*
Y140311D02*
Y140568D01*
Y140015D02*
Y140311D01*
Y139721D02*
Y140015D01*
Y139464D02*
Y139721D01*
Y139282D02*
Y139464D01*
Y139213D02*
Y139282D01*
Y139132D02*
Y139213D01*
X403690Y138902D02*
X403747Y139132D01*
X403678Y138888D02*
X403690Y138902D01*
X403667Y138875D02*
X403678Y138888D01*
X403543Y138804D02*
X403667Y138875D01*
X403501Y138804D02*
X403543D01*
X403459D02*
X403501D01*
X403343Y138850D02*
X403459Y138804D01*
X403328Y138859D02*
X403343Y138850D01*
X403315Y138869D02*
X403328Y138859D01*
X403206Y139005D02*
X403315Y138869D01*
X403199Y139023D02*
X403206Y139005D01*
X403146Y139023D02*
X403199D01*
X403093D02*
X403146D01*
X403093D02*
X403109Y138979D01*
X403332Y138647D01*
X403361Y138624D01*
X403390Y138602D01*
X403636Y138490D01*
X403718D01*
X403779D01*
X403941Y138548D01*
X403961Y138559D01*
X403981Y138571D01*
X404128Y138736D01*
X404137Y138757D01*
X404146Y138779D01*
X404194Y139060D01*
Y139153D01*
Y139225D01*
Y139413D01*
Y139680D01*
Y139986D01*
Y140292D01*
Y140559D01*
Y140747D01*
Y140819D01*
X404255D01*
X404390D01*
X404525D01*
X404586D01*
Y140908D01*
X404562Y140918D02*
X404586Y140908D01*
X404308Y141086D02*
X404562Y140918D01*
X404282Y141109D02*
X404308Y141086D01*
X404256Y141133D02*
X404282Y141109D01*
X404025Y141414D02*
X404256Y141133D01*
X404004Y141446D02*
X404025Y141414D01*
X403994Y141463D02*
X404004Y141446D01*
X403850Y141776D02*
X403994Y141463D01*
X403831Y141822D02*
X403850Y141776D01*
X403747Y141822D02*
X403831D01*
X400971Y139063D02*
Y139211D01*
Y139535D01*
Y139860D01*
Y140007D01*
X401039Y139981D01*
X401307Y139869D01*
X401479Y139789D01*
X401498Y139778D01*
X401534Y139758D01*
X401789Y139551D01*
X401804Y139529D01*
X401820Y139508D01*
X401896Y139311D01*
Y139245D02*
Y139311D01*
Y139164D02*
Y139245D01*
X401799Y138944D02*
X401896Y139164D01*
X401779Y138922D02*
X401799Y138944D01*
X401760Y138901D02*
X401779Y138922D01*
X401574Y138793D02*
X401760Y138901D01*
X401512Y138793D02*
X401574D01*
X401453D02*
X401512D01*
X401274Y138861D02*
X401453Y138793D01*
X401027Y139018D02*
X401274Y138861D01*
X400971Y139063D02*
X401027Y139018D01*
X400971Y138888D02*
X401035Y138839D01*
X401282Y138656D01*
X401434Y138555D01*
X401450Y138547D01*
X401474Y138537D01*
X401689Y138480D01*
X401761D01*
X401867D01*
X402156Y138626D01*
X402184Y138655D01*
X402212Y138685D01*
X402350Y139010D01*
Y139118D01*
Y139196D01*
X402282Y139410D02*
X402350Y139196D01*
X402269Y139432D02*
X402282Y139410D01*
X402250Y139463D02*
X402269Y139432D01*
X401930Y139751D02*
X402250Y139463D01*
X401884Y139778D02*
X401930Y139751D01*
X401838Y139805D02*
X401884Y139778D01*
X401519Y139958D02*
X401838Y139805D01*
X401078Y140134D02*
X401519Y139958D01*
X400971Y140172D02*
X401078Y140134D01*
X400971Y140172D02*
Y140221D01*
Y140270D01*
Y140348D01*
X401001Y140582D01*
X401069Y140755D01*
X401089Y140778D01*
X401108Y140801D01*
X401351Y140916D01*
X401431D01*
X401499D01*
X401685Y140840D01*
X401701Y140824D01*
X401719Y140809D01*
X401804Y140662D01*
Y140613D02*
Y140662D01*
X401801Y140535D02*
X401804Y140613D01*
X401798Y140457D02*
X401801Y140535D01*
X401798Y140409D02*
Y140457D01*
Y140409D02*
X401852Y140276D01*
X401862Y140265D01*
X401873Y140254D01*
X401990Y140197D01*
X402029D01*
X402070D01*
X402181Y140255D01*
X402192Y140267D01*
X402203Y140279D01*
X402255Y140414D01*
Y140459D01*
Y140515D01*
X402196Y140682D02*
X402255Y140515D01*
X402057Y140854D02*
X402196Y140682D01*
X402018Y140886D02*
X402057Y140854D01*
X401978Y140918D02*
X402018Y140886D01*
X401732Y141032D02*
X401978Y140918D01*
X401445Y141081D02*
X401732Y141032D01*
X401350Y141081D02*
X401445D01*
X401215D02*
X401350D01*
X400844Y140988D02*
X401215Y141081D01*
X400809Y140970D02*
X400844Y140988D01*
X400782Y140956D02*
X400809Y140970D01*
X400586Y140738D02*
X400782Y140956D01*
X400573Y140708D02*
X400586Y140738D01*
X400566Y140689D02*
X400573Y140708D01*
X400537Y140531D02*
X400566Y140689D01*
X400525Y140307D02*
X400537Y140531D01*
X400525Y140232D02*
Y140307D01*
Y140101D02*
Y140232D01*
Y139812D02*
Y140101D01*
Y139523D02*
Y139812D01*
Y139391D02*
Y139523D01*
Y139320D02*
Y139391D01*
X400522Y139106D02*
X400525Y139320D01*
X400514Y138971D02*
X400522Y139106D01*
X400512Y138957D02*
X400514Y138971D01*
X400509Y138944D02*
X400512Y138957D01*
X400472Y138855D02*
X400509Y138944D01*
X400467Y138850D02*
X400472Y138855D01*
X400462Y138846D02*
X400467Y138850D01*
X400412Y138823D02*
X400462Y138846D01*
X400395Y138823D02*
X400412D01*
X400376D02*
X400395D01*
X400325Y138839D02*
X400376Y138823D01*
X400319Y138842D02*
X400325Y138839D01*
X400310Y138848D02*
X400319Y138842D01*
X400127Y139012D02*
X400310Y138848D01*
X400100Y139039D02*
X400127Y139012D01*
X400100Y138964D02*
Y139039D01*
Y138888D02*
Y138964D01*
Y138888D02*
X400151Y138820D01*
X400396Y138584D01*
X400609Y138482D01*
X400679D01*
X400732D01*
X400877Y138559D01*
X400890Y138574D01*
X400903Y138590D01*
X400971Y138851D01*
Y138888D01*
X398684Y140344D02*
Y140407D01*
Y140176D02*
Y140344D01*
Y139938D02*
Y140176D01*
Y139667D02*
Y139938D01*
Y139395D02*
Y139667D01*
Y139157D02*
Y139395D01*
Y138990D02*
Y139157D01*
Y138926D02*
Y138990D01*
X398661Y138903D02*
X398684Y138926D01*
X398424Y138734D02*
X398661Y138903D01*
X398399Y138722D02*
X398424Y138734D01*
X398374Y138710D02*
X398399Y138722D01*
X398167Y138653D02*
X398374Y138710D01*
X398097Y138653D02*
X398167D01*
X398038D02*
X398097D01*
X397860Y138721D02*
X398038Y138653D01*
X397675Y138878D02*
X397860Y138721D01*
X397639Y138923D02*
X397675Y138878D01*
X397603Y138968D02*
X397639Y138923D01*
X397480Y139255D02*
X397603Y138968D01*
X397427Y139597D02*
X397480Y139255D01*
X397427Y139597D02*
Y139710D01*
Y139815D01*
X397480Y140131D01*
X397603Y140399D01*
X397639Y140441D01*
X397675Y140484D01*
X397866Y140633D01*
X398058Y140697D01*
X398122D01*
X398193D01*
X398384Y140636D01*
X398408Y140624D01*
X398427Y140615D01*
X398657Y140434D01*
X398684Y140407D01*
X398625Y140664D02*
X398684Y140580D01*
X398310Y140956D02*
X398625Y140664D01*
X398009Y141081D02*
X398310Y140956D01*
X397908Y141081D02*
X398009D01*
X397819D02*
X397908D01*
X397551Y141000D02*
X397819Y141081D01*
X397290Y140809D02*
X397551Y141000D01*
X397243Y140755D02*
X397290Y140809D01*
X397196Y140701D02*
X397243Y140755D01*
X397030Y140370D02*
X397196Y140701D01*
X396959Y139991D02*
X397030Y140370D01*
X396959Y139864D02*
Y139991D01*
Y139715D02*
Y139864D01*
Y139715D02*
X397069Y139269D01*
X397325Y138869D01*
X397397Y138801D01*
X397460Y138744D01*
X397794Y138542D01*
X398125Y138455D01*
X398235D01*
X398345D01*
X398638Y138521D01*
X398674Y138534D01*
X398712Y138547D01*
X399092Y138743D01*
X399130Y138769D01*
Y139170D01*
Y140052D01*
Y140934D01*
Y141335D01*
Y141420D01*
X399136Y141676D01*
X399147Y141838D01*
X399151Y141854D01*
X399155Y141870D01*
X399207Y141981D01*
X399214Y141987D01*
X399222Y141993D01*
X399297Y142022D01*
X399322D01*
X399370D01*
X399493Y141986D01*
X399512Y141978D01*
X399531Y142026D01*
X399549Y142073D01*
X399433Y142121D02*
X399549Y142073D01*
X399177Y142225D02*
X399433Y142121D01*
X398922Y142329D02*
X399177Y142225D01*
X398806Y142376D02*
X398922Y142329D01*
X398745Y142376D02*
X398806D01*
X398684D02*
X398745D01*
X398684Y142299D02*
Y142376D01*
Y142096D02*
Y142299D01*
Y141808D02*
Y142096D01*
Y141478D02*
Y141808D01*
Y141149D02*
Y141478D01*
Y140861D02*
Y141149D01*
Y140658D02*
Y140861D01*
Y140580D02*
Y140658D01*
X395188Y142235D02*
Y142376D01*
Y141863D02*
Y142235D01*
Y141337D02*
Y141863D01*
Y140733D02*
Y141337D01*
Y140131D02*
Y140733D01*
Y139604D02*
Y140131D01*
Y139232D02*
Y139604D01*
Y139090D02*
Y139232D01*
Y139014D02*
Y139090D01*
X395160Y138795D02*
X395188Y139014D01*
X395154Y138782D02*
X395160Y138795D01*
X395149Y138770D02*
X395154Y138782D01*
X395062Y138674D02*
X395149Y138770D01*
X395050Y138668D02*
X395062Y138674D01*
X395039Y138661D02*
X395050Y138668D01*
X394851Y138628D02*
X395039Y138661D01*
X394788Y138628D02*
X394851D01*
X394788Y138580D02*
Y138628D01*
Y138531D02*
Y138580D01*
Y138531D02*
X394978D01*
X395395D01*
X395813D01*
X396002D01*
Y138580D01*
Y138628D01*
X395944D02*
X396002D01*
X395780Y138658D02*
X395944Y138628D01*
X395770Y138664D02*
X395780Y138658D01*
X395759Y138670D02*
X395770Y138664D01*
X395678Y138767D02*
X395759Y138670D01*
X395672Y138780D02*
X395678Y138767D01*
X395667Y138793D02*
X395672Y138780D01*
X395637Y139016D02*
X395667Y138793D01*
X395637Y139016D02*
Y139090D01*
Y139442D01*
Y140216D01*
Y140989D01*
Y141340D01*
Y141425D01*
X395642Y141679D01*
X395654Y141840D01*
X395656Y141855D01*
X395660Y141872D01*
X395710Y141981D01*
X395717Y141987D01*
X395724Y141993D01*
X395799Y142022D01*
X395824D01*
X395868D01*
X395984Y141986D01*
X396002Y141978D01*
X396025Y142026D01*
X396048Y142073D01*
X395933Y142121D02*
X396048Y142073D01*
X395679Y142225D02*
X395933Y142121D01*
X395426Y142329D02*
X395679Y142225D01*
X395310Y142376D02*
X395426Y142329D01*
X395249Y142376D02*
X395310D01*
X395188D02*
X395249D01*
X393353Y140232D02*
X393532D01*
X392958D02*
X393353D01*
X392564D02*
X392958D01*
X392385D02*
X392564D01*
X392385D02*
X392388Y140272D01*
X392435Y140551D01*
X392442Y140567D01*
X392453Y140593D01*
X392621Y140791D01*
X392643Y140805D01*
X392666Y140820D01*
X392859Y140892D01*
X392923D01*
X393023D01*
X393295Y140746D01*
X393325Y140717D01*
X393354Y140688D01*
X393465Y140509D01*
X393527Y140284D01*
X393532Y140232D01*
Y140075D02*
X393532Y139983D01*
X393466Y139583D02*
X393532Y139983D01*
X393309Y139263D02*
X393466Y139583D01*
X393264Y139210D02*
X393309Y139263D01*
X393219Y139158D02*
X393264Y139210D01*
X392970Y138974D02*
X393219Y139158D01*
X392714Y138896D02*
X392970Y138974D01*
X392629Y138896D02*
X392714D01*
X392523D02*
X392629D01*
X392236Y139008D02*
X392523Y138896D01*
X392205Y139030D02*
X392236Y139008D01*
X392175Y139052D02*
X392205Y139030D01*
X391924Y139434D02*
X392175Y139052D01*
X391904Y139488D02*
X391924Y139434D01*
X391862Y139462D02*
X391904Y139488D01*
X391820Y139434D02*
X391862Y139462D01*
X391820Y139434D02*
X391830Y139373D01*
X391931Y139081D01*
X392104Y138811D01*
X392150Y138760D01*
X392196Y138709D01*
X392458Y138532D01*
X392740Y138455D01*
X392834D01*
X392938D01*
X393248Y138542D01*
X393545Y138745D01*
X393598Y138803D01*
X393651Y138861D01*
X393836Y139210D01*
X393915Y139606D01*
Y139737D01*
Y139879D01*
X393834Y140302D02*
X393915Y139879D01*
X393644Y140669D02*
X393834Y140302D01*
X393590Y140728D02*
X393644Y140669D01*
X393536Y140787D02*
X393590Y140728D01*
X393223Y140995D02*
X393536Y140787D01*
X392885Y141083D02*
X393223Y140995D01*
X392772Y141083D02*
X392885D01*
X392677D02*
X392772D01*
X392393Y141015D02*
X392677Y141083D01*
X392133Y140855D02*
X392393Y141015D01*
X392088Y140809D02*
X392133Y140855D01*
X392043Y140764D02*
X392088Y140809D01*
X391887Y140489D02*
X392043Y140764D01*
X391820Y140178D02*
X391887Y140489D01*
X391820Y140075D02*
Y140178D01*
Y140075D02*
X391894D01*
X392088D01*
X392362D01*
X392676D01*
X392990D01*
X393265D01*
X393459D01*
X393532D01*
X388279Y141695D02*
Y141822D01*
Y141415D02*
Y141695D01*
Y141135D02*
Y141415D01*
Y141008D02*
Y141135D01*
X388188Y141008D02*
X388279D01*
X387989D02*
X388188D01*
X387791D02*
X387989D01*
X387700D02*
X387791D01*
X387700Y140913D02*
Y141008D01*
Y140819D02*
Y140913D01*
Y140819D02*
X387791D01*
X387989D01*
X388188D01*
X388279D01*
Y140750D02*
Y140819D01*
Y140568D02*
Y140750D01*
Y140311D02*
Y140568D01*
Y140015D02*
Y140311D01*
Y139721D02*
Y140015D01*
Y139464D02*
Y139721D01*
Y139282D02*
Y139464D01*
Y139213D02*
Y139282D01*
Y139132D02*
Y139213D01*
X388222Y138902D02*
X388279Y139132D01*
X388210Y138888D02*
X388222Y138902D01*
X388198Y138875D02*
X388210Y138888D01*
X388074Y138804D02*
X388198Y138875D01*
X388033Y138804D02*
X388074D01*
X387990D02*
X388033D01*
X387874Y138850D02*
X387990Y138804D01*
X387860Y138859D02*
X387874Y138850D01*
X387846Y138869D02*
X387860Y138859D01*
X387738Y139005D02*
X387846Y138869D01*
X387730Y139023D02*
X387738Y139005D01*
X387677Y139023D02*
X387730D01*
X387624D02*
X387677D01*
X387624D02*
X387640Y138979D01*
X387863Y138647D01*
X387892Y138624D01*
X387921Y138602D01*
X388167Y138490D01*
X388249D01*
X388310D01*
X388473Y138548D01*
X388492Y138559D01*
X388512Y138571D01*
X388659Y138736D01*
X388668Y138757D01*
X388678Y138779D01*
X388725Y139060D01*
Y139153D01*
Y139225D01*
Y139413D01*
Y139680D01*
Y139986D01*
Y140292D01*
Y140559D01*
Y140747D01*
Y140819D01*
X388786D01*
X388921D01*
X389056D01*
X389117D01*
Y140908D01*
X389093Y140918D02*
X389117Y140908D01*
X388839Y141086D02*
X389093Y140918D01*
X388813Y141109D02*
X388839Y141086D01*
X388787Y141133D02*
X388813Y141109D01*
X388556Y141414D02*
X388787Y141133D01*
X388536Y141446D02*
X388556Y141414D01*
X388525Y141463D02*
X388536Y141446D01*
X388381Y141776D02*
X388525Y141463D01*
X388363Y141822D02*
X388381Y141776D01*
X388279Y141822D02*
X388363D01*
X386178Y142298D02*
Y142376D01*
Y142093D02*
Y142298D01*
Y141803D02*
Y142093D01*
Y141471D02*
Y141803D01*
Y141138D02*
Y141471D01*
Y140848D02*
Y141138D01*
Y140643D02*
Y140848D01*
Y140565D02*
Y140643D01*
X386128Y140620D02*
X386178Y140565D01*
X385910Y140835D02*
X386128Y140620D01*
X385732Y140972D02*
X385910Y140835D01*
X385703Y140988D02*
X385732Y140972D01*
X385673Y141004D02*
X385703Y140988D01*
X385432Y141081D02*
X385673Y141004D01*
X385351Y141081D02*
X385432D01*
X385260D02*
X385351D01*
X385014Y140984D02*
X385260Y141081D01*
X384989Y140964D02*
X385014Y140984D01*
X384963Y140945D02*
X384989Y140964D01*
X384777Y140641D02*
X384963Y140945D01*
X384764Y140599D02*
X384777Y140641D01*
X384756Y140570D02*
X384764Y140599D01*
X384726Y140355D02*
X384756Y140570D01*
X384713Y140064D02*
X384726Y140355D01*
X384713Y139967D02*
Y140064D01*
Y139830D02*
Y139967D01*
Y139529D02*
Y139830D01*
Y139228D02*
Y139529D01*
Y139090D02*
Y139228D01*
Y139010D02*
Y139090D01*
X384681Y138783D02*
X384713Y139010D01*
X384675Y138769D02*
X384681Y138783D01*
X384671Y138758D02*
X384675Y138769D01*
X384594Y138673D02*
X384671Y138758D01*
X384583Y138666D02*
X384594Y138673D01*
X384572Y138660D02*
X384583Y138666D01*
X384402Y138628D02*
X384572Y138660D01*
X384345Y138628D02*
X384402D01*
X384345Y138580D02*
Y138628D01*
Y138531D02*
Y138580D01*
Y138531D02*
X384535D01*
X384954D01*
X385372D01*
X385562D01*
Y138580D01*
Y138628D01*
X385505D02*
X385562D01*
X385445D02*
X385505D01*
X385276Y138672D02*
X385445Y138628D01*
X385265Y138681D02*
X385276Y138672D01*
X385254Y138690D02*
X385265Y138681D01*
X385175Y138820D02*
X385254Y138690D01*
X385170Y138837D02*
X385175Y138820D01*
X385169Y138844D02*
X385170Y138837D01*
X385162Y139029D02*
X385169Y138844D01*
X385162Y139029D02*
Y139090D01*
Y139228D01*
Y139529D01*
Y139830D01*
Y139967D01*
Y140051D01*
X385172Y140303D01*
X385197Y140478D01*
X385203Y140499D01*
X385210Y140521D01*
X385322Y140680D01*
X385337Y140690D01*
X385353Y140701D01*
X385508Y140753D01*
X385559D01*
X385628D01*
X385811Y140695D01*
X385835Y140683D01*
X385859Y140672D01*
X386145Y140435D01*
X386178Y140400D01*
Y140195D02*
Y140400D01*
Y139745D02*
Y140195D01*
Y139296D02*
Y139745D01*
Y139090D02*
Y139296D01*
Y139012D02*
Y139090D01*
X386155Y138785D02*
X386178Y139012D01*
X386150Y138774D02*
X386155Y138785D01*
X386146Y138764D02*
X386150Y138774D01*
X386058Y138678D02*
X386146Y138764D01*
X386045Y138671D02*
X386058Y138678D01*
X386032Y138664D02*
X386045Y138671D01*
X385842Y138628D02*
X386032Y138664D01*
X385779Y138628D02*
X385842D01*
X385779Y138580D02*
Y138628D01*
Y138531D02*
Y138580D01*
Y138531D02*
X385970D01*
X386392D01*
X386814D01*
X387006D01*
Y138580D01*
Y138628D01*
X386941D02*
X387006D01*
X386762Y138671D02*
X386941Y138628D01*
X386746Y138680D02*
X386762Y138671D01*
X386738Y138685D02*
X386746Y138680D01*
X386665Y138770D02*
X386738Y138685D01*
X386659Y138782D02*
X386665Y138770D01*
X386654Y138795D02*
X386659Y138782D01*
X386627Y139017D02*
X386654Y138795D01*
X386627Y139017D02*
Y139090D01*
Y139441D01*
Y140211D01*
Y140982D01*
Y141332D01*
Y141418D01*
X386632Y141675D01*
X386644Y141838D01*
X386647Y141854D01*
X386651Y141870D01*
X386703Y141981D01*
X386710Y141987D01*
X386717Y141993D01*
X386796Y142022D01*
X386822D01*
X386868D01*
X386984Y141986D01*
X387006Y141978D01*
X387025Y142026D01*
X387044Y142073D01*
X386928Y142121D02*
X387044Y142073D01*
X386673Y142225D02*
X386928Y142121D01*
X386419Y142329D02*
X386673Y142225D01*
X386302Y142376D02*
X386419Y142329D01*
X386241Y142376D02*
X386302D01*
X386178D02*
X386241D01*
X382905D02*
X382953D01*
X382773Y142310D02*
X382905Y142376D01*
X382760Y142296D02*
X382773Y142310D01*
X382747Y142283D02*
X382760Y142296D01*
X382680Y142148D02*
X382747Y142283D01*
X382680Y142103D02*
Y142148D01*
Y142054D02*
Y142103D01*
Y142054D02*
X382747Y141922D01*
X382760Y141908D01*
X382773Y141895D01*
X382909Y141827D01*
X382953D01*
X383002D01*
X383134Y141895D01*
X383148Y141908D01*
X383161Y141922D01*
X383229Y142058D01*
Y142103D01*
Y142151D01*
X383162Y142283D02*
X383229Y142151D01*
X383149Y142296D02*
X383162Y142283D01*
X383136Y142310D02*
X383149Y142296D01*
X382999Y142376D02*
X383136Y142310D01*
X382953Y142376D02*
X382999D01*
X382729Y140996D02*
Y141081D01*
Y140770D02*
Y140996D01*
Y140452D02*
Y140770D01*
Y140086D02*
Y140452D01*
Y139720D02*
Y140086D01*
Y139402D02*
Y139720D01*
Y139176D02*
Y139402D01*
Y139090D02*
Y139176D01*
Y139014D02*
Y139090D01*
X382701Y138794D02*
X382729Y139014D01*
X382695Y138781D02*
X382701Y138794D01*
X382689Y138769D02*
X382695Y138781D01*
X382606Y138673D02*
X382689Y138769D01*
X382595Y138666D02*
X382606Y138673D01*
X382584Y138660D02*
X382595Y138666D01*
X382411Y138628D02*
X382584Y138660D01*
X382353Y138628D02*
X382411D01*
X382353Y138580D02*
Y138628D01*
Y138531D02*
Y138580D01*
Y138531D02*
X382541D01*
X382955D01*
X383368D01*
X383556D01*
Y138580D01*
Y138628D01*
X383495D02*
X383556D01*
X383324Y138658D02*
X383495Y138628D01*
X383313Y138664D02*
X383324Y138658D01*
X383302Y138670D02*
X383313Y138664D01*
X383220Y138767D02*
X383302Y138670D01*
X383214Y138780D02*
X383220Y138767D01*
X383208Y138793D02*
X383214Y138780D01*
X383177Y139016D02*
X383208Y138793D01*
X383177Y139016D02*
Y139090D01*
Y139240D01*
Y139568D01*
Y139896D01*
Y140045D01*
Y140128D01*
X383184Y140377D01*
X383198Y140547D01*
X383202Y140567D01*
X383205Y140581D01*
X383255Y140682D01*
X383261Y140687D01*
X383268Y140693D01*
X383346Y140721D01*
X383372D01*
X383418D01*
X383538Y140688D01*
X383556Y140681D01*
X383575Y140730D01*
X383594Y140778D01*
X383478Y140826D02*
X383594Y140778D01*
X383221Y140930D02*
X383478Y140826D01*
X382964Y141034D02*
X383221Y140930D01*
X382848Y141081D02*
X382964Y141034D01*
X382789Y141081D02*
X382848D01*
X382729D02*
X382789D01*
X380696Y140644D02*
X380769Y140556D01*
X380344Y140950D02*
X380696Y140644D01*
X380040Y141081D02*
X380344Y140950D01*
X379939Y141081D02*
X380040D01*
X379852D02*
X379939D01*
X379614Y140996D02*
X379852Y141081D01*
X379590Y140980D02*
X379614Y140996D01*
X379566Y140963D02*
X379590Y140980D01*
X379372Y140684D02*
X379566Y140963D01*
X379357Y140645D02*
X379372Y140684D01*
X379348Y140619D02*
X379357Y140645D01*
X379298Y140266D02*
X379348Y140619D01*
X379298Y140148D02*
Y140266D01*
Y139983D02*
Y140148D01*
Y139620D02*
Y139983D01*
Y139256D02*
Y139620D01*
Y139090D02*
Y139256D01*
Y139011D02*
Y139090D01*
X379267Y138786D02*
X379298Y139011D01*
X379260Y138771D02*
X379267Y138786D01*
X379256Y138761D02*
X379260Y138771D01*
X379176Y138673D02*
X379256Y138761D01*
X379164Y138666D02*
X379176Y138673D01*
X379154Y138660D02*
X379164Y138666D01*
X378978Y138628D02*
X379154Y138660D01*
X378920Y138628D02*
X378978D01*
X378920Y138580D02*
Y138628D01*
Y138531D02*
Y138580D01*
Y138531D02*
X379111D01*
X379532D01*
X379953D01*
X380144D01*
Y138580D01*
Y138628D01*
X380093D02*
X380144D01*
X380033D02*
X380093D01*
X379863Y138672D02*
X380033Y138628D01*
X379851Y138681D02*
X379863Y138672D01*
X379839Y138690D02*
X379851Y138681D01*
X379760Y138820D02*
X379839Y138690D01*
X379755Y138837D02*
X379760Y138820D01*
X379753Y138844D02*
X379755Y138837D01*
X379744Y139029D02*
X379753Y138844D01*
X379744Y139029D02*
Y139090D01*
Y139249D01*
Y139598D01*
Y139946D01*
Y140105D01*
Y140228D01*
X379817Y140570D01*
X379832Y140596D01*
X379846Y140621D01*
X380058Y140749D01*
X380128D01*
X380208D01*
X380449Y140661D01*
X380716Y140456D01*
X380769Y140397D01*
Y140193D02*
Y140397D01*
Y139744D02*
Y140193D01*
Y139295D02*
Y139744D01*
Y139090D02*
Y139295D01*
Y139013D02*
Y139090D01*
X380744Y138790D02*
X380769Y139013D01*
X380739Y138780D02*
X380744Y138790D01*
X380733Y138767D02*
X380739Y138780D01*
X380647Y138671D02*
X380733Y138767D01*
X380635Y138665D02*
X380647Y138671D01*
X380624Y138659D02*
X380635Y138665D01*
X380431Y138628D02*
X380624Y138659D01*
X380366Y138628D02*
X380431D01*
X380366Y138580D02*
Y138628D01*
Y138531D02*
Y138580D01*
Y138531D02*
X380558D01*
X380979D01*
X381400D01*
X381591D01*
Y138580D01*
Y138628D01*
X381537D02*
X381591D01*
X381474D02*
X381537D01*
X381293Y138709D02*
X381474Y138628D01*
X381281Y138724D02*
X381293Y138709D01*
X381271Y138741D02*
X381281Y138724D01*
X381215Y139003D02*
X381271Y138741D01*
X381215Y139003D02*
Y139090D01*
Y139234D01*
Y139551D01*
Y139867D01*
Y140010D01*
Y140100D01*
X381221Y140369D01*
X381232Y140537D01*
X381235Y140554D01*
X381239Y140570D01*
X381291Y140681D01*
X381298Y140686D01*
X381305Y140692D01*
X381384Y140721D01*
X381410D01*
X381456D01*
X381574Y140688D01*
X381591Y140681D01*
X381611Y140730D01*
X381631Y140778D01*
X381515Y140826D02*
X381631Y140778D01*
X381259Y140930D02*
X381515Y140826D01*
X381002Y141034D02*
X381259Y140930D01*
X380885Y141081D02*
X381002Y141034D01*
X380827Y141081D02*
X380885D01*
X380769D02*
X380827D01*
X380769Y140999D02*
Y141081D01*
Y140819D02*
Y140999D01*
Y140639D02*
Y140819D01*
Y140556D02*
Y140639D01*
X377035Y140951D02*
X377120D01*
X377349Y140818D01*
X377371Y140791D01*
X377394Y140765D01*
X377472Y140590D01*
X377506Y140374D01*
Y140302D02*
Y140374D01*
Y140208D02*
Y140302D01*
X377460Y139923D02*
X377506Y140208D01*
X377353Y139679D02*
X377460Y139923D01*
X377322Y139640D02*
X377353Y139679D01*
X377299Y139610D02*
X377322Y139640D01*
X377048Y139461D02*
X377299Y139610D01*
X376965Y139461D02*
X377048D01*
X376881D02*
X376965D01*
X376649Y139590D02*
X376881Y139461D01*
X376627Y139615D02*
X376649Y139590D01*
X376605Y139641D02*
X376627Y139615D01*
X376528Y139814D02*
X376605Y139641D01*
X376495Y140028D02*
X376528Y139814D01*
X376495Y140028D02*
Y140099D01*
Y140195D01*
X376541Y140483D01*
X376650Y140732D01*
X376681Y140773D01*
X376704Y140803D01*
X376953Y140951D01*
X377035D01*
X377533Y138531D02*
X377554Y138508D01*
X377714Y138294D01*
X377724Y138274D01*
X377735Y138254D01*
X377790Y138105D01*
Y138055D02*
Y138105D01*
Y137999D02*
Y138055D01*
X377659Y137844D02*
X377790Y137999D01*
X377633Y137828D02*
X377659Y137844D01*
X377588Y137800D02*
X377633Y137828D01*
X377302Y137703D02*
X377588Y137800D01*
X376964Y137660D02*
X377302Y137703D01*
X376852Y137660D02*
X376964D01*
X376746D02*
X376852D01*
X376429Y137704D02*
X376746Y137660D01*
X376172Y137804D02*
X376429Y137704D01*
X376133Y137832D02*
X376172Y137804D01*
X376095Y137861D02*
X376133Y137832D01*
X375902Y138115D02*
X376095Y137861D01*
X375902Y138115D02*
Y138199D01*
Y138249D01*
X376017Y138389D01*
X376040Y138398D01*
X376064Y138408D01*
X376250Y138446D01*
X376528Y138467D01*
X376597Y138469D01*
X376699Y138471D01*
X377135Y138493D01*
X377478Y138524D01*
X377533Y138531D01*
X377506Y139434D02*
X377544Y139453D01*
X377835Y139711D01*
X377855Y139744D01*
X377875Y139777D01*
X377976Y140082D01*
Y140183D01*
Y140269D01*
X377907Y140526D02*
X377976Y140269D01*
X377746Y140772D02*
X377907Y140526D01*
X377699Y140816D02*
X377746Y140772D01*
X377653Y140860D02*
X377699Y140816D01*
X377383Y141015D02*
X377653Y140860D01*
X377088Y141081D02*
X377383Y141015D01*
X376989Y141081D02*
X377088D01*
X376836D02*
X376989D01*
X376419Y140937D02*
X376836Y141081D01*
X376375Y140908D02*
X376419Y140937D01*
X376293Y140908D02*
X376375D01*
X376113D02*
X376293D01*
X375933D02*
X376113D01*
X375851D02*
X375933D01*
X375817D02*
X375851D01*
X375719Y140902D02*
X375817Y140908D01*
X375716Y140901D02*
X375719Y140902D01*
X375713Y140900D02*
X375716Y140901D01*
X375690Y140881D02*
X375713Y140900D01*
X375688Y140878D02*
X375690Y140881D01*
X375686Y140874D02*
X375688Y140878D01*
X375673Y140813D02*
X375686Y140874D01*
X375673Y140791D02*
Y140813D01*
Y140767D02*
Y140791D01*
Y140767D02*
X375684Y140699D01*
X375686Y140694D01*
X375688Y140692D01*
X375711Y140674D01*
X375714Y140673D01*
X375718Y140671D01*
X375817Y140664D01*
X375851D01*
X376012D01*
X376173D01*
X376148Y140632D02*
X376173Y140664D01*
X376021Y140283D02*
X376148Y140632D01*
X376021Y140167D02*
Y140283D01*
Y140087D02*
Y140167D01*
Y140087D02*
X376088Y139846D01*
X376242Y139616D01*
X376286Y139575D01*
X376331Y139534D01*
X376596Y139390D01*
X376898Y139329D01*
X376997D01*
X377091D01*
X377341Y139374D01*
X377373Y139383D01*
X377393Y139366D01*
X377527Y139216D01*
X377534Y139203D01*
X377541Y139190D01*
X377576Y139101D01*
Y139072D02*
Y139101D01*
Y139049D02*
Y139072D01*
X377539Y138990D02*
X377576Y139049D01*
X377531Y138983D02*
X377539Y138990D01*
X377524Y138975D02*
X377531Y138983D01*
X377379Y138924D02*
X377524Y138975D01*
X377357Y138921D02*
X377379Y138924D01*
X377345Y138919D02*
X377357Y138921D01*
X377029Y138903D02*
X377345Y138919D01*
X376978Y138901D02*
X377029Y138903D01*
X376886Y138899D02*
X376978Y138901D01*
X376520Y138885D02*
X376886Y138899D01*
X376284Y138868D02*
X376520Y138885D01*
X376256Y138864D02*
X376284Y138868D01*
X376215Y138858D02*
X376256Y138864D01*
X375880Y138703D02*
X376215Y138858D01*
X375855Y138677D02*
X375880Y138703D01*
X375830Y138652D02*
X375855Y138677D01*
X375705Y138391D02*
X375830Y138652D01*
X375705Y138304D02*
Y138391D01*
Y138230D02*
Y138304D01*
Y138230D02*
X375777Y138008D01*
X375944Y137776D01*
X375992Y137731D01*
X376062Y137665D01*
X376478Y137435D01*
X376938Y137336D01*
X377092D01*
X377212D01*
X377574Y137395D01*
X377914Y137532D01*
X377974Y137571D01*
X378008Y137594D01*
X378176Y137788D01*
Y137852D01*
Y137885D01*
X378152Y137971D02*
X378176Y137885D01*
X378147Y137982D02*
X378152Y137971D01*
X378139Y137999D02*
X378147Y137982D01*
X377981Y138231D02*
X378139Y137999D01*
X377957Y138260D02*
X377981Y138231D01*
X377955Y138265D02*
X377957Y138260D01*
X377879Y138346D02*
X377955Y138265D01*
X377724Y138508D02*
X377879Y138346D01*
X377682Y138552D02*
X377724Y138508D01*
X377682Y138552D02*
X377705Y138566D01*
X377870Y138692D01*
X377880Y138703D01*
X377890Y138714D01*
X377938Y138818D01*
Y138853D01*
Y138908D01*
X377874Y139053D02*
X377938Y138908D01*
X377861Y139074D02*
X377874Y139053D01*
X377849Y139096D02*
X377861Y139074D01*
X377734Y139228D02*
X377849Y139096D01*
X377552Y139395D02*
X377734Y139228D01*
X377506Y139434D02*
X377552Y139395D01*
X373245Y140950D02*
Y141081D01*
Y140660D02*
Y140950D01*
Y140369D02*
Y140660D01*
Y140237D02*
Y140369D01*
Y140237D02*
X373334D01*
X373351Y140304D01*
X373451Y140571D01*
X373571Y140754D01*
X373597Y140778D01*
X373625Y140802D01*
X373912Y140921D01*
X374008D01*
X374084D01*
X374294Y140838D01*
X374313Y140821D01*
X374333Y140805D01*
X374429Y140651D01*
Y140599D02*
Y140651D01*
Y140535D02*
Y140599D01*
X374357Y140358D02*
X374429Y140535D01*
X374343Y140340D02*
X374357Y140358D01*
X374329Y140322D02*
X374343Y140340D01*
X374045Y140126D02*
X374329Y140322D01*
X374002Y140105D02*
X374045Y140126D01*
X373941Y140075D02*
X374002Y140105D01*
X373805Y140008D02*
X373941Y140075D01*
X373669Y139943D02*
X373805Y140008D01*
X373607Y139912D02*
X373669Y139943D01*
X373516Y139868D02*
X373607Y139912D01*
X373196Y139603D02*
X373516Y139868D01*
X373058Y139306D02*
X373196Y139603D01*
X373058Y139207D02*
Y139306D01*
Y139131D02*
Y139207D01*
Y139131D02*
X373122Y138902D01*
X373271Y138697D01*
X373314Y138663D01*
X373357Y138628D01*
X373754Y138455D01*
X373886D01*
X374016D01*
X374356Y138523D01*
X374405Y138537D01*
X374420Y138541D01*
X374518Y138564D01*
X374551D01*
X374575D01*
X374643Y138505D01*
X374648Y138493D01*
X374737D01*
Y138631D01*
Y138935D01*
Y139239D01*
Y139377D01*
X374648D02*
X374737D01*
X374636Y139314D02*
X374648Y139377D01*
X374538Y139045D02*
X374636Y139314D01*
X374394Y138839D02*
X374538Y139045D01*
X374359Y138807D02*
X374394Y138839D01*
X374323Y138775D02*
X374359Y138807D01*
X373991Y138615D02*
X374323Y138775D01*
X373881Y138615D02*
X373991D01*
X373805D02*
X373881D01*
X373596Y138706D02*
X373805Y138615D01*
X373576Y138724D02*
X373596Y138706D01*
X373556Y138743D02*
X373576Y138724D01*
X373459Y138927D02*
X373556Y138743D01*
X373459Y138927D02*
Y138988D01*
Y139067D01*
X373568Y139280D01*
X373590Y139302D01*
X373612Y139323D01*
X373786Y139446D01*
X374048Y139591D01*
X374113Y139623D01*
X374179Y139656D01*
X374437Y139809D01*
X374607Y139949D01*
X374627Y139975D01*
X374647Y140001D01*
X374748Y140274D01*
Y140364D01*
Y140435D01*
X374696Y140645D02*
X374748Y140435D01*
X374574Y140841D02*
X374696Y140645D01*
X374539Y140875D02*
X374574Y140841D01*
X374504Y140910D02*
X374539Y140875D01*
X374299Y141030D02*
X374504Y140910D01*
X374073Y141081D02*
X374299Y141030D01*
X373997Y141081D02*
X374073D01*
X373908D02*
X373997D01*
X373677Y141029D02*
X373908Y141081D01*
X373643Y141019D02*
X373677Y141029D01*
X373620Y141012D02*
X373643Y141019D01*
X373499Y140978D02*
X373620Y141012D01*
X373459Y140978D02*
X373499D01*
X373442D02*
X373459D01*
X373395Y140994D02*
X373442Y140978D01*
X373391Y140997D02*
X373395Y140994D01*
X373387Y141000D02*
X373391Y140997D01*
X373339Y141070D02*
X373387Y141000D01*
X373334Y141081D02*
X373339Y141070D01*
X373245Y141081D02*
X373334D01*
M02*
