G04*
G04 #@! TF.GenerationSoftware,Altium Limited,Altium Designer,19.0.11 (319)*
G04*
G04 Layer_Color=16711935*
%FSLAX44Y44*%
%MOMM*%
G71*
G01*
G75*
%ADD63C,0.1000*%
D63*
X314860Y235650D02*
G03*
X314860Y235650I-5000J0D01*
G01*
X315110Y139150D02*
G03*
X315110Y139150I-5000J0D01*
G01*
X197000Y232250D02*
X206500D01*
X197000Y249750D02*
X206500D01*
X197000Y232250D02*
Y249750D01*
X206500Y232250D02*
Y249750D01*
X372250Y316500D02*
Y334000D01*
X362750Y316500D02*
Y334000D01*
X372250D01*
X362750Y316500D02*
X372250D01*
X213250Y237500D02*
X241250D01*
X213250Y251500D02*
X241250D01*
X213250Y237500D02*
Y251500D01*
X241250Y237500D02*
Y251500D01*
X382750Y206750D02*
Y216250D01*
X365250Y206750D02*
Y216250D01*
Y206750D02*
X382750D01*
X365250Y216250D02*
X382750D01*
X197000Y222000D02*
X206500D01*
X197000Y204500D02*
X206500D01*
Y222000D01*
X197000Y204500D02*
Y222000D01*
X181250D02*
X190750D01*
X181250Y204500D02*
X190750D01*
Y222000D01*
X181250Y204500D02*
Y222000D01*
X165500D02*
X175000D01*
X165500Y204500D02*
X175000D01*
Y222000D01*
X165500Y204500D02*
Y222000D01*
X149750D02*
X159250D01*
X149750Y204500D02*
X159250D01*
Y222000D01*
X149750Y204500D02*
Y222000D01*
X676500Y38500D02*
Y48000D01*
X694000Y38500D02*
Y48000D01*
X676500D02*
X694000D01*
X676500Y38500D02*
X694000D01*
X677750Y249000D02*
Y258500D01*
X695250Y249000D02*
Y258500D01*
X677750D02*
X695250D01*
X677750Y249000D02*
X695250D01*
X676500Y173500D02*
Y183000D01*
X694000Y173500D02*
Y183000D01*
X676500D02*
X694000D01*
X676500Y173500D02*
X694000D01*
X676250Y113500D02*
Y123000D01*
X693750Y113500D02*
Y123000D01*
X676250D02*
X693750D01*
X676250Y113500D02*
X693750D01*
X275310Y48150D02*
X280310Y53150D01*
Y48150D02*
Y68150D01*
X260310D02*
X280310D01*
X260310Y48150D02*
Y68150D01*
Y48150D02*
X280310D01*
X264810Y74150D02*
X282310D01*
X264810Y83650D02*
X282310D01*
Y74150D02*
Y83650D01*
X264810Y74150D02*
Y83650D01*
X264810Y90400D02*
Y99900D01*
X282310Y90400D02*
Y99900D01*
X264810D02*
X282310D01*
X264810Y90400D02*
X282310D01*
X264810Y106150D02*
Y115650D01*
X282310Y106150D02*
Y115650D01*
X264810D02*
X282310D01*
X264810Y106150D02*
X282310D01*
X248810Y179650D02*
Y197150D01*
X258310Y179650D02*
Y197150D01*
X248810Y179650D02*
X258310D01*
X248810Y197150D02*
X258310D01*
X232960Y179650D02*
Y197150D01*
X242460Y179650D02*
Y197150D01*
X232960Y179650D02*
X242460D01*
X232960Y197150D02*
X242460D01*
X200110Y165150D02*
X214110D01*
X200110Y135150D02*
Y165150D01*
X214110Y135150D02*
Y165150D01*
X200110Y135150D02*
X214110D01*
X183860Y156150D02*
Y165650D01*
X166360Y156150D02*
Y165650D01*
Y156150D02*
X183860D01*
X166360Y165650D02*
X183860D01*
X262000Y211250D02*
X279500D01*
X262000Y220750D02*
X279500D01*
Y211250D02*
Y220750D01*
X262000Y211250D02*
Y220750D01*
X313810Y215150D02*
X323310D01*
X313810Y197650D02*
X323310D01*
Y215150D01*
X313810Y197650D02*
Y215150D01*
X373310Y166400D02*
Y183900D01*
X363810Y166400D02*
Y183900D01*
X373310D01*
X363810Y166400D02*
X373310D01*
X318860Y226650D02*
Y280650D01*
X264860Y226650D02*
Y280650D01*
Y226650D02*
X318860D01*
X264860Y280650D02*
X318860D01*
X353264Y147729D02*
X359981Y154446D01*
X365638Y135354D02*
X372356Y142072D01*
X359981Y154446D02*
X372356Y142072D01*
X353264Y147729D02*
X365638Y135354D01*
X348755Y143423D02*
X361129Y131049D01*
X342037Y136706D02*
X354411Y124331D01*
X342037Y136706D02*
X348755Y143423D01*
X354411Y124331D02*
X361129Y131049D01*
X348060Y166400D02*
Y183900D01*
X357560Y166400D02*
Y183900D01*
X348060Y166400D02*
X357560D01*
X348060Y183900D02*
X357560D01*
X332310Y166400D02*
Y183900D01*
X341810Y166400D02*
Y183900D01*
X332310Y166400D02*
X341810D01*
X332310Y183900D02*
X341810D01*
X388810Y93650D02*
Y111150D01*
X379310Y93650D02*
Y111150D01*
X388810D01*
X379310Y93650D02*
X388810D01*
X370310Y91650D02*
Y113150D01*
X357310Y91650D02*
Y113150D01*
X370310D01*
X357310Y91650D02*
X370310D01*
X332560Y93650D02*
Y111150D01*
X323060Y93650D02*
Y111150D01*
X332560D01*
X323060Y93650D02*
X332560D01*
X319110Y130150D02*
Y181150D01*
X268110Y130150D02*
Y181150D01*
Y130150D02*
X319110D01*
X268110Y181150D02*
X319110D01*
X166360Y107150D02*
Y116650D01*
X183860Y107150D02*
Y116650D01*
X166360D02*
X183860D01*
X166360Y107150D02*
X183860D01*
Y134400D02*
Y143900D01*
X166360Y134400D02*
Y143900D01*
Y134400D02*
X183860D01*
X166360Y143900D02*
X183860D01*
X307310Y93650D02*
X316810D01*
X307310Y111150D02*
X316810D01*
X307310Y93650D02*
Y111150D01*
X316810Y93650D02*
Y111150D01*
X348310Y93650D02*
Y111150D01*
X338810Y93650D02*
Y111150D01*
X348310D01*
X338810Y93650D02*
X348310D01*
M02*
