G04*
G04 #@! TF.GenerationSoftware,Altium Limited,Altium Designer,19.0.11 (319)*
G04*
G04 Layer_Color=8388736*
%FSLAX44Y44*%
%MOMM*%
G71*
G01*
G75*
%ADD12C,0.2000*%
%ADD56C,0.2540*%
%ADD62C,0.1524*%
G36*
X419146Y286934D02*
Y286851D01*
X419132Y286712D01*
Y286532D01*
X419118Y286283D01*
Y286005D01*
X419104Y285672D01*
Y285298D01*
Y280083D01*
Y280070D01*
Y280028D01*
Y279958D01*
Y279875D01*
X419118Y279695D01*
X419132Y279612D01*
X419146Y279529D01*
Y279515D01*
X419160Y279501D01*
X419174Y279431D01*
X419229Y279334D01*
X419285Y279237D01*
X419312Y279223D01*
X419368Y279168D01*
X419465Y279112D01*
X419590Y279057D01*
X419604D01*
X419631Y279043D01*
X419673Y279029D01*
X419728Y279016D01*
X419881Y278988D01*
X420075Y278946D01*
X420131D01*
X420200Y278932D01*
X420283D01*
X420394Y278918D01*
X420533D01*
X420685Y278904D01*
X420852D01*
Y278350D01*
X415471D01*
Y278904D01*
X415498D01*
X415582Y278918D01*
X415706D01*
X415845Y278932D01*
X416164Y278960D01*
X416317Y278974D01*
X416441Y278988D01*
X416455D01*
X416497Y279002D01*
X416552Y279016D01*
X416608Y279029D01*
X416760Y279085D01*
X416830Y279112D01*
X416899Y279154D01*
X416913D01*
X416927Y279168D01*
X416996Y279237D01*
X417066Y279321D01*
X417135Y279445D01*
Y279459D01*
X417149Y279487D01*
X417163Y279529D01*
X417177Y279598D01*
Y279681D01*
X417190Y279792D01*
X417204Y279931D01*
Y280083D01*
Y284591D01*
Y284604D01*
Y284632D01*
Y284674D01*
X417190Y284743D01*
X417163Y284854D01*
X417135Y284923D01*
X417107Y284965D01*
X417093Y284979D01*
X417038Y285021D01*
X416955Y285062D01*
X416844Y285076D01*
X416816D01*
X416774Y285062D01*
X416733D01*
X416594Y285007D01*
X416497Y284979D01*
X416400Y284923D01*
X416386D01*
X416344Y284896D01*
X416275Y284854D01*
X416178Y284799D01*
X416053Y284715D01*
X415887Y284618D01*
X415693Y284494D01*
X415471Y284341D01*
X415096Y285007D01*
X418341Y286962D01*
X419146D01*
Y286934D01*
D02*
G37*
G36*
X406581Y284618D02*
X406748Y284604D01*
X406942Y284577D01*
X407136Y284549D01*
X407330Y284494D01*
X407510Y284424D01*
X407524Y284410D01*
X407580Y284382D01*
X407663Y284341D01*
X407774Y284272D01*
X407871Y284174D01*
X407996Y284064D01*
X408093Y283939D01*
X408190Y283772D01*
X408204Y283759D01*
X408231Y283689D01*
X408259Y283592D01*
X408315Y283453D01*
X408356Y283273D01*
X408384Y283065D01*
X408412Y282815D01*
X408425Y282538D01*
Y280111D01*
Y280097D01*
Y280042D01*
Y279972D01*
Y279875D01*
Y279667D01*
X408439Y279570D01*
Y279473D01*
Y279459D01*
Y279431D01*
X408453Y279348D01*
X408467Y279237D01*
X408495Y279140D01*
X408509Y279126D01*
X408523Y279071D01*
X408550Y279016D01*
X408592Y278960D01*
X408606Y278946D01*
X408634Y278932D01*
X408689Y278891D01*
X408745Y278863D01*
X408758Y278849D01*
X408828Y278835D01*
X408939Y278794D01*
X409008Y278780D01*
X409091Y278752D01*
Y278350D01*
X406775D01*
X406831Y279154D01*
X406734Y279196D01*
X406706Y279168D01*
X406650Y279112D01*
X406539Y279029D01*
X406415Y278918D01*
X406262Y278807D01*
X406096Y278683D01*
X405915Y278572D01*
X405735Y278475D01*
X405707Y278461D01*
X405652Y278447D01*
X405555Y278405D01*
X405430Y278364D01*
X405277Y278322D01*
X405111Y278294D01*
X404917Y278267D01*
X404723Y278253D01*
X404626D01*
X404529Y278267D01*
X404404Y278280D01*
X404251Y278294D01*
X404099Y278336D01*
X403932Y278377D01*
X403780Y278447D01*
X403766Y278461D01*
X403710Y278489D01*
X403641Y278530D01*
X403558Y278585D01*
X403461Y278669D01*
X403364Y278752D01*
X403266Y278863D01*
X403183Y278988D01*
X403169Y279002D01*
X403156Y279043D01*
X403114Y279126D01*
X403086Y279223D01*
X403045Y279334D01*
X403003Y279473D01*
X402989Y279626D01*
X402975Y279792D01*
Y279806D01*
Y279834D01*
Y279875D01*
X402989Y279945D01*
X403017Y280111D01*
X403086Y280319D01*
X403197Y280541D01*
X403266Y280666D01*
X403350Y280791D01*
X403461Y280902D01*
X403586Y281026D01*
X403724Y281137D01*
X403877Y281234D01*
X403891D01*
X403918Y281262D01*
X403974Y281290D01*
X404043Y281318D01*
X404140Y281359D01*
X404265Y281415D01*
X404404Y281456D01*
X404556Y281512D01*
X404737Y281567D01*
X404945Y281623D01*
X405167Y281678D01*
X405416Y281734D01*
X405680Y281789D01*
X405971Y281831D01*
X406290Y281872D01*
X406623Y281900D01*
Y282496D01*
Y282524D01*
Y282593D01*
Y282691D01*
X406609Y282815D01*
X406595Y282968D01*
X406567Y283107D01*
X406526Y283259D01*
X406484Y283384D01*
Y283398D01*
X406456Y283440D01*
X406428Y283495D01*
X406401Y283564D01*
X406290Y283703D01*
X406221Y283772D01*
X406151Y283828D01*
X406137D01*
X406110Y283842D01*
X406068Y283869D01*
X406012Y283897D01*
X405860Y283939D01*
X405652Y283953D01*
X405555D01*
X405485Y283939D01*
X405333Y283911D01*
X405167Y283855D01*
X405153D01*
X405125Y283842D01*
X405097Y283814D01*
X405042Y283772D01*
X404986Y283717D01*
X404917Y283661D01*
X404847Y283578D01*
X404778Y283481D01*
Y283467D01*
X404750Y283426D01*
X404723Y283370D01*
X404681Y283287D01*
X404640Y283176D01*
X404598Y283037D01*
X404570Y282885D01*
X404529Y282705D01*
X403350D01*
Y283842D01*
X403377Y283855D01*
X403447Y283883D01*
X403558Y283939D01*
X403683Y283994D01*
X403835Y284050D01*
X404002Y284119D01*
X404154Y284174D01*
X404307Y284230D01*
X404320D01*
X404376Y284258D01*
X404445Y284286D01*
X404542Y284313D01*
X404667Y284341D01*
X404792Y284382D01*
X405056Y284452D01*
X405069D01*
X405125Y284466D01*
X405194Y284480D01*
X405277Y284507D01*
X405499Y284549D01*
X405721Y284591D01*
X405735D01*
X405777Y284604D01*
X405832D01*
X405901Y284618D01*
X405999D01*
X406096Y284632D01*
X406442D01*
X406581Y284618D01*
D02*
G37*
G36*
X399383Y286837D02*
X399564D01*
X399758Y286823D01*
X399938Y286810D01*
X400118Y286782D01*
X400146D01*
X400215Y286768D01*
X400326Y286740D01*
X400465Y286712D01*
X400618Y286671D01*
X400798Y286615D01*
X400964Y286546D01*
X401131Y286463D01*
X401145Y286449D01*
X401200Y286421D01*
X401269Y286380D01*
X401353Y286310D01*
X401450Y286227D01*
X401547Y286130D01*
X401644Y286005D01*
X401727Y285867D01*
X401741Y285853D01*
X401769Y285797D01*
X401796Y285728D01*
X401838Y285617D01*
X401880Y285492D01*
X401921Y285340D01*
X401935Y285159D01*
X401949Y284979D01*
Y284965D01*
Y284923D01*
X401935Y284840D01*
X401921Y284743D01*
X401894Y284632D01*
X401866Y284494D01*
X401810Y284341D01*
X401741Y284188D01*
X401644Y284008D01*
X401533Y283842D01*
X401394Y283661D01*
X401242Y283481D01*
X401048Y283315D01*
X400812Y283148D01*
X400562Y282996D01*
X400257Y282857D01*
Y282801D01*
X400271D01*
X400299Y282788D01*
X400340Y282774D01*
X400396Y282746D01*
X400562Y282691D01*
X400756Y282593D01*
X400964Y282483D01*
X401186Y282344D01*
X401394Y282178D01*
X401588Y281997D01*
X401602Y281969D01*
X401658Y281900D01*
X401727Y281803D01*
X401824Y281651D01*
X401907Y281470D01*
X401977Y281262D01*
X402032Y281026D01*
X402046Y280763D01*
Y280735D01*
Y280652D01*
X402032Y280541D01*
X402018Y280388D01*
X401991Y280222D01*
X401963Y280042D01*
X401907Y279848D01*
X401838Y279667D01*
X401824Y279653D01*
X401796Y279598D01*
X401755Y279501D01*
X401685Y279404D01*
X401588Y279279D01*
X401478Y279154D01*
X401353Y279029D01*
X401200Y278904D01*
X401186Y278891D01*
X401131Y278863D01*
X401034Y278807D01*
X400909Y278738D01*
X400770Y278669D01*
X400590Y278599D01*
X400396Y278530D01*
X400188Y278475D01*
X400160D01*
X400091Y278461D01*
X399966Y278433D01*
X399799Y278419D01*
X399577Y278391D01*
X399328Y278364D01*
X399050Y278350D01*
X394890D01*
Y278752D01*
X394904D01*
X394932Y278766D01*
X395015Y278794D01*
X395140Y278835D01*
X395251Y278891D01*
X395278Y278904D01*
X395334Y278946D01*
X395389Y279002D01*
X395445Y279085D01*
X395459Y279112D01*
X395486Y279168D01*
X395514Y279279D01*
X395528Y279404D01*
Y279418D01*
Y279445D01*
X395542Y279487D01*
Y279543D01*
X395556Y279709D01*
Y279903D01*
Y285284D01*
Y285298D01*
Y285340D01*
Y285381D01*
Y285450D01*
Y285617D01*
X395542Y285769D01*
Y285783D01*
Y285811D01*
X395528Y285894D01*
X395500Y285991D01*
X395459Y286102D01*
X395445Y286130D01*
X395403Y286172D01*
X395348Y286241D01*
X395251Y286296D01*
X395223Y286310D01*
X395154Y286352D01*
X395042Y286394D01*
X394890Y286449D01*
Y286851D01*
X399217D01*
X399383Y286837D01*
D02*
G37*
G36*
X412253Y284535D02*
X414028D01*
Y283745D01*
X412253D01*
Y280943D01*
Y280929D01*
Y280915D01*
Y280832D01*
Y280707D01*
X412267Y280541D01*
Y280375D01*
X412281Y280194D01*
X412295Y280028D01*
X412323Y279889D01*
Y279875D01*
X412336Y279834D01*
X412350Y279778D01*
X412378Y279709D01*
X412447Y279543D01*
X412489Y279459D01*
X412545Y279390D01*
X412558D01*
X412572Y279362D01*
X412655Y279321D01*
X412766Y279265D01*
X412850Y279251D01*
X412933Y279237D01*
X413030D01*
X413127Y279251D01*
X413238Y279265D01*
X413266Y279279D01*
X413321Y279293D01*
X413418Y279334D01*
X413529Y279376D01*
X413543D01*
X413557Y279390D01*
X413626Y279431D01*
X413723Y279515D01*
X413848Y279612D01*
X414250Y279085D01*
X414222Y279071D01*
X414153Y279016D01*
X414056Y278932D01*
X413917Y278835D01*
X413765Y278724D01*
X413585Y278613D01*
X413418Y278516D01*
X413238Y278433D01*
X413224Y278419D01*
X413155Y278405D01*
X413072Y278377D01*
X412961Y278350D01*
X412808Y278308D01*
X412655Y278280D01*
X412475Y278267D01*
X412295Y278253D01*
X412212D01*
X412142Y278267D01*
X411976Y278280D01*
X411768Y278322D01*
X411546Y278377D01*
X411324Y278461D01*
X411102Y278585D01*
X410908Y278752D01*
X410894Y278780D01*
X410839Y278849D01*
X410769Y278960D01*
X410686Y279126D01*
X410589Y279334D01*
X410520Y279598D01*
X410464Y279903D01*
X410450Y280264D01*
Y283745D01*
X409674D01*
Y284174D01*
X409688D01*
X409743Y284188D01*
X409812Y284202D01*
X409896Y284230D01*
X410076Y284286D01*
X410173Y284327D01*
X410242Y284369D01*
X410256D01*
X410270Y284396D01*
X410339Y284452D01*
X410437Y284563D01*
X410520Y284701D01*
Y284715D01*
X410533Y284743D01*
X410547Y284785D01*
X410575Y284854D01*
X410603Y284923D01*
X410631Y285021D01*
X410672Y285242D01*
Y285256D01*
X410686Y285312D01*
X410700Y285381D01*
X410714Y285478D01*
X410728Y285603D01*
X410742Y285742D01*
X410755Y285908D01*
X410769Y286088D01*
X412253D01*
Y284535D01*
D02*
G37*
%LPC*%
G36*
X406623Y281290D02*
X406526D01*
X406470Y281276D01*
X406387D01*
X406290Y281262D01*
X406082Y281234D01*
X405846Y281193D01*
X405610Y281124D01*
X405374Y281026D01*
X405180Y280915D01*
X405167Y280902D01*
X405111Y280860D01*
X405042Y280777D01*
X404958Y280666D01*
X404861Y280527D01*
X404792Y280361D01*
X404737Y280166D01*
X404723Y279945D01*
Y279931D01*
Y279875D01*
X404737Y279806D01*
X404750Y279723D01*
X404778Y279626D01*
X404806Y279529D01*
X404861Y279431D01*
X404931Y279348D01*
X404945Y279334D01*
X404972Y279321D01*
X405028Y279293D01*
X405083Y279251D01*
X405180Y279210D01*
X405277Y279182D01*
X405388Y279168D01*
X405527Y279154D01*
X405583D01*
X405638Y279168D01*
X405707D01*
X405874Y279223D01*
X405971Y279251D01*
X406068Y279307D01*
X406082Y279321D01*
X406110Y279334D01*
X406165Y279362D01*
X406221Y279418D01*
X406345Y279543D01*
X406470Y279709D01*
X406484Y279723D01*
X406498Y279750D01*
X406526Y279806D01*
X406553Y279875D01*
X406595Y280042D01*
X406623Y280139D01*
Y280250D01*
Y281290D01*
D02*
G37*
G36*
X398523Y286130D02*
X398066D01*
X397941Y286116D01*
X397789D01*
X397483Y286088D01*
Y283120D01*
X398413D01*
X398537Y283134D01*
X398676Y283148D01*
X398829Y283162D01*
X398995Y283204D01*
X399148Y283245D01*
X399286Y283301D01*
X399300Y283315D01*
X399342Y283342D01*
X399411Y283384D01*
X399494Y283440D01*
X399577Y283509D01*
X399661Y283606D01*
X399758Y283717D01*
X399827Y283828D01*
X399841Y283842D01*
X399855Y283883D01*
X399883Y283967D01*
X399924Y284064D01*
X399966Y284202D01*
X399994Y284355D01*
X400007Y284535D01*
X400021Y284743D01*
Y284771D01*
Y284826D01*
X400007Y284923D01*
X399994Y285034D01*
X399966Y285173D01*
X399938Y285312D01*
X399883Y285436D01*
X399813Y285561D01*
X399799Y285575D01*
X399772Y285617D01*
X399730Y285658D01*
X399675Y285728D01*
X399591Y285797D01*
X399494Y285867D01*
X399383Y285936D01*
X399245Y285991D01*
X399231D01*
X399175Y286019D01*
X399106Y286033D01*
X398995Y286061D01*
X398856Y286088D01*
X398704Y286102D01*
X398523Y286130D01*
D02*
G37*
G36*
Y282399D02*
X397483D01*
Y279085D01*
X397733D01*
X397858Y279071D01*
X398426D01*
X398537Y279085D01*
X398676D01*
X398829Y279099D01*
X398995Y279126D01*
X399148Y279168D01*
X399300Y279210D01*
X399314Y279223D01*
X399370Y279237D01*
X399439Y279279D01*
X399522Y279334D01*
X399619Y279404D01*
X399716Y279487D01*
X399813Y279598D01*
X399897Y279723D01*
X399910Y279737D01*
X399938Y279792D01*
X399966Y279875D01*
X400007Y279986D01*
X400049Y280139D01*
X400091Y280305D01*
X400104Y280513D01*
X400118Y280735D01*
Y280749D01*
Y280805D01*
Y280888D01*
X400104Y280999D01*
X400091Y281124D01*
X400077Y281248D01*
X400007Y281498D01*
Y281512D01*
X399994Y281553D01*
X399966Y281609D01*
X399924Y281678D01*
X399813Y281845D01*
X399661Y282011D01*
X399647Y282025D01*
X399619Y282039D01*
X399577Y282080D01*
X399508Y282122D01*
X399425Y282178D01*
X399342Y282219D01*
X399120Y282302D01*
X399106D01*
X399064Y282316D01*
X398995Y282330D01*
X398912Y282358D01*
X398801Y282372D01*
X398676Y282386D01*
X398523Y282399D01*
D02*
G37*
%LPD*%
D12*
X395250Y26500D02*
Y276500D01*
Y26500D02*
X655250D01*
Y276500D01*
X395250D02*
X655250D01*
D56*
X140000Y371500D02*
X155240Y376580D01*
X140000Y371500D02*
X155240Y366420D01*
X644760D02*
X660000Y371500D01*
X644760Y376580D02*
X660000Y371500D01*
X140000D02*
X356323D01*
X435548D02*
X660000D01*
X140000Y284040D02*
Y374040D01*
X660000Y274040D02*
Y374040D01*
X755750Y300000D02*
X760830Y284760D01*
X750670D02*
X755750Y300000D01*
X750670Y15240D02*
X755750Y0D01*
X760830Y15240D01*
X755750Y185548D02*
Y300000D01*
Y0D02*
Y106323D01*
X630000Y300000D02*
X758290D01*
X635540Y0D02*
X758290D01*
X0Y371500D02*
X15240Y376580D01*
X0Y371500D02*
X15240Y366420D01*
X124760D02*
X140000Y371500D01*
X124760Y376580D02*
X140000Y371500D01*
X0D02*
X27593D01*
X104279D02*
X140000D01*
X0Y204040D02*
Y374040D01*
X140000Y229041D02*
Y374040D01*
D62*
X370544Y375054D02*
X360387D01*
Y367437D01*
X365466Y369976D01*
X368005D01*
X370544Y367437D01*
Y362359D01*
X368005Y359819D01*
X362926D01*
X360387Y362359D01*
X385779Y359819D02*
X375622D01*
X385779Y369976D01*
Y372515D01*
X383240Y375054D01*
X378162D01*
X375622Y372515D01*
X393397Y357280D02*
X395936Y359819D01*
Y362359D01*
X393397D01*
Y359819D01*
X395936D01*
X393397Y357280D01*
X390858Y354741D01*
X406092Y372515D02*
X408632Y375054D01*
X413710D01*
X416249Y372515D01*
Y362359D01*
X413710Y359819D01*
X408632D01*
X406092Y362359D01*
Y372515D01*
X421328D02*
X423867Y375054D01*
X428945D01*
X431484Y372515D01*
Y362359D01*
X428945Y359819D01*
X423867D01*
X421328Y362359D01*
Y372515D01*
X754735Y110387D02*
X752196Y112927D01*
Y118005D01*
X754735Y120544D01*
X757274D01*
X759813Y118005D01*
Y115466D01*
Y118005D01*
X762352Y120544D01*
X764892D01*
X767431Y118005D01*
Y112927D01*
X764892Y110387D01*
X754735Y125623D02*
X752196Y128162D01*
Y133240D01*
X754735Y135779D01*
X764892D01*
X767431Y133240D01*
Y128162D01*
X764892Y125623D01*
X754735D01*
X769970Y143397D02*
X767431Y145936D01*
X764892D01*
Y143397D01*
X767431D01*
Y145936D01*
X769970Y143397D01*
X772509Y140857D01*
X754735Y156093D02*
X752196Y158632D01*
Y163710D01*
X754735Y166249D01*
X764892D01*
X767431Y163710D01*
Y158632D01*
X764892Y156093D01*
X754735D01*
Y171328D02*
X752196Y173867D01*
Y178945D01*
X754735Y181484D01*
X764892D01*
X767431Y178945D01*
Y173867D01*
X764892Y171328D01*
X754735D01*
X31657Y359819D02*
X36735D01*
X34196D01*
Y375054D01*
X31657Y372515D01*
X51970Y359819D02*
Y375054D01*
X44353Y367437D01*
X54510D01*
X62127Y357280D02*
X64666Y359819D01*
Y362359D01*
X62127D01*
Y359819D01*
X64666D01*
X62127Y357280D01*
X59588Y354741D01*
X74823Y372515D02*
X77362Y375054D01*
X82441D01*
X84980Y372515D01*
Y362359D01*
X82441Y359819D01*
X77362D01*
X74823Y362359D01*
Y372515D01*
X90058D02*
X92597Y375054D01*
X97676D01*
X100215Y372515D01*
Y362359D01*
X97676Y359819D01*
X92597D01*
X90058Y362359D01*
Y372515D01*
M02*
