G04*
G04 #@! TF.GenerationSoftware,Altium Limited,Altium Designer,19.0.11 (319)*
G04*
G04 Layer_Physical_Order=1*
G04 Layer_Color=255*
%FSLAX44Y44*%
%MOMM*%
G71*
G01*
G75*
%ADD13R,0.9500X0.8500*%
%ADD14R,0.8000X0.9000*%
%ADD15R,0.8500X0.9500*%
%ADD16O,1.0000X4.0000*%
%ADD17R,0.7000X0.3000*%
%ADD18R,0.7500X1.5500*%
%ADD19R,0.8000X0.3000*%
%ADD20R,0.9000X1.0000*%
%ADD21R,1.0000X0.9000*%
%ADD22R,0.9000X0.8000*%
%ADD23O,1.7000X0.6000*%
%ADD24R,12.7000X1.2700*%
%ADD25R,12.0650X1.2700*%
G04:AMPARAMS|DCode=26|XSize=0.95mm|YSize=0.85mm|CornerRadius=0mm|HoleSize=0mm|Usage=FLASHONLY|Rotation=45.000|XOffset=0mm|YOffset=0mm|HoleType=Round|Shape=Rectangle|*
%AMROTATEDRECTD26*
4,1,4,-0.0354,-0.6364,-0.6364,-0.0354,0.0354,0.6364,0.6364,0.0354,-0.0354,-0.6364,0.0*
%
%ADD26ROTATEDRECTD26*%

G04:AMPARAMS|DCode=27|XSize=1mm|YSize=0.9mm|CornerRadius=0mm|HoleSize=0mm|Usage=FLASHONLY|Rotation=225.000|XOffset=0mm|YOffset=0mm|HoleType=Round|Shape=Rectangle|*
%AMROTATEDRECTD27*
4,1,4,0.0354,0.6718,0.6718,0.0354,-0.0354,-0.6718,-0.6718,-0.0354,0.0354,0.6718,0.0*
%
%ADD27ROTATEDRECTD27*%

%ADD28R,1.4000X0.7500*%
%ADD29O,0.7000X0.3000*%
%ADD30R,0.3000X0.7000*%
%ADD31R,3.6000X3.6000*%
%ADD52R,1.6000X1.6000*%
%ADD53C,1.6000*%
%ADD55C,1.0000*%
%ADD56C,0.2540*%
%ADD57C,0.6000*%
G36*
X382250Y355000D02*
X382250Y300000D01*
X630000Y300000D01*
X631966D01*
X635865Y299487D01*
X639664Y298469D01*
X643297Y296964D01*
X646703Y294998D01*
X649823Y292604D01*
X652604Y289823D01*
X654997Y286703D01*
X656964Y283298D01*
X658469Y279664D01*
X659487Y275866D01*
X660000Y271967D01*
Y268500D01*
X715000D01*
Y239399D01*
X714102Y238501D01*
X660000Y238503D01*
Y193500D01*
X715000D01*
Y163500D01*
X670000Y163500D01*
X660000Y163500D01*
X660000Y133502D01*
X670000D01*
X715000Y133502D01*
Y103502D01*
X670000Y103502D01*
X660000Y103502D01*
X660000Y58500D01*
X715000D01*
Y28500D01*
X670000Y28500D01*
X659963Y28500D01*
X659868Y26599D01*
X659199Y22851D01*
X658062Y19218D01*
X656474Y15757D01*
X654462Y12525D01*
X652057Y9574D01*
X649298Y6950D01*
X646230Y4696D01*
X642902Y2847D01*
X639366Y1435D01*
X635680Y481D01*
X631904Y-0D01*
X630000Y0D01*
X160000D01*
X158030Y0D01*
X154166Y768D01*
X150526Y2276D01*
X147250Y4465D01*
X144464Y7250D01*
X142275Y10526D01*
X140768Y14166D01*
X140000Y18030D01*
X140000Y20000D01*
X140000Y75001D01*
X139928Y76472D01*
X139355Y79356D01*
X138230Y82072D01*
X136596Y84517D01*
X134517Y86597D01*
X132072Y88230D01*
X129355Y89355D01*
X126471Y89928D01*
X125001Y90000D01*
X125001Y90000D01*
X125001Y90000D01*
X10000D01*
X9015Y90000D01*
X7083Y90384D01*
X5263Y91138D01*
X3625Y92232D01*
X2232Y93625D01*
X1138Y95263D01*
X384Y97083D01*
X-0Y99015D01*
X0Y100000D01*
Y200000D01*
Y200985D01*
X384Y202917D01*
X1138Y204736D01*
X2233Y206374D01*
X3625Y207767D01*
X5263Y208862D01*
X7083Y209615D01*
X9015Y210000D01*
X10000D01*
X10000Y210000D01*
X125001D01*
X126471Y210072D01*
X129355Y210646D01*
X132072Y211772D01*
X134517Y213405D01*
X136596Y215485D01*
X138229Y217930D01*
X139354Y220647D01*
X139928Y223531D01*
X140000Y225001D01*
X140000Y225001D01*
Y280000D01*
X140000Y281970D01*
X140768Y285833D01*
X142276Y289473D01*
X144465Y292749D01*
X147250Y295535D01*
X150526Y297723D01*
X154166Y299231D01*
X158030Y300000D01*
X160000Y300000D01*
X160000Y300000D01*
X352250D01*
Y355000D01*
X382250Y355000D01*
D02*
G37*
%LPC*%
G36*
X373520Y324270D02*
X361480D01*
Y313230D01*
X364910D01*
Y298655D01*
X364422Y298328D01*
X363478Y296916D01*
X363146Y295250D01*
X363478Y293584D01*
X363614Y293380D01*
X363015Y292260D01*
X170920D01*
X169929Y292063D01*
X169089Y291501D01*
X155076Y277489D01*
X154500Y277604D01*
X152834Y277272D01*
X151421Y276329D01*
X150478Y274916D01*
X150146Y273250D01*
X150478Y271584D01*
X151421Y270172D01*
X152834Y269228D01*
X154500Y268896D01*
X156166Y269228D01*
X157578Y270172D01*
X158522Y271584D01*
X158854Y273250D01*
X158739Y273827D01*
X171993Y287080D01*
X178759D01*
X179245Y285907D01*
X170826Y277489D01*
X170250Y277604D01*
X168584Y277272D01*
X167171Y276329D01*
X166228Y274916D01*
X165896Y273250D01*
X166228Y271584D01*
X167171Y270172D01*
X168584Y269228D01*
X170250Y268896D01*
X171916Y269228D01*
X173328Y270172D01*
X174272Y271584D01*
X174604Y273250D01*
X174489Y273827D01*
X183933Y283270D01*
X190699D01*
X191185Y282097D01*
X186576Y277489D01*
X186000Y277604D01*
X184334Y277272D01*
X182922Y276329D01*
X181978Y274916D01*
X181646Y273250D01*
X181978Y271584D01*
X182922Y270172D01*
X184334Y269228D01*
X186000Y268896D01*
X187666Y269228D01*
X189079Y270172D01*
X190022Y271584D01*
X190354Y273250D01*
X190239Y273827D01*
X195873Y279461D01*
X202582D01*
X203042Y278358D01*
X202248Y277505D01*
X201750Y277604D01*
X200084Y277272D01*
X198671Y276329D01*
X197728Y274916D01*
X197396Y273250D01*
X197728Y271584D01*
X198671Y270172D01*
X200084Y269228D01*
X201750Y268896D01*
X203416Y269228D01*
X204828Y270172D01*
X205772Y271584D01*
X206104Y273250D01*
X205989Y273827D01*
X207813Y275651D01*
X246349D01*
X246947Y274530D01*
X246838Y274366D01*
X246506Y272700D01*
X246838Y271034D01*
X247782Y269622D01*
X249194Y268678D01*
X250860Y268347D01*
X261860D01*
X263526Y268678D01*
X264331Y269216D01*
X288520Y245027D01*
Y227148D01*
X287250Y226622D01*
X266124Y247748D01*
X265882Y248966D01*
X264938Y250379D01*
X263526Y251322D01*
X261860Y251654D01*
X250860D01*
X249194Y251322D01*
X247782Y250379D01*
X246838Y248966D01*
X246506Y247300D01*
X246838Y245634D01*
X247782Y244222D01*
X249194Y243278D01*
X250860Y242947D01*
X261860D01*
X263312Y243235D01*
X283520Y223027D01*
Y189688D01*
X282250Y189162D01*
X263331Y208081D01*
X262764Y208460D01*
X263039Y209730D01*
X269770D01*
Y222270D01*
X261392D01*
X258900Y224763D01*
Y230247D01*
X261860D01*
X263526Y230578D01*
X264938Y231522D01*
X265882Y232934D01*
X266214Y234600D01*
X265882Y236266D01*
X264938Y237679D01*
X263526Y238622D01*
X261860Y238954D01*
X250860D01*
X249194Y238622D01*
X247782Y237679D01*
X247455Y237190D01*
X242020D01*
Y240270D01*
X231480D01*
Y228730D01*
X242020D01*
Y232010D01*
X247455D01*
X247782Y231522D01*
X249194Y230578D01*
X250860Y230247D01*
X253720D01*
Y223690D01*
X253917Y222699D01*
X254479Y221859D01*
X258230Y218107D01*
Y210110D01*
X258230Y209730D01*
X257329Y208840D01*
X246573D01*
X223020Y232393D01*
Y240270D01*
X212480D01*
Y237090D01*
X207770D01*
Y240020D01*
X199333D01*
X198829Y241181D01*
X199478Y241980D01*
X207770D01*
Y249858D01*
X209323Y251410D01*
X221980D01*
Y248730D01*
X232520D01*
Y260270D01*
X231500D01*
X231272Y261416D01*
X230329Y262829D01*
X228916Y263772D01*
X227250Y264104D01*
X225584Y263772D01*
X224172Y262829D01*
X223228Y261416D01*
X223000Y260270D01*
X221980D01*
Y256590D01*
X208250D01*
X207259Y256393D01*
X206419Y255831D01*
X203608Y253020D01*
X195730D01*
Y245643D01*
X184169Y234081D01*
X183607Y233241D01*
X183410Y232250D01*
Y225270D01*
X179980D01*
Y222340D01*
X176270D01*
Y225270D01*
X164230D01*
Y222340D01*
X160520D01*
Y225270D01*
X148480D01*
Y214230D01*
X160520D01*
Y217160D01*
X164230D01*
Y214230D01*
X176270D01*
Y217160D01*
X179980D01*
Y214230D01*
X192020D01*
Y217160D01*
X195730D01*
Y214230D01*
X207770D01*
Y225270D01*
X195730D01*
Y222340D01*
X192020D01*
Y225270D01*
X188590D01*
Y231177D01*
X194557Y237144D01*
X195730Y236658D01*
Y228980D01*
X207770D01*
Y231910D01*
X212480D01*
Y228730D01*
X219357D01*
X241884Y206203D01*
X241398Y205030D01*
X207770D01*
Y212270D01*
X195730D01*
Y201230D01*
X196640D01*
X197446Y200248D01*
X197396Y200000D01*
X197728Y198334D01*
X198671Y196922D01*
X200084Y195978D01*
X201750Y195646D01*
X203416Y195978D01*
X204828Y196922D01*
X205772Y198334D01*
X206074Y199850D01*
X258849D01*
X273340Y185359D01*
Y177130D01*
X313880D01*
Y186670D01*
X313700D01*
Y191952D01*
X314970Y192337D01*
X315481Y191572D01*
X316894Y190628D01*
X318560Y190296D01*
X320226Y190628D01*
X321638Y191572D01*
X322582Y192984D01*
X322860Y194380D01*
X324580D01*
Y205420D01*
X313700D01*
Y207380D01*
X324580D01*
Y218420D01*
X322860D01*
X322582Y219816D01*
X321764Y221040D01*
X321978Y221779D01*
X322305Y222310D01*
X334310D01*
X335301Y222508D01*
X336141Y223069D01*
X343141Y230069D01*
X343703Y230909D01*
X343900Y231900D01*
Y253900D01*
X343703Y254891D01*
X343141Y255731D01*
X337041Y261831D01*
X336555Y262157D01*
X335938Y263079D01*
X334526Y264023D01*
X332860Y264354D01*
X321860D01*
X320194Y264023D01*
X318782Y263079D01*
X317838Y261666D01*
X317506Y260000D01*
X317838Y258334D01*
X318782Y256922D01*
X320194Y255978D01*
X321860Y255647D01*
X332860D01*
X334526Y255978D01*
X335152Y256396D01*
X338720Y252827D01*
Y232999D01*
X337961Y232345D01*
X337302Y232705D01*
X336910Y233074D01*
X337214Y234600D01*
X336882Y236266D01*
X335938Y237679D01*
X334526Y238622D01*
X332860Y238954D01*
X321860D01*
X320194Y238622D01*
X319405Y238096D01*
X318610Y238254D01*
X316944Y237922D01*
X315532Y236979D01*
X314588Y235566D01*
X314256Y233900D01*
X314487Y232740D01*
X309616Y227868D01*
X308238Y228286D01*
X308132Y228816D01*
X307188Y230229D01*
X305776Y231173D01*
X305583Y231211D01*
X305214Y232426D01*
X316836Y244048D01*
X319041D01*
X320194Y243278D01*
X321860Y242947D01*
X332860D01*
X334526Y243278D01*
X335938Y244222D01*
X336882Y245634D01*
X337214Y247300D01*
X336882Y248966D01*
X335938Y250379D01*
X334526Y251322D01*
X332860Y251654D01*
X321860D01*
X320194Y251322D01*
X318782Y250379D01*
X318013Y249228D01*
X315763D01*
X314772Y249031D01*
X313932Y248469D01*
X294970Y229507D01*
X293700Y230033D01*
Y246100D01*
X293503Y247091D01*
X292941Y247931D01*
X266492Y274380D01*
X266596Y274998D01*
X266952Y275651D01*
X420687D01*
X654919Y41419D01*
X655759Y40857D01*
X656750Y40660D01*
X673230D01*
Y37230D01*
X684270D01*
Y49270D01*
X673230D01*
Y45840D01*
X657823D01*
X425375Y278287D01*
X425861Y279461D01*
X491877D01*
X654919Y116419D01*
X655759Y115857D01*
X656750Y115660D01*
X672980D01*
Y112230D01*
X684020D01*
Y124270D01*
X672980D01*
Y120840D01*
X657823D01*
X496565Y282097D01*
X497051Y283270D01*
X547211D01*
X654063Y176419D01*
X654903Y175857D01*
X655894Y175660D01*
X673230D01*
Y172230D01*
X684270D01*
Y184270D01*
X673230D01*
Y180840D01*
X656967D01*
X551899Y285907D01*
X552386Y287080D01*
X619257D01*
X640679Y265659D01*
X640006Y264536D01*
X638199Y265084D01*
X635000Y265399D01*
X631801Y265084D01*
X628724Y264151D01*
X625889Y262635D01*
X623404Y260596D01*
X621365Y258111D01*
X619849Y255276D01*
X618916Y252199D01*
X618601Y249000D01*
X618916Y245801D01*
X619849Y242724D01*
X621365Y239889D01*
X623404Y237404D01*
X625889Y235365D01*
X628724Y233849D01*
X631801Y232916D01*
X635000Y232601D01*
X638199Y232916D01*
X641276Y233849D01*
X644111Y235365D01*
X646596Y237404D01*
X648635Y239889D01*
X650151Y242724D01*
X651084Y245801D01*
X651399Y249000D01*
X651084Y252199D01*
X650536Y254006D01*
X651659Y254679D01*
X654419Y251919D01*
X655259Y251357D01*
X656250Y251160D01*
X674480D01*
Y247730D01*
X685520D01*
Y259770D01*
X674480D01*
Y256340D01*
X657323D01*
X622161Y291501D01*
X621321Y292063D01*
X620330Y292260D01*
X371985D01*
X371386Y293380D01*
X371522Y293584D01*
X371854Y295250D01*
X371522Y296916D01*
X370578Y298328D01*
X370090Y298655D01*
Y313230D01*
X373520D01*
Y324270D01*
D02*
G37*
G36*
X242810Y264504D02*
X241144Y264172D01*
X239731Y263229D01*
X238788Y261816D01*
X238456Y260150D01*
X238788Y258484D01*
X239731Y257072D01*
X241144Y256128D01*
X242810Y255797D01*
X244476Y256128D01*
X245888Y257072D01*
X246165Y257485D01*
X247405D01*
X247782Y256922D01*
X249194Y255978D01*
X250860Y255647D01*
X261860D01*
X263526Y255978D01*
X264938Y256922D01*
X265882Y258334D01*
X266214Y260000D01*
X265882Y261666D01*
X264938Y263079D01*
X263526Y264023D01*
X261860Y264354D01*
X250860D01*
X249194Y264023D01*
X247782Y263079D01*
X247505Y262665D01*
X246265D01*
X245888Y263229D01*
X244476Y264172D01*
X242810Y264504D01*
D02*
G37*
G36*
X160000Y265399D02*
X156801Y265084D01*
X153724Y264151D01*
X150889Y262635D01*
X148404Y260596D01*
X146365Y258111D01*
X144849Y255276D01*
X143916Y252199D01*
X143601Y249000D01*
X143916Y245801D01*
X144849Y242724D01*
X146365Y239889D01*
X148404Y237404D01*
X150889Y235365D01*
X153724Y233849D01*
X156801Y232916D01*
X160000Y232601D01*
X163199Y232916D01*
X166276Y233849D01*
X169111Y235365D01*
X171596Y237404D01*
X173635Y239889D01*
X175151Y242724D01*
X176084Y245801D01*
X176399Y249000D01*
X176084Y252199D01*
X175151Y255276D01*
X173635Y258111D01*
X171596Y260596D01*
X169111Y262635D01*
X166276Y264151D01*
X163199Y265084D01*
X160000Y265399D01*
D02*
G37*
G36*
X367500Y221104D02*
X365834Y220772D01*
X364422Y219828D01*
X363478Y218416D01*
X363299Y217520D01*
X361980D01*
Y213590D01*
X353068D01*
X352077Y213393D01*
X351236Y212831D01*
X327689Y189284D01*
X327127Y188443D01*
X326930Y187452D01*
Y169843D01*
X325803Y168716D01*
X324630Y169202D01*
Y175920D01*
X315090D01*
Y170380D01*
Y160380D01*
Y150380D01*
Y140380D01*
X315090Y140380D01*
X315227Y139110D01*
X315036Y138150D01*
X315251Y137069D01*
X315863Y136153D01*
X316779Y135541D01*
X317860Y135326D01*
X321472D01*
X325220Y131578D01*
Y118055D01*
X324731Y117729D01*
X323788Y116316D01*
X323510Y114920D01*
X321540D01*
Y103380D01*
X334080D01*
Y114920D01*
X332110D01*
X331832Y116316D01*
X330888Y117729D01*
X330400Y118055D01*
Y130739D01*
X331573Y131225D01*
X340470Y122327D01*
Y114920D01*
X337290D01*
Y103380D01*
X349830D01*
Y107060D01*
X355540D01*
Y104630D01*
X371081D01*
X371607Y103360D01*
X368417Y100170D01*
X355540D01*
Y90130D01*
X372080D01*
Y96508D01*
X378952Y103380D01*
X390330D01*
Y114920D01*
X381452D01*
X376391Y119981D01*
X375551Y120543D01*
X374560Y120740D01*
X355383D01*
X347022Y129101D01*
X346456Y130137D01*
X355323Y139004D01*
X353075Y141252D01*
X355509Y143687D01*
X357860Y141336D01*
X366374Y149850D01*
X358567Y157656D01*
X350054Y149143D01*
X351847Y147350D01*
X349412Y144915D01*
X347164Y147164D01*
X344561Y144561D01*
X334141Y154981D01*
X333301Y155543D01*
X332310Y155740D01*
X329358D01*
X328832Y157010D01*
X334452Y162630D01*
X343330D01*
Y165810D01*
X346540D01*
Y162630D01*
X359080D01*
Y165810D01*
X362290D01*
Y162630D01*
X374830D01*
Y174170D01*
X362290D01*
Y170990D01*
X359080D01*
Y174170D01*
X346540D01*
Y170990D01*
X343330D01*
Y174170D01*
X332110D01*
Y186380D01*
X354140Y208410D01*
X361980D01*
Y205480D01*
X373020D01*
Y217520D01*
X371701D01*
X371522Y218416D01*
X370578Y219828D01*
X369166Y220772D01*
X367500Y221104D01*
D02*
G37*
G36*
X386020Y217520D02*
X374980D01*
Y205480D01*
X377910D01*
Y200413D01*
X369136Y191639D01*
X368560Y191754D01*
X366894Y191422D01*
X365481Y190479D01*
X364538Y189066D01*
X364260Y187670D01*
X362290D01*
Y176130D01*
X374830D01*
Y187670D01*
X374288D01*
X373762Y188940D01*
X382331Y197509D01*
X382893Y198349D01*
X383090Y199340D01*
Y205480D01*
X386020D01*
Y217520D01*
D02*
G37*
G36*
X192020Y212270D02*
X179980D01*
Y201230D01*
X180940D01*
X181745Y200248D01*
X181646Y199750D01*
X181978Y198084D01*
X182922Y196672D01*
X184334Y195728D01*
X186000Y195396D01*
X186576Y195511D01*
X206514Y175573D01*
X206028Y174400D01*
X199263D01*
X174489Y199174D01*
X174604Y199750D01*
X174505Y200248D01*
X175310Y201230D01*
X176270D01*
Y212270D01*
X164230D01*
Y201230D01*
X165190D01*
X165996Y200248D01*
X165896Y199750D01*
X166228Y198084D01*
X167171Y196672D01*
X168584Y195728D01*
X170250Y195396D01*
X170826Y195511D01*
X194574Y171763D01*
X194088Y170590D01*
X188175D01*
X158814Y199951D01*
X158755Y200248D01*
X159560Y201230D01*
X160520D01*
Y212270D01*
X148480D01*
Y201230D01*
X149440D01*
X150246Y200248D01*
X150146Y199750D01*
X150478Y198084D01*
X151421Y196672D01*
X152834Y195728D01*
X154500Y195396D01*
X155787Y195652D01*
X183346Y168093D01*
X182860Y166920D01*
X176090D01*
Y154880D01*
X187130D01*
Y158310D01*
X191340D01*
Y154380D01*
X197125D01*
X208526Y142979D01*
X204053Y138506D01*
X202880Y138992D01*
Y145920D01*
X191340D01*
Y142350D01*
X190070Y142032D01*
X189939Y142229D01*
X188526Y143173D01*
X187130Y143450D01*
Y145170D01*
X176090D01*
Y133130D01*
X187130D01*
Y134850D01*
X188526Y135128D01*
X189939Y136072D01*
X190070Y136269D01*
X191340Y135950D01*
Y135380D01*
X199268D01*
X199754Y134207D01*
X183468Y117920D01*
X176090D01*
Y105880D01*
X187130D01*
Y114258D01*
X213389Y140517D01*
X213726Y141020D01*
X227920D01*
X228911Y141218D01*
X229751Y141779D01*
X233533Y145561D01*
X246062D01*
X246588Y144291D01*
X213387Y111090D01*
X211110Y111543D01*
X208664Y111056D01*
X206590Y109671D01*
X205749Y108412D01*
X204221D01*
X203380Y109671D01*
X202973Y109943D01*
X203214Y111150D01*
X202882Y112816D01*
X201938Y114229D01*
X200526Y115173D01*
X198860Y115504D01*
X197194Y115173D01*
X195781Y114229D01*
X194838Y112816D01*
X194506Y111150D01*
X194746Y109943D01*
X194340Y109671D01*
X192954Y107597D01*
X192467Y105150D01*
Y75150D01*
X192954Y72704D01*
X194340Y70630D01*
X196414Y69244D01*
X198860Y68757D01*
X201306Y69244D01*
X203380Y70630D01*
X204221Y71888D01*
X205749D01*
X206590Y70630D01*
X208664Y69244D01*
X211110Y68757D01*
X213556Y69244D01*
X215630Y70630D01*
X216471Y71888D01*
X217999D01*
X218840Y70630D01*
X220914Y69244D01*
X223360Y68757D01*
X225806Y69244D01*
X227880Y70630D01*
X229266Y72704D01*
X229753Y75150D01*
Y105150D01*
X229300Y107428D01*
X257433Y135561D01*
X262590D01*
Y135380D01*
X272130D01*
Y145380D01*
Y155380D01*
Y165380D01*
Y175920D01*
X262952D01*
X259830Y179043D01*
Y187420D01*
X247290D01*
Y184240D01*
X243980D01*
Y187420D01*
X232871D01*
X232772Y187916D01*
X231828Y189328D01*
X230416Y190272D01*
X228750Y190604D01*
X227084Y190272D01*
X225672Y189328D01*
X224728Y187916D01*
X224396Y186250D01*
X224728Y184584D01*
X225672Y183172D01*
X227084Y182228D01*
X228750Y181896D01*
X229326Y182011D01*
X231440Y179898D01*
Y175880D01*
X243980D01*
Y179060D01*
X247290D01*
Y175880D01*
X255667D01*
X259538Y172010D01*
X259011Y170740D01*
X218673D01*
X190239Y199174D01*
X190354Y199750D01*
X190254Y200248D01*
X191060Y201230D01*
X192020D01*
Y212270D01*
D02*
G37*
G36*
X138621Y168415D02*
X15431D01*
Y153175D01*
X138621D01*
Y158205D01*
X163090D01*
Y154880D01*
X174130D01*
Y166920D01*
X163090D01*
Y163385D01*
X138621D01*
Y168415D01*
D02*
G37*
G36*
X478020Y160770D02*
X459480D01*
Y142230D01*
X478020D01*
Y160770D01*
D02*
G37*
G36*
X138621Y146825D02*
X15431D01*
Y131585D01*
X138621D01*
Y136615D01*
X163090D01*
Y133130D01*
X174130D01*
Y145170D01*
X163090D01*
Y141795D01*
X138621D01*
Y146825D01*
D02*
G37*
G36*
X367760Y148464D02*
X359246Y139950D01*
X367053Y132144D01*
X368280Y133372D01*
X369394Y132628D01*
X371060Y132296D01*
X372726Y132628D01*
X374138Y133572D01*
X375082Y134984D01*
X375414Y136650D01*
X375082Y138316D01*
X374338Y139430D01*
X375566Y140658D01*
X367760Y148464D01*
D02*
G37*
G36*
X313880Y134170D02*
X273340D01*
Y124630D01*
X273340D01*
X273027Y123490D01*
X272310D01*
X271319Y123293D01*
X270479Y122732D01*
X265229Y117481D01*
X264854Y116920D01*
X261540D01*
Y104880D01*
X264470D01*
Y101170D01*
X261540D01*
Y89130D01*
X266418D01*
X274540Y81008D01*
Y72630D01*
X282917D01*
X283660Y71887D01*
Y67420D01*
X275040D01*
Y67170D01*
X265290D01*
Y54420D01*
X255040D01*
Y48880D01*
X259438D01*
X263249Y45069D01*
X264089Y44508D01*
X265080Y44310D01*
X289205D01*
X289531Y43822D01*
X290944Y42878D01*
X292610Y42547D01*
X294276Y42878D01*
X295688Y43822D01*
X296632Y45234D01*
X296964Y46900D01*
X296849Y47477D01*
X302941Y53569D01*
X303503Y54409D01*
X303700Y55400D01*
Y111802D01*
X304970Y112328D01*
X306040Y111258D01*
Y103380D01*
X318080D01*
Y114420D01*
X310202D01*
X308700Y115923D01*
Y124630D01*
X313880D01*
Y134170D01*
D02*
G37*
G36*
X138621Y119520D02*
X9081D01*
Y104280D01*
X138621D01*
Y109310D01*
X163090D01*
Y105880D01*
X174130D01*
Y117920D01*
X163090D01*
Y114490D01*
X138621D01*
Y119520D01*
D02*
G37*
G36*
X635000Y36399D02*
X631801Y36084D01*
X628724Y35151D01*
X625889Y33635D01*
X623404Y31596D01*
X621365Y29111D01*
X619849Y26276D01*
X618916Y23199D01*
X618601Y20000D01*
X618916Y16801D01*
X619849Y13724D01*
X621365Y10889D01*
X623404Y8404D01*
X625889Y6365D01*
X628724Y4849D01*
X631801Y3916D01*
X635000Y3601D01*
X638199Y3916D01*
X641276Y4849D01*
X644111Y6365D01*
X646596Y8404D01*
X648635Y10889D01*
X650151Y13724D01*
X651084Y16801D01*
X651399Y20000D01*
X651084Y23199D01*
X650151Y26276D01*
X648635Y29111D01*
X646596Y31596D01*
X644111Y33635D01*
X641276Y35151D01*
X638199Y36084D01*
X635000Y36399D01*
D02*
G37*
G36*
X160000D02*
X156801Y36084D01*
X153724Y35151D01*
X150889Y33635D01*
X148404Y31596D01*
X146365Y29111D01*
X144849Y26276D01*
X143916Y23199D01*
X143601Y20000D01*
X143916Y16801D01*
X144849Y13724D01*
X146365Y10889D01*
X148404Y8404D01*
X150889Y6365D01*
X153724Y4849D01*
X156801Y3916D01*
X160000Y3601D01*
X163199Y3916D01*
X166276Y4849D01*
X169111Y6365D01*
X171596Y8404D01*
X173635Y10889D01*
X175151Y13724D01*
X176084Y16801D01*
X176399Y20000D01*
X176084Y23199D01*
X175151Y26276D01*
X173635Y29111D01*
X171596Y31596D01*
X169111Y33635D01*
X166276Y35151D01*
X163199Y36084D01*
X160000Y36399D01*
D02*
G37*
%LPD*%
D13*
X201750Y234500D02*
D03*
Y247500D02*
D03*
X367500Y331750D02*
D03*
Y318750D02*
D03*
X201750Y219750D02*
D03*
Y206750D02*
D03*
X186000Y219750D02*
D03*
Y206750D02*
D03*
X170250Y219750D02*
D03*
Y206750D02*
D03*
X154500Y219750D02*
D03*
Y206750D02*
D03*
X318560Y212900D02*
D03*
Y199900D02*
D03*
X312060Y95900D02*
D03*
Y108900D02*
D03*
D14*
X217750Y234500D02*
D03*
X236750D02*
D03*
X227250Y254500D02*
D03*
D15*
X380500Y211500D02*
D03*
X367500D02*
D03*
X678750Y43250D02*
D03*
X691750D02*
D03*
X680000Y253750D02*
D03*
X693000D02*
D03*
X678750Y178250D02*
D03*
X691750D02*
D03*
X678500Y118250D02*
D03*
X691500D02*
D03*
X267060Y95150D02*
D03*
X280060D02*
D03*
X267060Y110900D02*
D03*
X280060D02*
D03*
X181610Y160900D02*
D03*
X168610D02*
D03*
Y111900D02*
D03*
X181610D02*
D03*
Y139150D02*
D03*
X168610D02*
D03*
D16*
X235610Y90150D02*
D03*
X223360D02*
D03*
X211110D02*
D03*
X198860D02*
D03*
D17*
X267360Y153150D02*
D03*
X319860Y143150D02*
D03*
Y148150D02*
D03*
Y153150D02*
D03*
Y158150D02*
D03*
Y163150D02*
D03*
Y168150D02*
D03*
Y173150D02*
D03*
X267360D02*
D03*
Y168150D02*
D03*
Y163150D02*
D03*
Y158150D02*
D03*
Y148150D02*
D03*
Y143150D02*
D03*
Y138150D02*
D03*
D18*
X270310Y58150D02*
D03*
D19*
X260310Y51650D02*
D03*
Y58150D02*
D03*
Y64650D02*
D03*
X280310D02*
D03*
Y58150D02*
D03*
Y51650D02*
D03*
D20*
Y78900D02*
D03*
X266810D02*
D03*
X277500Y216000D02*
D03*
X264000D02*
D03*
D21*
X253560Y181650D02*
D03*
Y195150D02*
D03*
X237710Y181650D02*
D03*
Y195150D02*
D03*
X368560Y181900D02*
D03*
Y168400D02*
D03*
X352810D02*
D03*
Y181900D02*
D03*
X337060Y168400D02*
D03*
Y181900D02*
D03*
X384060Y109150D02*
D03*
Y95650D02*
D03*
X327810Y109150D02*
D03*
Y95650D02*
D03*
X343560Y109150D02*
D03*
Y95650D02*
D03*
D22*
X217110Y150150D02*
D03*
X197110Y140650D02*
D03*
Y159650D02*
D03*
D23*
X327360Y234600D02*
D03*
Y247300D02*
D03*
Y260000D02*
D03*
Y272700D02*
D03*
X256360Y234600D02*
D03*
Y247300D02*
D03*
Y260000D02*
D03*
Y272700D02*
D03*
D24*
X73850Y189600D02*
D03*
Y111900D02*
D03*
D25*
X77025Y160795D02*
D03*
Y139205D02*
D03*
D26*
X358214Y149496D02*
D03*
X367406Y140304D02*
D03*
D27*
X346810Y138650D02*
D03*
X356356Y129104D02*
D03*
D28*
X363810Y95150D02*
D03*
Y109650D02*
D03*
D29*
X319860Y138150D02*
D03*
D30*
X311110Y181900D02*
D03*
X306110D02*
D03*
X301110D02*
D03*
X296110D02*
D03*
X291110D02*
D03*
X286110D02*
D03*
X281110D02*
D03*
X276110D02*
D03*
Y129400D02*
D03*
X281110D02*
D03*
X286110D02*
D03*
X291110D02*
D03*
X296110D02*
D03*
X301110D02*
D03*
X306110D02*
D03*
X311110D02*
D03*
D31*
X293610Y155650D02*
D03*
D52*
X468750Y151500D02*
D03*
D53*
X646750Y100700D02*
D03*
Y202300D02*
D03*
D55*
X160001Y249000D02*
G03*
X160001Y249000I-1J0D01*
G01*
X635001D02*
G03*
X635001Y249000I-1J0D01*
G01*
Y20000D02*
G03*
X635001Y20000I-1J0D01*
G01*
X160001D02*
G03*
X160001Y20000I-1J0D01*
G01*
D56*
X656750Y43250D02*
X678750D01*
X421760Y278240D02*
X656750Y43250D01*
Y118250D02*
X678500D01*
X492950Y282050D02*
X656750Y118250D01*
X655894Y178250D02*
X678750D01*
X548284Y285860D02*
X655894Y178250D01*
X656250Y253750D02*
X680000D01*
X186000Y232250D02*
X201250Y247500D01*
X186000Y219750D02*
Y232250D01*
X201250Y247500D02*
X201750D01*
X186000Y219750D02*
X201750D01*
X170250D02*
X186000D01*
X154500D02*
X170250D01*
X217250Y234500D02*
X245500Y206250D01*
X201750Y234500D02*
X217250D01*
X245500Y206250D02*
X261500D01*
X208250Y254000D02*
X227250D01*
X201750Y247500D02*
X208250Y254000D01*
X227250D02*
Y254500D01*
X204190Y202440D02*
X259922D01*
X201750Y200000D02*
X204190Y202440D01*
X217600Y168150D02*
X267360D01*
X186000Y199750D02*
X217600Y168150D01*
X215190Y164310D02*
X232076D01*
X207690Y171810D02*
X215190Y164310D01*
X198190Y171810D02*
X207690D01*
X170250Y199750D02*
X198190Y171810D01*
X155352Y199750D02*
X187102Y168000D01*
X154500Y199750D02*
X155352D01*
X187102Y168000D02*
X205345D01*
X367500Y295250D02*
Y318750D01*
X367500Y318750D02*
X367500Y318750D01*
X170920Y289670D02*
X620330D01*
X182860Y285860D02*
X548284D01*
X194800Y282050D02*
X492950D01*
X206740Y278240D02*
X421760D01*
X620330Y289670D02*
X656250Y253750D01*
X154500Y273250D02*
X170920Y289670D01*
X170250Y273250D02*
X182860Y285860D01*
X186000Y273250D02*
X194800Y282050D01*
X201750Y273250D02*
X206740Y278240D01*
X380500Y199340D02*
Y211500D01*
X368560Y187400D02*
X380500Y199340D01*
X205345Y168000D02*
X212845Y160500D01*
X230498D01*
X227250Y254500D02*
Y259750D01*
X233350Y181650D02*
X237710D01*
X228750Y186250D02*
X233350Y181650D01*
X237710Y181650D02*
X253560D01*
X262040Y173170D01*
X353068Y211000D02*
X367500D01*
X329520Y168770D02*
Y187452D01*
X353068Y211000D01*
X323900Y163150D02*
X329520Y168770D01*
X367500Y211000D02*
Y216750D01*
X232076Y164310D02*
X233236Y163150D01*
X230498Y160500D02*
X232848Y158150D01*
X259922Y202440D02*
X276110Y186252D01*
X236850Y234600D02*
X256360D01*
X276110Y181900D02*
Y186252D01*
X281110Y181900D02*
Y186640D01*
X261500Y206250D02*
X281110Y186640D01*
X256310Y223690D02*
X264000Y216000D01*
X256310Y223690D02*
Y234550D01*
X256360Y234600D01*
X260320Y51660D02*
X265080Y46900D01*
X292610D01*
X280310Y78900D02*
X286250Y72960D01*
Y66190D02*
Y72960D01*
X284710Y64650D02*
X286250Y66190D01*
X280310Y64650D02*
X284710D01*
X267060Y92150D02*
X280310Y78900D01*
X267060Y92150D02*
Y95150D01*
X223360Y105150D02*
X256360Y138150D01*
X223360Y90150D02*
Y105150D01*
X256360Y138150D02*
X267360D01*
X186000Y199750D02*
Y206750D01*
X201750Y200000D02*
Y206750D01*
X170250Y199750D02*
Y206750D01*
X154500Y199750D02*
Y206750D01*
X233236Y163150D02*
X267360D01*
X208860Y156650D02*
X211518D01*
X197110Y158058D02*
X211558Y143610D01*
Y156690D02*
X228920D01*
X181610Y112400D02*
X211558Y142348D01*
Y143610D01*
X197110Y158058D02*
Y159650D01*
X211558Y143610D02*
X227920D01*
X262040Y173170D02*
X267340D01*
X267360Y173150D01*
X281202Y120900D02*
X285880Y125578D01*
Y129170D01*
X286110Y129400D01*
X272310Y120900D02*
X281202D01*
X319860Y163150D02*
X323900D01*
X326310Y158150D02*
X336560Y168400D01*
X319860Y158150D02*
X326310D01*
X232848D02*
X267360D01*
X267060Y115650D02*
X272310Y120900D01*
X249110Y143150D02*
X267360D01*
X211110Y105150D02*
X249110Y143150D01*
X211110Y90150D02*
Y105150D01*
X311110Y218535D02*
X317475Y224900D01*
X311110Y181900D02*
Y218535D01*
X317475Y224900D02*
X334310D01*
X217110Y150150D02*
X225360D01*
X181610Y111900D02*
Y112400D01*
X326698Y246638D02*
X327360Y247300D01*
X315763Y246638D02*
X326698D01*
X296110Y226985D02*
X315763Y246638D01*
X296110Y181900D02*
Y226985D01*
X334310Y224900D02*
X341310Y231900D01*
Y253900D01*
X335210Y260000D02*
X341310Y253900D01*
X301110Y224150D02*
X304110Y227150D01*
X301110Y181900D02*
Y224150D01*
X306110Y220700D02*
X320010Y234600D01*
X306110Y181900D02*
Y220700D01*
X288110Y51650D02*
X296110Y59650D01*
X343060Y109150D02*
Y123400D01*
X327810Y114650D02*
Y132650D01*
X195610Y139150D02*
X197110Y140650D01*
X186860Y139150D02*
X195610D01*
X232460Y153150D02*
X267360D01*
X232460Y148150D02*
X267360D01*
X228920Y156690D02*
X232460Y153150D01*
X227920Y143610D02*
X232460Y148150D01*
X195860Y160900D02*
X197110Y159650D01*
X181610Y160900D02*
X195860D01*
X296110Y59650D02*
Y129400D01*
X280310Y51650D02*
X288110D01*
X301110Y55400D02*
Y129400D01*
X292610Y46900D02*
X301110Y55400D01*
X211518Y156650D02*
X211558Y156690D01*
X181610Y139150D02*
X186860D01*
X318560Y212900D02*
Y218150D01*
X327360Y260000D02*
X335210D01*
X286110Y181900D02*
Y224100D01*
X263170Y247040D02*
X286110Y224100D01*
X256620Y247040D02*
X263170D01*
X256360Y247300D02*
X256620Y247040D01*
X242810Y260150D02*
X242885Y260075D01*
X256285D01*
X256360Y260000D01*
X291110Y181900D02*
Y246100D01*
X264510Y272700D02*
X291110Y246100D01*
X256360Y272700D02*
X264510D01*
X320010Y234600D02*
X327360D01*
X346810Y138650D02*
X357656Y149496D01*
X358214D01*
X319860Y153150D02*
X332310D01*
X346810Y138650D01*
X352810Y168400D02*
X368560D01*
X337060D02*
X352810D01*
X336560D02*
X337060D01*
X374560Y118150D02*
X383560Y109150D01*
X354310Y118150D02*
X374560D01*
X324420Y148040D02*
X354310Y118150D01*
X319970Y148040D02*
X324420D01*
X381060Y109150D02*
X383560D01*
X319860Y148150D02*
X319970Y148040D01*
X383560Y109150D02*
X384060D01*
X323310Y143150D02*
X343060Y123400D01*
X319860Y143150D02*
X323310D01*
X343060Y109150D02*
X343560D01*
X344060Y109650D02*
X363810D01*
X343560Y109150D02*
X344060Y109650D01*
X367060Y95150D02*
X381060Y109150D01*
X363810Y95150D02*
X367060D01*
X322310Y138150D02*
X327810Y132650D01*
X319860Y138150D02*
X322310D01*
X306110Y114850D02*
X308580Y112380D01*
Y111880D02*
Y112380D01*
Y111880D02*
X311560Y108900D01*
X312060D01*
X306110Y114850D02*
Y129400D01*
X280060Y95150D02*
X285310D01*
X280060Y110900D02*
X285310D01*
X267060D02*
Y115650D01*
Y95150D02*
Y110900D01*
X291110Y64700D02*
Y129400D01*
X284560Y58150D02*
X291110Y64700D01*
X280310Y58150D02*
X284560D01*
X168610Y111900D02*
X168610Y111900D01*
X73850Y111900D02*
X168610D01*
X168505Y160795D02*
X168610Y160900D01*
X77025Y160795D02*
X168505D01*
X168555Y139205D02*
X168610Y139150D01*
X77025Y139205D02*
X168555D01*
D57*
X142000Y201000D02*
D03*
X162250Y172500D02*
D03*
X215750Y181896D02*
D03*
X142000Y172500D02*
D03*
X191750Y256750D02*
D03*
X178750Y261981D02*
D03*
X150000Y289473D02*
D03*
X640469Y45288D02*
D03*
X595468Y255288D02*
D03*
Y135288D02*
D03*
Y75288D02*
D03*
X610468Y45288D02*
D03*
X595468Y15288D02*
D03*
X580468Y225288D02*
D03*
X565468Y195288D02*
D03*
X580468Y165288D02*
D03*
Y105288D02*
D03*
X565468Y75288D02*
D03*
X580468Y45288D02*
D03*
X565468Y15288D02*
D03*
X535469Y195288D02*
D03*
X550468Y165288D02*
D03*
X535469Y135288D02*
D03*
X550468Y105288D02*
D03*
X535469Y75288D02*
D03*
X550468Y45288D02*
D03*
X535469Y15288D02*
D03*
X505469Y255288D02*
D03*
X520469Y225288D02*
D03*
Y165288D02*
D03*
X505469Y135288D02*
D03*
X520469Y105288D02*
D03*
X505469Y75288D02*
D03*
X520469Y45288D02*
D03*
X505469Y15288D02*
D03*
X475469Y255288D02*
D03*
X490469Y225288D02*
D03*
X475469Y195288D02*
D03*
X490469Y165288D02*
D03*
X475469Y135288D02*
D03*
X490469Y105288D02*
D03*
X475469Y75288D02*
D03*
X490469Y45288D02*
D03*
X475469Y15288D02*
D03*
X460469Y225288D02*
D03*
X445469Y195288D02*
D03*
Y135288D02*
D03*
X460469Y105288D02*
D03*
X445469Y75288D02*
D03*
X460469Y45288D02*
D03*
X445469Y15288D02*
D03*
X415469Y255288D02*
D03*
X430469Y225288D02*
D03*
X415469Y195288D02*
D03*
X430469Y165288D02*
D03*
X415469Y135288D02*
D03*
X430469Y105288D02*
D03*
Y45288D02*
D03*
X415469Y15288D02*
D03*
X385469Y255288D02*
D03*
X400469Y225288D02*
D03*
Y165288D02*
D03*
Y45288D02*
D03*
X385469Y15288D02*
D03*
X370469Y45288D02*
D03*
X355469Y15288D02*
D03*
X340469Y45288D02*
D03*
X325469Y15288D02*
D03*
X310469Y45288D02*
D03*
X295469Y15288D02*
D03*
X265469D02*
D03*
X235469D02*
D03*
X205469D02*
D03*
X175469Y75288D02*
D03*
X190469Y45288D02*
D03*
X145469Y75288D02*
D03*
X160469Y45288D02*
D03*
X227084Y243750D02*
D03*
X635500Y229000D02*
D03*
X367500Y216750D02*
D03*
X367500Y295250D02*
D03*
X201750Y273250D02*
D03*
X227250Y259750D02*
D03*
X228750Y186250D02*
D03*
X186000Y273250D02*
D03*
X266250Y186500D02*
D03*
X367500Y338500D02*
D03*
X320610Y182650D02*
D03*
X344750Y155380D02*
D03*
X641750Y285500D02*
D03*
X318610Y122250D02*
D03*
X335152D02*
D03*
X216750Y138000D02*
D03*
X212250Y114500D02*
D03*
X191000Y113000D02*
D03*
X239204Y142348D02*
D03*
X175000Y125250D02*
D03*
X175250Y149850D02*
D03*
X223250Y213750D02*
D03*
X249560D02*
D03*
X649000Y151250D02*
D03*
X610750Y195000D02*
D03*
X553250Y254000D02*
D03*
X359500Y204250D02*
D03*
X201750Y200000D02*
D03*
X186000Y199750D02*
D03*
X170250Y273250D02*
D03*
X170250Y199750D02*
D03*
X154500Y273250D02*
D03*
X154500Y199750D02*
D03*
X698500Y43250D02*
D03*
X699750Y253750D02*
D03*
X698500Y178250D02*
D03*
Y118250D02*
D03*
X208860Y156650D02*
D03*
X223250Y192500D02*
D03*
X277500Y202300D02*
D03*
X198860Y111150D02*
D03*
X225360Y150150D02*
D03*
X304110Y227150D02*
D03*
X318610Y233900D02*
D03*
X293610Y57400D02*
D03*
X292610Y46900D02*
D03*
X186860Y139150D02*
D03*
X327810Y114650D02*
D03*
X371060Y136650D02*
D03*
X318560Y218150D02*
D03*
Y194650D02*
D03*
X368560Y187400D02*
D03*
X242810Y260150D02*
D03*
X285310Y110900D02*
D03*
Y95150D02*
D03*
X304610Y144650D02*
D03*
X293610D02*
D03*
X282610D02*
D03*
X304610Y155650D02*
D03*
X293610D02*
D03*
X282610D02*
D03*
X304610Y166650D02*
D03*
X293610D02*
D03*
X282610D02*
D03*
M02*
