G04*
G04 #@! TF.GenerationSoftware,Altium Limited,Altium Designer,19.0.11 (319)*
G04*
G04 Layer_Color=8421504*
%FSLAX44Y44*%
%MOMM*%
G71*
G01*
G75*
%ADD13R,0.9500X0.8500*%
%ADD14R,0.8000X0.9000*%
%ADD15R,0.8500X0.9500*%
%ADD16O,1.0000X4.0000*%
%ADD17R,0.7000X0.3000*%
%ADD18R,0.7500X1.5500*%
%ADD19R,0.8000X0.3000*%
%ADD20R,0.9000X1.0000*%
%ADD21R,1.0000X0.9000*%
%ADD22R,0.9000X0.8000*%
%ADD23O,1.7000X0.6000*%
%ADD24R,12.7000X1.2700*%
%ADD25R,12.0650X1.2700*%
G04:AMPARAMS|DCode=26|XSize=0.95mm|YSize=0.85mm|CornerRadius=0mm|HoleSize=0mm|Usage=FLASHONLY|Rotation=45.000|XOffset=0mm|YOffset=0mm|HoleType=Round|Shape=Rectangle|*
%AMROTATEDRECTD26*
4,1,4,-0.0354,-0.6364,-0.6364,-0.0354,0.0354,0.6364,0.6364,0.0354,-0.0354,-0.6364,0.0*
%
%ADD26ROTATEDRECTD26*%

G04:AMPARAMS|DCode=27|XSize=1mm|YSize=0.9mm|CornerRadius=0mm|HoleSize=0mm|Usage=FLASHONLY|Rotation=225.000|XOffset=0mm|YOffset=0mm|HoleType=Round|Shape=Rectangle|*
%AMROTATEDRECTD27*
4,1,4,0.0354,0.6718,0.6718,0.0354,-0.0354,-0.6718,-0.6718,-0.0354,0.0354,0.6718,0.0*
%
%ADD27ROTATEDRECTD27*%

%ADD28R,1.4000X0.7500*%
%ADD29O,0.7000X0.3000*%
%ADD30R,0.3000X0.7000*%
%ADD31R,3.6000X3.6000*%
D13*
X201750Y234500D02*
D03*
Y247500D02*
D03*
X367500Y331750D02*
D03*
Y318750D02*
D03*
X201750Y219750D02*
D03*
Y206750D02*
D03*
X186000Y219750D02*
D03*
Y206750D02*
D03*
X170250Y219750D02*
D03*
Y206750D02*
D03*
X154500Y219750D02*
D03*
Y206750D02*
D03*
X318560Y212900D02*
D03*
Y199900D02*
D03*
X312060Y95900D02*
D03*
Y108900D02*
D03*
D14*
X217750Y234500D02*
D03*
X236750D02*
D03*
X227250Y254500D02*
D03*
D15*
X380500Y211500D02*
D03*
X367500D02*
D03*
X678750Y43250D02*
D03*
X691750D02*
D03*
X680000Y253750D02*
D03*
X693000D02*
D03*
X678750Y178250D02*
D03*
X691750D02*
D03*
X678500Y118250D02*
D03*
X691500D02*
D03*
X267060Y95150D02*
D03*
X280060D02*
D03*
X267060Y110900D02*
D03*
X280060D02*
D03*
X181610Y160900D02*
D03*
X168610D02*
D03*
Y111900D02*
D03*
X181610D02*
D03*
Y139150D02*
D03*
X168610D02*
D03*
D16*
X235610Y90150D02*
D03*
X223360D02*
D03*
X211110D02*
D03*
X198860D02*
D03*
D17*
X267360Y153150D02*
D03*
X319860Y143150D02*
D03*
Y148150D02*
D03*
Y153150D02*
D03*
Y158150D02*
D03*
Y163150D02*
D03*
Y168150D02*
D03*
Y173150D02*
D03*
X267360D02*
D03*
Y168150D02*
D03*
Y163150D02*
D03*
Y158150D02*
D03*
Y148150D02*
D03*
Y143150D02*
D03*
Y138150D02*
D03*
D18*
X270310Y58150D02*
D03*
D19*
X260310Y51650D02*
D03*
Y58150D02*
D03*
Y64650D02*
D03*
X280310D02*
D03*
Y58150D02*
D03*
Y51650D02*
D03*
D20*
Y78900D02*
D03*
X266810D02*
D03*
X277500Y216000D02*
D03*
X264000D02*
D03*
D21*
X253560Y181650D02*
D03*
Y195150D02*
D03*
X237710Y181650D02*
D03*
Y195150D02*
D03*
X368560Y181900D02*
D03*
Y168400D02*
D03*
X352810D02*
D03*
Y181900D02*
D03*
X337060Y168400D02*
D03*
Y181900D02*
D03*
X384060Y109150D02*
D03*
Y95650D02*
D03*
X327810Y109150D02*
D03*
Y95650D02*
D03*
X343560Y109150D02*
D03*
Y95650D02*
D03*
D22*
X217110Y150150D02*
D03*
X197110Y140650D02*
D03*
Y159650D02*
D03*
D23*
X327360Y234600D02*
D03*
Y247300D02*
D03*
Y260000D02*
D03*
Y272700D02*
D03*
X256360Y234600D02*
D03*
Y247300D02*
D03*
Y260000D02*
D03*
Y272700D02*
D03*
D24*
X73850Y189600D02*
D03*
Y111900D02*
D03*
D25*
X77025Y160795D02*
D03*
Y139205D02*
D03*
D26*
X358214Y149496D02*
D03*
X367406Y140304D02*
D03*
D27*
X346810Y138650D02*
D03*
X356356Y129104D02*
D03*
D28*
X363810Y95150D02*
D03*
Y109650D02*
D03*
D29*
X319860Y138150D02*
D03*
D30*
X311110Y181900D02*
D03*
X306110D02*
D03*
X301110D02*
D03*
X296110D02*
D03*
X291110D02*
D03*
X286110D02*
D03*
X281110D02*
D03*
X276110D02*
D03*
Y129400D02*
D03*
X281110D02*
D03*
X286110D02*
D03*
X291110D02*
D03*
X296110D02*
D03*
X301110D02*
D03*
X306110D02*
D03*
X311110D02*
D03*
D31*
X293610Y155650D02*
D03*
M02*
