G04*
G04 #@! TF.GenerationSoftware,Altium Limited,Altium Designer,19.0.11 (319)*
G04*
G04 Layer_Color=16711935*
%FSLAX44Y44*%
%MOMM*%
G71*
G01*
G75*
%ADD61C,0.3000*%
D61*
X140000Y20000D02*
G03*
X160000Y0I20000J0D01*
G01*
X631500Y1D02*
G03*
X660000Y28500I0J28500D01*
G01*
Y270000D02*
G03*
X630000Y300000I-30000J0D01*
G01*
X160000Y300000D02*
G03*
X140000Y280000I0J-20000D01*
G01*
X125001Y210000D02*
G03*
X140000Y225001I-1J15000D01*
G01*
X10000Y210000D02*
G03*
X0Y200000I0J-10000D01*
G01*
Y100000D02*
G03*
X10000Y90000I10000J0D01*
G01*
X140000Y75001D02*
G03*
X125001Y90000I-14999J0D01*
G01*
X660000Y58500D02*
X670000D01*
X660000Y28500D02*
X670000D01*
X670000Y133502D02*
X715000D01*
X660000D02*
X670000D01*
X660000Y103502D02*
X670000D01*
X670000Y193500D02*
X715000D01*
X660000Y268500D02*
X715000D01*
X660000Y193500D02*
X670000D01*
X660000Y163500D02*
X670000D01*
X382249Y300000D02*
X630000D01*
X160000Y300000D02*
X352250D01*
Y355000D01*
X382250Y300000D02*
Y355000D01*
X352250D02*
X382250D01*
X660000Y193500D02*
Y238501D01*
X670000Y28500D02*
X715000D01*
X660000Y268500D02*
Y270000D01*
X660000Y238501D02*
X715000D01*
X660000Y133502D02*
Y163500D01*
X670000D02*
X715000D01*
X660000Y58500D02*
X660000Y103502D01*
X670000D02*
X715000D01*
X670000Y58500D02*
X715000D01*
Y28500D02*
Y58500D01*
Y163500D02*
Y193500D01*
Y103502D02*
Y133502D01*
Y238501D02*
Y268500D01*
X140000Y20000D02*
Y75001D01*
X160000Y0D02*
X631500D01*
X140000Y225001D02*
Y280000D01*
X10000Y210000D02*
X125001D01*
X0Y100000D02*
Y200000D01*
X10000Y90000D02*
X125001D01*
M02*
